# 3ds Max Wavefront OBJ Exporter v0.99 - (c)2007 guruware
# File Created: 31.10.2024 20:45:41

mtllib dado_d4.mtl

#
# object pCone17
#

v  -4.1533 0.1450 -4.0451
v  2.6685 -3.2756 6.6476
v  2.4184 -2.9208 6.9209
v  -4.4077 0.5060 -3.7671
v  8.9503 0.2229 -4.9726
v  9.0474 0.5746 -4.7390
v  2.8243 -2.8912 6.7724
v  2.4483 9.9393 2.4725
v  2.0389 10.0309 2.5804
v  2.2747 10.1622 2.1442
v  -4.1678 0.6396 -4.2108
v  8.9360 0.7091 -5.1355
# 12 vertices

vn -0.7018 -0.6734 0.2323
vn 0.8376 -0.4432 0.3194
vn 0.3064 0.3105 0.8998
vn -0.7403 0.6394 -0.2077
vn 0.8073 0.5895 -0.0267
vn -0.0650 -0.3188 -0.9456
vn 0.8368 0.1959 0.5113
vn -0.8058 0.1668 0.5681
vn -0.0603 0.5820 -0.8109
vn -0.0153 -0.9551 -0.2958
vn 0.3393 -0.4121 0.8456
vn 0.3022 0.8553 0.4209
vn 0.9540 -0.0697 -0.2915
vn -0.8368 -0.1959 -0.5113
# 14 vertex normals

vt 0.4866 0.9684 0.0000
vt 0.2597 0.5146 0.0000
vt 0.2615 0.5116 0.0000
vt 0.4884 0.9653 0.0000
vt 0.7314 0.2426 0.0000
vt 0.7250 0.2500 0.0000
vt 0.3875 0.0551 0.0000
vt 0.3907 0.0459 0.0000
vt 0.3875 0.4449 0.0000
vt 0.3779 0.4467 0.0000
vt 0.3779 0.0533 0.0000
vt 0.4129 0.5116 0.0000
vt 0.4243 0.5116 0.0000
vt 0.5000 0.9653 0.0000
vt 0.7314 0.2574 0.0000
vt 0.3907 0.4541 0.0000
vt 0.5116 0.9653 0.0000
vt 0.5757 0.5116 0.0000
vt 0.5871 0.5116 0.0000
vt 0.7385 0.5116 0.0000
# 20 texture coords

o pCone17
g pCone17
usemtl 09___Default
s off
f 1/1/1 2/2/1 3/3/1 
f 3/3/1 4/4/1 1/1/1 
f 5/5/2 6/6/2 7/7/2 
f 7/7/2 2/8/2 5/5/2 
f 7/7/3 8/9/3 9/10/3 
f 9/10/3 3/11/3 7/7/3 
f 4/4/4 9/12/4 10/13/4 
f 10/13/4 11/14/4 4/4/4 
f 8/9/5 6/6/5 12/15/5 
f 12/15/5 10/16/5 8/9/5 
f 1/17/6 11/14/6 12/18/6 
f 12/18/6 5/19/6 1/17/6 
f 7/7/7 6/6/7 8/9/7 
f 3/3/8 9/12/8 4/4/8 
f 10/13/9 12/18/9 11/14/9 
f 5/19/10 2/20/10 1/17/10 
f 2/8/11 7/7/11 3/11/11 
f 9/10/12 8/9/12 10/16/12 
f 12/15/13 6/6/13 5/5/13 
f 1/1/14 4/4/14 11/14/14 
# 20 faces

