# 3ds Max Wavefront OBJ Exporter v0.99 - (c)2007 guruware
# File Created: 26.10.2024 01:08:51

mtllib dado_d8.mtl

#
# object D8_pPlatonic1
#

v  5.6210 -1.1265 -0.2777
v  -0.3710 -1.1265 -6.2696
v  -0.3710 -0.6827 -6.2696
v  5.6210 -0.6827 -0.2777
v  -0.3710 5.3092 -0.2777
v  -0.3710 5.3092 0.1661
v  5.6210 -0.6827 0.1661
v  -0.3710 -0.6827 6.1581
v  -0.3710 -1.1265 6.1581
v  5.6210 -1.1265 0.1661
v  -0.3710 -7.1185 0.1661
v  -0.3710 -7.1185 -0.2777
v  -0.8148 -0.6827 -6.2696
v  -0.8148 5.3092 -0.2777
v  -6.8067 -0.6827 -0.2777
v  -6.8067 -0.6827 0.1661
v  -0.8148 5.3092 0.1661
v  -0.8148 -0.6827 6.1581
v  -0.8148 -1.1265 6.1581
v  -0.8148 -7.1185 0.1661
v  -6.8067 -1.1265 0.1661
v  -0.8148 -1.1265 -6.2696
v  -6.8067 -1.1265 -0.2777
v  -0.8148 -7.1185 -0.2777
# 24 vertices

vn 0.7071 0.0000 -0.7071
vn 0.7071 0.7071 -0.0000
vn 0.7071 0.0000 0.7071
vn 0.7071 -0.7071 -0.0000
vn 0.0000 0.7071 -0.7071
vn -0.7071 0.7071 -0.0000
vn 0.0000 0.7071 0.7071
vn 0.0000 -0.7071 0.7071
vn -0.7071 0.0000 0.7071
vn -0.7071 0.0000 -0.7071
vn -0.7071 -0.7071 -0.0000
vn 0.0000 -0.7071 -0.7071
vn 0.5774 0.5774 0.5774
vn -0.5774 0.5774 0.5774
vn -0.5774 -0.5774 0.5774
vn 0.5774 -0.5774 0.5774
vn 0.5774 0.5774 -0.5774
vn -0.5774 0.5774 -0.5774
vn -0.5774 -0.5774 -0.5774
vn 0.5774 -0.5774 -0.5774
vn 1.0000 0.0000 -0.0000
vn 0.0000 1.0000 -0.0000
vn 0.0000 0.0000 1.0000
vn -1.0000 0.0000 -0.0000
vn 0.0000 -1.0000 -0.0000
vn 0.0000 0.0000 -1.0000
# 26 vertex normals

vt 0.5140 0.4755 0.0000
vt 0.6915 0.4844 0.0000
vt 0.6950 0.5030 0.0000
vt 0.5089 0.4934 0.0000
vt 0.5112 0.8337 0.0000
vt 0.4825 0.8339 0.0000
vt 0.5006 0.4919 0.0000
vt 0.3165 0.5018 0.0000
vt 0.3210 0.4838 0.0000
vt 0.5024 0.4736 0.0000
vt 0.4789 0.1406 0.0000
vt 0.5147 0.1392 0.0000
vt 0.7058 0.5047 0.0000
vt 0.5298 0.8492 0.0000
vt 0.4537 0.8694 0.0000
vt 0.0231 0.5593 0.0000
vt 0.0367 0.5431 0.0000
vt 0.4650 0.8510 0.0000
vt 0.3060 0.5019 0.0000
vt 0.3083 0.4827 0.0000
vt 0.4468 0.1436 0.0000
vt 0.0293 0.5157 0.0000
vt 0.9804 0.5427 0.0000
vt 0.7044 0.4849 0.0000
vt 0.9821 0.5131 0.0000
vt 0.0140 0.5003 0.0000
vt 0.4344 0.1265 0.0000
vt 0.5468 0.1354 0.0000
vt 0.0112 0.5346 0.0000
vt 0.4633 0.1198 0.0000
# 30 texture coords

o D8_pPlatonic1
g D8_pPlatonic1
usemtl 08___Default
s off
f 1/1/1 2/2/1 3/3/1 
f 3/3/1 4/4/1 1/1/1 
f 4/4/2 5/5/2 6/6/2 
f 6/6/2 7/7/2 4/4/2 
f 7/7/3 8/8/3 9/9/3 
f 9/9/3 10/10/3 7/7/3 
f 10/10/4 11/11/4 12/12/4 
f 12/12/4 1/1/4 10/10/4 
f 5/5/5 3/3/5 13/13/5 
f 13/13/5 14/14/5 5/5/5 
f 14/15/6 15/16/6 16/17/6 
f 16/17/6 17/18/6 14/15/6 
f 17/18/7 18/19/7 8/8/7 
f 8/8/7 6/6/7 17/18/7 
f 19/20/8 20/21/8 11/11/8 
f 11/11/8 9/9/8 19/20/8 
f 18/19/9 16/17/9 21/22/9 
f 21/22/9 19/20/9 18/19/9 
f 15/23/10 13/13/10 22/24/10 
f 22/24/10 23/25/10 15/23/10 
f 23/26/11 24/27/11 20/21/11 
f 20/21/11 21/22/11 23/26/11 
f 24/28/12 22/24/12 2/2/12 
f 2/2/12 12/12/12 24/28/12 
f 7/7/13 6/6/13 8/8/13 
f 17/18/14 16/17/14 18/19/14 
f 21/22/15 20/21/15 19/20/15 
f 9/9/16 11/11/16 10/10/16 
f 3/3/17 5/5/17 4/4/17 
f 13/13/18 15/23/18 14/14/18 
f 22/24/19 24/28/19 23/25/19 
f 2/2/20 1/1/20 12/12/20 
f 7/7/21 10/10/21 1/1/21 
f 1/1/21 4/4/21 7/7/21 
f 17/18/22 6/6/22 5/5/22 
f 5/5/22 14/14/22 17/18/22 
f 8/8/23 18/19/23 19/20/23 
f 19/20/23 9/9/23 8/8/23 
f 21/22/24 16/17/24 15/16/24 
f 15/16/24 23/29/24 21/22/24 
f 11/11/25 20/21/25 24/27/25 
f 24/27/25 12/30/25 11/11/25 
f 13/13/26 3/3/26 2/2/26 
f 2/2/26 22/24/26 13/13/26 
# 44 faces

