# 3ds Max Wavefront OBJ Exporter v0.99 - (c)2007 guruware
# File Created: 08.11.2024 16:42:20

mtllib gancho_mate.mtl

#
# object Gancho_mate
#

v  -0.9560 12.0191 -22.2588
v  -0.9560 12.2476 -22.3860
v  -0.9560 11.2046 -22.7078
v  -0.6859 12.1334 -22.3224
v  -0.9560 11.2955 -22.9295
v  -0.6859 11.3216 -22.7661
v  -0.9560 8.4046 -22.7078
v  -0.6859 8.4132 -22.7661
v  -0.9560 8.4217 -22.9023
v  -0.9560 5.1306 -22.7078
v  -0.6859 5.1392 -22.7661
v  -0.9560 5.1477 -22.9023
v  -0.8660 5.1392 -22.7661
v  -1.1447 3.2547 -22.5545
v  -1.1447 3.0007 -23.4591
v  -0.8056 3.2547 -22.5545
v  -0.8056 3.0007 -23.4591
v  -1.1447 3.7602 -23.9316
v  -0.8056 3.7602 -23.9316
v  -1.1447 5.3716 -22.4607
v  -1.1447 4.2110 -22.1276
v  -0.8056 5.3716 -22.4607
v  -0.8056 4.2110 -22.1276
v  -0.9751 5.3639 -22.9496
v  -0.9751 5.0001 -23.0410
v  -0.9751 4.5366 -22.8392
v  -0.9751 3.9303 -22.8514
v  -0.9751 3.6729 -23.2480
v  -0.9751 4.1740 -23.7789
v  -0.9751 4.4816 -24.0406
# 30 vertices

vn -0.6142 -0.6856 0.3908
vn -0.6051 0.6944 -0.3894
vn -0.6084 -0.1919 0.7700
vn 1.0000 -0.0000 0.0000
vn -0.5394 0.2152 -0.8141
vn 0.9968 -0.0029 0.0802
vn -0.6280 0.0000 0.7782
vn 0.9906 -0.0030 0.1369
vn -0.5160 -0.0020 -0.8566
vn -0.3340 -0.8824 0.3313
vn 0.3152 -0.9472 -0.0585
vn -0.2219 -0.8640 -0.4520
vn 0.0126 -0.9951 -0.0983
vn 0.0000 -0.9628 0.2704
vn 0.0000 -0.5283 -0.8491
vn 0.0000 0.2852 0.9585
vn -0.0000 0.2852 0.9585
vn 0.0000 -0.4077 0.9131
vn 0.9412 0.0824 -0.3277
vn 0.9570 -0.0000 -0.2902
vn 0.9675 -0.0056 -0.2527
vn 0.9723 0.1553 -0.1746
vn 0.9723 0.1553 -0.1745
vn 0.9705 0.2258 0.0848
vn 0.9297 0.2345 0.2840
vn 0.9150 0.2614 0.3072
vn 0.0000 -0.1493 -0.9888
vn -0.9297 0.2345 0.2839
vn -0.9150 0.2614 0.3072
vn -0.9705 0.2258 0.0849
vn -0.9723 0.1553 -0.1746
vn -0.9675 -0.0056 -0.2526
vn -0.9570 -0.0000 -0.2902
vn -0.9412 0.0824 -0.3277
# 34 vertex normals

vt 0.8022 -0.4099 0.0000
vt 0.8022 -0.4090 0.0000
vt 0.8022 -0.4066 0.0000
vt 0.8042 -0.4095 0.0000
vt 0.8022 -0.4050 0.0000
vt 0.8042 -0.4062 0.0000
vt 0.8022 -0.4052 0.0000
vt 0.8029 -0.4062 0.0000
vt 0.7128 -0.4867 0.0000
vt 0.6878 -0.4867 0.0000
vt 0.6753 -0.5083 0.0000
vt 0.7128 -0.5299 0.0000
vt 0.7252 -0.5083 0.0000
vt 0.7049 -0.5299 0.0000
vt 0.7067 -0.5194 0.0000
vt 0.7072 -0.5083 0.0000
vt 0.7039 -0.5021 0.0000
vt 0.6957 -0.5005 0.0000
vt 0.6881 -0.5083 0.0000
vt 0.6818 -0.5195 0.0000
vt 0.6880 -0.5083 0.0000
vt 0.6940 -0.4975 0.0000
vt 0.7055 -0.4993 0.0000
vt 0.7128 -0.5083 0.0000
vt 0.7081 -0.5219 0.0000
vt 0.7053 -0.5299 0.0000
# 26 texture coords

o Gancho_mate
g Gancho_mate
usemtl 02___Default
s off
f 1/1/1 2/2/2 3/3/3 
f 2/2/2 4/4/4 5/5/5 
f 2/2/2 5/5/5 3/3/3 
f 4/4/4 6/6/6 5/5/5 
f 3/3/3 5/5/5 7/3/7 
f 6/6/6 3/3/3 8/6/8 
f 3/3/3 7/3/7 8/6/8 
f 6/6/6 8/6/8 9/7/9 
f 5/5/5 6/6/6 9/7/9 
f 5/5/5 9/7/9 7/3/7 
f 7/3/7 9/7/9 10/3/10 
f 8/6/8 7/3/7 11/6/11 
f 7/3/7 10/3/10 11/6/11 
f 9/7/9 8/6/8 12/7/12 
f 9/7/9 12/7/12 10/3/10 
f 8/6/8 11/6/11 12/7/12 
f 10/3/10 12/7/12 13/8/13 
f 11/6/11 10/3/10 13/8/13 
f 12/7/12 11/6/11 13/8/13 
f 14/9/14 15/10/14 16/9/14 
f 15/10/14 17/10/14 16/9/14 
f 15/10/15 18/11/15 17/10/15 
f 18/11/15 19/11/15 17/10/15 
f 20/12/16 21/13/16 22/12/17 
f 21/13/16 23/13/16 22/12/17 
f 21/13/18 14/9/18 23/13/18 
f 14/9/18 16/9/18 23/13/18 
f 24/14/19 22/12/20 25/15/20 
f 22/12/20 23/13/21 25/15/20 
f 23/13/21 26/16/21 25/15/20 
f 23/13/21 16/9/22 26/16/21 
f 16/9/22 27/17/23 26/16/21 
f 16/9/22 17/10/24 27/17/23 
f 17/10/24 28/18/24 27/17/23 
f 17/10/24 19/11/25 28/18/24 
f 19/11/25 29/19/25 28/18/24 
f 19/11/25 30/20/26 29/19/25 
f 18/11/27 30/20/27 19/11/27 
f 29/21/28 30/20/29 18/11/28 
f 18/11/28 15/10/30 29/21/28 
f 15/10/30 28/22/30 29/21/28 
f 15/10/30 14/9/31 28/22/30 
f 14/9/31 27/23/31 28/22/30 
f 14/9/31 21/13/32 27/23/31 
f 21/13/32 26/24/32 27/23/31 
f 21/13/32 20/12/33 26/24/32 
f 20/12/33 25/25/33 26/24/32 
f 20/12/33 24/26/34 25/25/33 
# 48 faces

