# 3ds Max Wavefront OBJ Exporter v0.99 - (c)2007 guruware
# File Created: 13.11.2024 11:32:45

mtllib mike_wasawski.mtl

#
# object mike_wazowski_lod0_mike_wazowski_lod0_mesh0000
#

v  -1.6099 7.7148 2.0782
v  -0.9250 7.4600 3.0759
v  -0.6287 7.4526 2.0863
v  -0.9201 7.5229 1.4588
v  -1.6099 7.5857 1.1728
v  -1.6099 7.6513 3.3848
v  -0.9636 7.5155 3.3854
v  -1.6099 7.5897 3.0440
v  -0.4727 7.1744 3.2277
v  -0.0735 6.6389 2.9475
v  0.0041 6.7257 2.0680
v  -0.2543 6.9042 1.2820
v  -0.7590 6.9714 0.7682
v  -1.6099 6.9217 0.5305
v  0.7291 5.4203 2.5031
v  0.6323 4.9606 3.0763
v  0.8344 4.9982 2.2073
v  0.1767 6.2559 1.2040
v  -0.5730 6.0673 0.2135
v  -1.6099 6.0684 -0.1079
v  0.8817 4.9738 1.7264
v  0.8621 4.1572 2.1379
v  0.5487 5.1096 0.8545
v  0.7194 5.4645 1.4482
v  -0.5603 3.3487 0.4596
v  -1.6099 3.3249 0.1220
v  -0.7810 4.2143 -0.2120
v  -0.3507 4.4157 3.8983
v  -0.6529 3.4968 3.7108
v  0.2620 3.5812 3.2236
v  0.1686 3.3313 0.9320
v  -0.5106 2.9116 1.2776
v  -0.9687 2.8592 1.0567
v  -1.6107 2.8257 0.8014
v  -1.6099 2.6063 2.1269
v  -0.6083 2.9284 3.1038
v  -1.6099 2.8336 3.2841
v  -0.6065 2.7975 2.4680
v  -1.6099 7.1676 3.5664
v  -0.7570 6.8955 3.4469
v  -1.0206 7.3355 3.6594
v  -1.6099 7.4271 3.6876
v  -0.4136 6.5121 3.5731
v  -0.6392 7.1418 3.5622
v  -1.6099 5.9031 2.6181
v  -1.6081 5.0470 4.2227
v  -1.0974 5.1408 4.1570
v  -0.7090 4.6302 1.7307
v  -0.6721 4.9036 2.3140
v  -1.6099 4.8942 2.3726
v  -1.6012 4.5750 1.8003
v  0.7387 5.7123 1.9959
v  0.7854 5.4541 1.6033
v  0.3130 6.2467 2.0348
v  0.7607 5.4525 2.2786
v  -0.1797 1.7859 2.2365
v  -0.3875 1.7831 2.1421
v  -0.0309 3.0912 1.6458
v  0.0647 3.0736 2.1987
v  -0.1184 2.9131 2.1977
v  -0.5053 2.8012 2.3650
v  -0.7038 2.8219 1.7866
v  -0.5328 1.7758 2.3292
v  -0.4997 2.8701 1.5411
v  -0.4684 0.5478 1.3650
v  -0.2505 0.5491 1.4354
v  -0.1699 1.5986 2.4402
v  -0.1657 1.7831 2.5082
v  -0.4061 1.7741 2.5568
v  -0.4040 1.5962 2.4905
v  -0.6027 0.5466 1.5504
v  -0.4921 -0.0194 1.3375
v  -0.1800 -0.0194 1.4079
v  -0.6845 -0.0194 1.5229
v  -0.2502 0.4965 1.6817
v  -0.1021 -0.0194 3.5174
v  0.2243 -0.0194 3.6411
v  0.1183 0.4459 3.2926
v  -0.1504 0.3002 3.2967
v  -0.4679 0.5022 1.7528
v  -0.5936 -0.0194 2.7644
v  0.3927 -0.0194 2.4435
v  -0.0528 0.4143 2.7036
v  -0.3810 0.3541 2.7615
v  0.4341 -0.0194 3.3702
v  0.6469 -0.0194 3.3792
v  0.5035 0.4285 3.2809
v  0.3100 0.3188 3.1900
v  0.7417 -0.0194 3.0473
v  0.1027 -0.0194 3.2554
v  0.2119 0.3556 2.6055
v  0.6079 0.3272 3.0535
v  -0.5192 -0.0194 3.4579
v  -0.4657 0.3167 3.3005
v  0.4386 4.1994 0.8702
v  0.5441 4.1395 3.0184
v  0.6039 3.5654 2.1097
v  -0.4216 1.8934 2.5198
v  -0.1883 1.9063 2.4587
v  -0.2111 7.3449 1.8779
v  -0.1503 7.3127 2.0450
v  -0.3301 6.8332 2.0338
v  -0.4909 6.9087 1.6859
v  -0.7480 7.1294 1.6631
v  -0.3204 7.5323 1.8529
v  -0.9088 7.2745 2.0474
v  -0.4693 7.5524 2.0218
v  -0.7480 7.1990 2.3361
v  -0.3904 7.5106 2.1726
v  -0.4909 6.9783 2.3589
v  -0.2192 7.3950 2.2014
v  -1.6057 4.1860 4.2387
v  -1.0231 4.2755 4.1375
v  -1.0090 4.3988 4.2900
v  -1.6057 4.3277 4.3870
v  -0.3740 5.6914 3.6366
v  -0.5948 5.4046 3.8895
v  -1.0652 5.0599 4.0774
v  -0.5569 5.2572 3.7172
v  -1.6089 4.9563 4.1883
v  -0.7646 5.1133 -0.3022
v  -1.6099 5.1133 -0.5196
v  0.3791 5.8512 3.1238
v  -0.2685 6.5597 3.4021
v  -1.1086 4.8760 4.1718
v  -1.6099 4.8229 4.2259
v  -1.6057 4.6558 4.3720
v  -0.9973 4.6819 4.2674
v  0.0416 4.3532 2.2938
v  0.0420 4.8020 2.2465
v  -1.0333 4.5379 4.1281
v  -1.6057 4.5125 4.2360
v  -0.1268 4.8691 3.7717
v  -0.6045 4.6591 3.8923
v  -0.4996 4.5610 3.9962
v  -0.1292 5.1606 3.6514
v  -0.6349 4.9749 3.8797
v  -0.5618 4.7021 4.1188
v  -1.6057 4.4984 4.2598
v  -1.0037 4.5327 4.1596
v  -1.6057 4.2371 2.1813
v  -0.8715 4.3015 2.1010
v  0.1197 4.4886 3.5727
v  -0.0667 5.1624 2.1207
v  -0.5807 4.6247 3.9789
v  -1.6099 3.4267 3.9201
v  -2.5910 7.4527 2.0863
v  -2.2948 7.4680 3.0927
v  -2.2997 7.5405 1.4588
v  -2.2562 7.5155 3.3854
v  -2.7471 7.1744 3.2277
v  -3.2222 6.7257 2.0680
v  -3.1463 6.6385 2.8912
v  -2.9655 6.9088 1.2631
v  -2.4608 6.9757 0.7985
v  -3.9495 5.4040 2.4821
v  -3.8441 4.9633 3.2482
v  -3.5711 5.8512 3.1238
v  -3.3951 6.2568 1.1621
v  -2.6466 6.0673 0.2135
v  -4.0932 4.9734 1.7271
v  -4.0487 4.1572 2.1379
v  -4.0471 4.9984 2.2080
v  -3.9883 5.4619 1.4523
v  -3.7605 5.0679 0.8243
v  -2.6611 3.3487 0.4596
v  -2.4682 4.2104 -0.2095
v  -2.8692 4.4157 3.8983
v  -3.4140 3.5726 3.1783
v  -2.5670 3.4968 3.7108
v  -3.3884 3.3313 0.9320
v  -2.7092 2.9116 1.2775
v  -2.2527 2.8592 1.0567
v  -2.1992 7.3355 3.6594
v  -2.4570 6.8989 3.4420
v  -2.5806 7.1419 3.5622
v  -2.8062 6.5144 3.5731
v  -2.1202 5.1406 4.1679
v  -2.4101 4.6302 1.7307
v  -2.5477 4.9031 2.3140
v  -3.9491 5.7094 1.9959
v  -3.5188 6.2468 2.0348
v  -3.9969 5.4465 1.6033
v  -3.9722 5.4498 2.2788
v  -3.0401 1.7859 2.2365
v  -3.1889 3.0912 1.6458
v  -2.8323 1.7831 2.1421
v  -3.1014 2.9131 2.1977
v  -3.2845 3.0736 2.1987
v  -2.7145 2.8012 2.3650
v  -2.6133 2.7975 2.4680
v  -2.5160 2.8219 1.7866
v  -2.7201 2.8701 1.5412
v  -2.6870 1.7758 2.3292
v  -2.7514 0.5478 1.3650
v  -2.9693 0.5491 1.4354
v  -3.0541 1.7832 2.5082
v  -3.0498 1.6016 2.4401
v  -2.8155 1.5985 2.4906
v  -2.8136 1.7742 2.5567
v  -2.7519 0.5221 1.7528
v  -2.6171 0.5466 1.5504
v  -2.8098 1.5314 2.3856
v  -2.7278 -0.0194 1.3375
v  -2.5353 -0.0194 1.5229
v  -3.0399 -0.0194 1.4079
v  -2.9696 0.5236 1.6817
v  -2.8962 0.4184 3.4238
v  -2.9164 -0.0194 3.6749
v  -2.7007 -0.0194 3.4578
v  -2.7658 0.3009 3.3005
v  -2.6262 -0.0194 2.7644
v  -3.6126 -0.0194 2.4435
v  -3.4318 0.3556 2.6055
v  -3.1506 0.3839 2.7114
v  -3.3489 0.4494 3.2992
v  -3.5528 0.2944 3.1749
v  -3.5811 -0.0064 3.3641
v  -3.4416 -0.0061 3.6072
v  -3.9615 -0.0194 3.0473
v  -3.3467 -0.0194 3.2475
v  -3.8278 0.2928 3.0535
v  -3.6901 4.1994 0.8702
v  -3.7454 4.1405 3.1066
v  -3.6972 3.5654 2.1097
v  -2.7982 1.8934 2.5198
v  -3.0316 1.9063 2.4587
v  -3.0965 7.3127 1.9919
v  -3.0357 7.3449 1.8253
v  -2.7533 6.9087 1.6876
v  -2.9141 6.8332 2.0355
v  -2.9262 7.5323 1.8547
v  -2.4962 7.1294 1.6648
v  -2.7775 7.5524 2.0237
v  -2.3354 7.2745 1.9899
v  -2.8563 7.5106 2.1744
v  -2.4962 7.1990 2.3378
v  -3.0276 7.3950 2.1495
v  -2.7533 6.9784 2.3606
v  -2.2313 4.3960 4.2943
v  -2.2216 4.2764 4.1414
v  -2.8506 5.6933 3.6366
v  -2.5939 5.4095 3.9238
v  -2.1540 5.0544 4.1035
v  -2.5974 5.2821 3.8440
v  -2.4552 5.1133 -0.3022
v  -2.1112 4.8760 4.1718
v  -2.2225 4.6824 4.2674
v  -3.2614 4.3532 2.2938
v  -3.3026 4.8053 2.2465
v  -2.2070 4.5409 4.1344
v  -3.0464 4.8591 3.7793
v  -2.7205 4.5610 3.9962
v  -2.6053 4.6570 3.8957
v  -3.0906 5.1659 3.7313
v  -2.5849 4.9926 3.9591
v  -2.6580 4.7021 4.1188
v  -2.2162 4.5332 4.1596
v  -2.3483 4.3015 2.1010
v  -3.1531 5.2196 2.1541
v  -2.6391 4.6278 3.9853
v  -3.3395 4.4863 3.6292
v  -2.6035 2.9174 3.1195
v  -0.2364 7.7643 2.0849
v  -3.0084 7.7643 2.0793
v  -0.1374 4.2023 0.2007
v  -0.1134 5.0446 0.1192
v  -1.6068 4.2075 -0.3772
v  -3.1052 5.1008 0.1190
v  -3.1137 4.2084 0.2013
v  -0.4542 5.5694 3.5875
v  -0.6645 5.6544 4.0294
v  -1.0158 5.1681 4.0355
v  -0.8936 4.9611 3.5937
v  -0.4562 6.3365 3.5845
v  -0.6661 6.2555 4.0264
v  -0.8892 6.9596 3.5857
v  -1.0200 6.7418 4.0276
v  -1.6094 7.2055 3.5908
v  -1.6089 6.9260 4.0326
v  -1.6068 5.3431 4.3169
v  -1.2210 5.4603 4.3125
v  -1.6051 5.9704 4.4655
v  -0.9960 5.7714 4.3086
v  -0.9970 6.1559 4.3067
v  -1.2244 6.4670 4.3075
v  -1.6071 6.5842 4.3107
v  -1.6085 4.9840 4.0423
v  -1.6095 4.7219 3.5987
v  -0.4673 5.5579 2.7359
v  -0.9057 4.9497 2.7358
v  -0.4693 6.3405 2.7358
v  -0.9049 6.9556 2.7359
v  -1.6136 7.1537 2.7361
v  -1.6141 4.7314 2.7404
v  -2.7632 5.5694 3.6070
v  -2.3173 4.9546 3.6108
v  -2.1567 5.1681 4.0473
v  -2.5106 5.6544 4.0485
v  -2.7389 6.3365 3.6039
v  -2.5122 6.2555 4.0455
v  -2.3259 6.9766 3.5978
v  -2.1609 6.7418 4.0394
v  -1.9967 5.4603 4.3201
v  -2.2066 5.7714 4.3208
v  -2.2076 6.1559 4.3189
v  -1.9994 6.4670 4.3150
v  -2.7690 5.5579 2.7384
v  -2.3103 4.9497 2.7361
v  -2.7576 6.3405 2.7380
v  -2.3095 6.9556 2.7361
v  -1.6099 4.9080 4.0694
v  -1.6099 4.5172 4.1767
v  -1.1755 4.5308 4.1158
v  -1.1940 4.9329 4.0221
v  -0.3408 4.6854 3.4009
v  -0.3485 4.8845 2.4425
v  -0.2643 5.1468 3.4131
v  -0.5242 4.5648 3.8406
v  -0.5328 5.0214 3.7681
v  -1.3980 4.3795 4.0635
v  -1.2348 4.6417 3.8102
v  -0.6748 4.6523 3.6747
v  -0.5451 4.7982 3.3374
v  -0.8509 4.5213 4.0246
v  -0.8510 4.9524 3.9455
v  -0.6605 4.4472 3.8844
v  -0.9800 4.6285 3.7805
v  -0.5565 4.9712 2.4446
v  -0.2532 5.3096 2.4504
v  -2.0244 4.9328 4.0560
v  -2.3688 4.9524 3.9792
v  -2.3707 4.5213 4.0246
v  -2.0278 4.5302 4.1203
v  -2.8790 4.6854 3.4009
v  -2.9555 5.1468 3.4131
v  -2.8713 4.8845 2.4425
v  -2.6974 4.5648 3.8406
v  -2.6870 5.0214 3.8018
v  -2.2398 4.6285 3.7873
v  -2.2014 4.4191 4.0029
v  -2.6747 4.7982 3.3374
v  -2.5450 4.6523 3.6747
v  -2.5115 4.4472 3.8845
v  -2.6633 4.9712 2.4446
v  -2.9666 5.3096 2.4504
v  -1.2328 4.1260 3.9429
v  -1.2603 4.4423 3.9734
v  -1.6132 4.4246 4.0294
v  -1.6100 4.1070 3.9801
v  -0.3552 4.6293 3.2855
v  -0.2102 4.3753 2.3499
v  -0.2583 4.7523 2.3645
v  -0.3847 4.2572 3.2462
v  -0.6023 4.5021 3.8136
v  -0.5553 4.1712 3.7673
v  -0.5110 4.6576 3.1381
v  -0.7047 4.5668 3.6175
v  -1.2670 4.4844 3.7859
v  -1.3131 4.2629 3.5462
v  -1.6013 4.2431 3.6125
v  -1.6132 4.4885 3.8928
v  -0.5474 4.7701 2.3652
v  -0.5474 4.4087 2.3464
v  -0.5538 4.2612 3.0875
v  -0.7396 4.2939 3.3920
v  -0.9233 4.1415 3.9125
v  -0.9110 4.4726 3.9291
v  -0.8052 4.6176 3.7447
v  -0.9496 4.5077 3.7035
v  -1.0269 4.2827 3.4804
v  -1.9684 4.4434 3.9708
v  -1.9743 4.1253 3.9442
v  -2.8646 4.6293 3.2855
v  -2.9615 4.7523 2.3645
v  -3.0096 4.3753 2.3499
v  -2.8352 4.2572 3.2462
v  -2.6646 4.1712 3.7673
v  -2.6176 4.5021 3.8136
v  -2.7088 4.6576 3.1381
v  -2.5152 4.5668 3.6175
v  -1.8922 4.2625 3.5476
v  -2.1931 4.2827 3.4804
v  -2.2676 4.5073 3.7053
v  -1.9582 4.4842 3.7860
v  -2.6661 4.2612 3.0875
v  -2.6724 4.4087 2.3464
v  -2.6724 4.7701 2.3652
v  -2.4803 4.2939 3.3920
v  -2.2966 4.1415 3.9125
v  -2.3058 4.4727 3.9287
v  -2.4147 4.6176 3.7447
v  -1.6099 4.4317 3.7166
v  -1.1475 4.4461 3.5596
v  -1.1303 4.5423 3.6575
v  -1.6099 4.5276 3.8125
v  -1.6099 4.6488 3.7440
v  -1.1615 4.6536 3.5920
v  -1.6099 4.7804 3.2930
v  -0.9814 4.5975 3.2436
v  -1.0548 4.7498 3.2594
v  -1.6099 4.4461 3.2681
v  -1.0327 4.4504 3.2387
v  -1.0548 4.8054 2.5711
v  -1.6099 4.8477 2.6295
v  -1.6099 4.4436 2.6005
v  -0.9447 4.4840 2.5472
v  -1.0791 4.8142 2.0004
v  -1.6099 4.8900 2.0428
v  -1.6099 4.4535 2.0133
v  -0.9927 4.4757 1.9813
v  -2.0895 4.5423 3.6575
v  -2.0723 4.4461 3.5596
v  -2.0583 4.6536 3.5920
v  -2.1710 4.7530 3.2513
v  -2.2384 4.5975 3.2436
v  -2.1871 4.4504 3.2387
v  -2.1650 4.8054 2.5711
v  -2.2751 4.4840 2.5472
v  -2.1407 4.8142 2.0004
v  -2.2271 4.4928 1.9776
v  -1.0877 4.5922 3.8205
v  -1.4348 4.5867 3.9026
v  -1.7918 4.5935 3.9019
v  -2.1343 4.5923 3.8711
v  -1.0108 4.4194 4.0006
v  -1.9732 4.6429 3.8039
v  -1.8136 4.3792 4.0616
v  -1.6099 4.6777 3.8762
v  -0.7570 7.1442 3.1542
v  -1.6115 7.5055 3.2677
v  -0.8313 6.9010 2.2826
v  -0.4068 6.5726 2.5817
v  -0.3273 6.3697 3.0382
v  -0.3595 6.0176 3.5808
v  -0.3733 5.6667 3.6303
v  -0.4303 6.7611 3.1216
v  -1.6115 7.1614 3.9012
v  -1.0334 7.0901 3.8300
v  -1.6115 7.3627 3.0982
v  -0.8948 7.1848 3.0873
v  -0.5035 6.6653 3.6887
v  -1.6115 7.0550 2.1053
v  -2.4660 7.1442 3.1542
v  -2.3916 6.9010 2.2826
v  -2.8162 6.5726 2.5817
v  -2.8957 6.3697 3.0382
v  -2.8424 6.0176 3.6324
v  -2.7926 6.7611 3.1216
v  -2.1896 7.0901 3.8300
v  -2.3281 7.1848 3.0873
v  -2.7202 6.6653 3.6887
v  -2.9513 6.5597 3.4021
v  -2.8497 5.6667 3.6303
v  -1.6041 6.7849 2.9740
v  -1.6089 5.6923 3.0224
v  -2.8389 0.3541 2.7615
v  -0.2927 0.4162 3.4512
v  -0.3106 -0.0194 3.6316
v  -3.7152 0.4090 3.2239
v  -3.1471 -0.0080 3.5130
v  -3.0972 0.3052 3.2972
v  -3.8477 -0.0194 3.3851
v  1.7011 4.4514 1.1159
v  1.5554 4.2785 1.1804
v  1.8814 4.3887 1.4000
v  1.9558 4.4455 1.2241
v  2.7542 3.2665 2.0495
v  2.8836 3.4653 2.0271
v  1.9928 4.2674 1.4081
v  1.8624 4.1296 1.4088
v  1.8419 3.9876 1.2433
v  2.7371 3.1648 1.7493
v  2.0318 4.1031 1.1778
v  2.9030 3.3913 1.7415
v  3.3750 1.9351 1.6016
v  3.5455 1.9235 1.5946
v  3.5633 1.7457 1.8533
v  3.3984 1.7617 1.8567
v  2.9892 3.3125 1.7503
v  2.9702 3.3722 2.1055
v  3.2519 3.0772 1.5963
v  2.8633 2.9461 2.3324
v  2.9564 2.8370 1.6032
v  3.0949 2.6838 1.5606
v  3.3758 2.7731 1.5347
v  3.3790 3.0657 2.3337
v  3.0790 2.6942 2.3435
v  3.1655 2.6560 2.3206
v  3.4454 2.7767 2.3077
v  3.1472 2.6504 2.1389
v  3.0365 3.1830 2.3841
v  3.1419 2.6462 2.4451
v  3.3111 2.7798 2.5050
v  3.1616 2.8268 2.6124
v  3.5547 2.3522 1.5480
v  3.5990 2.3432 2.0140
v  3.6228 2.3534 2.3004
v  3.3888 2.3118 2.2839
v  3.3807 1.9313 2.2907
v  3.5956 2.0304 2.2939
v  3.3727 2.3496 1.5558
v  3.3737 2.3240 2.0639
v  3.5091 1.7937 2.1968
v  3.3817 1.8810 2.0996
v  3.5736 1.9936 2.0909
v  3.6008 2.3546 2.0549
v  3.5038 2.7811 2.0464
v  3.0282 2.6647 2.5628
v  1.7401 4.2474 1.3956
v  3.3696 2.5314 2.5975
v  3.2056 2.4378 2.5448
v  3.2390 2.5511 2.7143
v  3.1182 2.4451 2.6917
v  3.3748 2.3427 2.1000
v  3.3054 2.3048 2.6854
v  2.0603 4.3382 1.2215
v  1.7076 4.1299 1.1853
v  1.8763 4.2709 1.1159
v  3.5753 1.8352 2.0123
v  3.3911 1.8319 1.9943
v  -4.9209 4.4514 1.1159
v  -4.7752 4.2785 1.1804
v  -5.1012 4.3887 1.4000
v  -5.9740 3.2665 2.0495
v  -5.0822 4.1296 1.4088
v  -5.2126 4.2674 1.4081
v  -6.0686 3.5052 1.9878
v  -5.9569 3.1648 1.7493
v  -5.0617 3.9876 1.2433
v  -5.2517 4.1031 1.1778
v  -6.1079 3.4018 1.7116
v  -6.5949 1.9351 1.6016
v  -6.6182 1.7617 1.8567
v  -6.7831 1.7457 1.8533
v  -6.7653 1.9235 1.5946
v  -6.1969 3.3204 1.7363
v  -6.4717 3.0772 1.5963
v  -6.1584 3.4088 2.0816
v  -6.0831 2.9461 2.3324
v  -6.1762 2.8370 1.6032
v  -6.3147 2.6838 1.5606
v  -6.5956 2.7732 1.5347
v  -6.5989 3.0657 2.3337
v  -6.6652 2.7767 2.3077
v  -6.3853 2.6560 2.3206
v  -6.2988 2.6942 2.3435
v  -6.3670 2.6504 2.1389
v  -6.2563 3.1830 2.3841
v  -6.3617 2.6462 2.4451
v  -6.5309 2.7798 2.5050
v  -6.3814 2.8268 2.6124
v  -6.7745 2.3522 1.5480
v  -6.8188 2.3432 2.0140
v  -6.8426 2.3534 2.3004
v  -6.8154 2.0304 2.2939
v  -6.6005 1.9313 2.2907
v  -6.6086 2.3118 2.2839
v  -6.5936 2.3241 2.0639
v  -6.5925 2.3496 1.5558
v  -6.6015 1.8810 2.0996
v  -6.7289 1.7937 2.1968
v  -6.8206 2.3547 2.0549
v  -6.7934 1.9936 2.0909
v  -6.7237 2.7811 2.0464
v  -6.2480 2.6647 2.5628
v  -5.1756 4.4455 1.2241
v  -4.9599 4.2474 1.3956
v  -6.4254 2.4378 2.5448
v  -6.5894 2.5315 2.5975
v  -6.4588 2.5511 2.7143
v  -6.3380 2.4451 2.6917
v  -6.5946 2.3427 2.1000
v  -6.5252 2.3048 2.6854
v  -5.2801 4.3382 1.2215
v  -4.9274 4.1299 1.1853
v  -5.0961 4.2709 1.1159
v  -6.6109 1.8319 1.9943
v  -6.7951 1.8352 2.0123
v  -3.0296 1.5351 2.3214
v  -0.1903 1.5308 2.3214
v  -0.4100 1.5282 2.3856
# 582 vertices

vn 0.0045 1.0000 0.0074
vn 0.3694 0.9292 0.0088
vn 0.5462 0.8376 -0.0078
vn 0.3881 0.8773 -0.2822
vn 0.0033 0.8842 -0.4671
vn -0.0009 0.9758 0.2188
vn 0.3789 0.8954 0.2338
vn 0.0056 0.9998 -0.0197
vn 0.7330 0.6345 0.2454
vn 0.8133 0.5340 0.2310
vn 0.8035 0.5953 0.0077
vn 0.7014 0.6241 -0.3442
vn 0.4183 0.6392 -0.6453
vn -0.0116 0.6414 -0.7671
vn 0.9306 0.2822 0.2331
vn 0.8529 0.0597 0.5186
vn 0.9828 0.0441 0.1792
vn 0.7743 0.5027 -0.3845
vn 0.4775 0.4536 -0.7525
vn -0.0020 0.4836 -0.8753
vn 0.9714 -0.0429 -0.2335
vn 0.9732 -0.2285 0.0249
vn 0.8334 0.1309 -0.5370
vn 0.8696 0.3462 -0.3520
vn 0.3447 -0.6658 -0.6618
vn 0.0013 -0.6666 -0.7454
vn 0.3539 -0.2992 -0.8861
vn 0.5151 -0.1653 0.8410
vn 0.3321 -0.5190 0.7876
vn 0.6766 -0.4960 0.5442
vn 0.6451 -0.6239 -0.4412
vn 0.3049 -0.9163 -0.2596
vn 0.2186 -0.9213 -0.3215
vn 0.0000 -0.9106 -0.4134
vn 0.0011 -1.0000 0.0086
vn 0.3185 -0.8476 0.4244
vn 0.0076 -0.8819 0.4714
vn 0.2434 -0.9596 0.1415
vn -0.0067 -0.6143 0.7890
vn -0.3431 -0.3189 0.8835
vn 0.2122 0.2540 0.9436
vn -0.0075 0.2954 0.9553
vn 0.2272 0.1016 0.9685
vn 0.4407 0.2625 0.8584
vn 0.0042 0.8592 0.5116
vn 0.0109 0.2706 0.9626
vn 0.2349 0.1862 0.9540
vn -0.0765 -0.0638 0.9950
vn 0.2325 -0.9681 0.0937
vn 0.0005 -0.9923 0.1235
vn -0.0036 -0.0773 0.9970
vn 0.7971 0.6037 0.0130
vn 0.8648 0.3659 -0.3438
vn 0.8346 0.5508 0.0072
vn 0.9622 0.2156 0.1662
vn 0.9138 -0.0149 -0.4059
vn -0.2637 0.0162 -0.9645
vn 0.6574 -0.7146 -0.2389
vn 0.6328 -0.7688 0.0924
vn 0.7842 -0.3909 0.4818
vn 0.2433 -0.9596 0.1415
vn -0.0072 -0.7838 0.6210
vn -0.2951 -0.9249 -0.2398
vn -0.9918 -0.0820 0.0977
vn 0.1400 -0.8678 -0.4769
vn -0.2874 0.2926 -0.9120
vn 0.7414 0.2425 -0.6258
vn 0.7240 -0.4917 0.4837
vn 0.7366 0.0593 0.6737
vn -0.3537 -0.0384 0.9346
vn -0.3864 -0.5642 0.7296
vn -0.9831 0.1387 -0.1192
vn -0.2414 -0.5813 -0.7771
vn 0.5619 -0.5508 -0.6171
vn -0.8090 -0.5321 -0.2496
vn 0.9436 0.3172 0.0948
vn 0.0398 -0.5922 0.8048
vn 0.2580 -0.3432 0.9031
vn 0.1170 0.9093 0.3993
vn 0.1748 0.8709 0.4593
vn -0.8090 -0.5321 -0.2497
vn -0.7309 0.2357 0.6405
vn -0.8444 -0.5338 0.0456
vn 0.7440 -0.5172 -0.4230
vn 0.0309 0.9966 0.0768
vn -0.8444 -0.5338 0.0455
vn -0.5346 0.8407 0.0860
vn 0.2027 -0.6909 0.6939
vn 0.5489 -0.4574 0.6997
vn 0.1641 0.8102 0.5628
vn 0.0318 0.8916 0.4517
vn 0.8675 -0.4869 -0.1018
vn 0.0000 -1.0000 -0.0000
vn 0.4830 0.8480 -0.2183
vn 0.7656 0.6218 -0.1652
vn -0.7430 -0.5104 0.4330
vn -0.7935 0.5760 0.1966
vn 0.8458 -0.2074 -0.4916
vn 0.8587 -0.1999 0.4719
vn 0.8309 -0.5562 0.0150
vn 0.6574 -0.7147 -0.2389
vn 0.6327 -0.7688 0.0924
vn -0.4359 0.1889 0.8800
vn 0.7680 0.2052 0.6067
vn 0.7603 0.0258 -0.6490
vn 0.9901 -0.1297 0.0531
vn 0.9312 -0.3644 0.0127
vn 0.5916 -0.0247 -0.8059
vn -0.0896 0.5327 -0.8415
vn 0.1418 0.5604 -0.8160
vn -0.5314 0.8466 -0.0301
vn -0.5894 0.8055 -0.0616
vn -0.1657 0.6011 0.7818
vn -0.2433 0.5362 0.8083
vn 0.5328 -0.0019 0.8462
vn 0.6208 0.1059 0.7768
vn 0.0090 -0.5723 0.8200
vn 0.2958 -0.5772 0.7611
vn 0.3038 -0.0105 0.9527
vn 0.0071 -0.1018 0.9948
vn 0.1479 0.3067 0.9403
vn 0.4489 0.2548 0.8565
vn 0.4500 -0.0812 0.8893
vn 0.5054 0.0356 0.8622
vn 0.4488 0.2547 0.8566
vn 0.0192 -0.0258 0.9995
vn 0.1479 0.3067 0.9402
vn 0.3788 0.1453 -0.9140
vn -0.0003 0.1308 -0.9914
vn 0.8347 0.5507 0.0072
vn 0.7814 0.3539 0.5140
vn 0.7448 0.3101 0.5909
vn 0.1817 0.4976 0.8481
vn 0.0066 0.5061 0.8624
vn 0.0009 0.0062 1.0000
vn 0.2863 -0.0488 0.9569
vn -0.7152 0.6480 0.2620
vn -0.9271 -0.0622 0.3695
vn -0.0002 0.9520 0.3060
vn 0.0008 0.9151 0.4033
vn 0.5272 0.1667 0.8332
vn -0.2667 0.9485 0.1710
vn 0.3316 0.3486 0.8767
vn 0.4483 0.2722 0.8514
vn 0.5054 0.0357 0.8621
vn 0.3389 0.5079 0.7919
vn 0.4920 -0.1814 0.8515
vn 0.0023 -0.9140 0.4057
vn 0.2174 -0.9056 0.3641
vn -0.0023 0.9651 0.2619
vn -0.0701 0.9439 0.3226
vn 0.6549 -0.0936 0.7499
vn -0.4282 -0.7873 0.4436
vn 0.3486 -0.9268 0.1399
vn 0.0035 -0.5646 0.8254
vn -0.5507 0.8347 -0.0011
vn -0.3728 0.9278 0.0120
vn -0.3827 0.8790 -0.2844
vn -0.3763 0.8937 0.2443
vn -0.7380 0.6285 0.2458
vn -0.8083 0.5886 0.0162
vn -0.8218 0.5292 0.2111
vn -0.6951 0.6245 -0.3562
vn -0.4110 0.6379 -0.6512
vn -0.9305 0.2970 0.2142
vn -0.8307 0.0786 0.5511
vn -0.7734 0.3993 0.4924
vn -0.7650 0.5064 -0.3979
vn -0.4687 0.4615 -0.7532
vn -0.9783 -0.0629 -0.1973
vn -0.9574 -0.2869 0.0313
vn -0.9872 0.0296 0.1568
vn -0.9097 0.3056 -0.2812
vn -0.8292 0.1182 -0.5463
vn -0.3428 -0.6699 -0.6585
vn -0.3552 -0.2974 -0.8862
vn -0.5039 -0.1889 0.8428
vn -0.6713 -0.5336 0.5144
vn -0.3578 -0.5110 0.7815
vn -0.6502 -0.6325 -0.4210
vn -0.3052 -0.9163 -0.2592
vn -0.2189 -0.9213 -0.3213
vn -0.2041 0.2482 0.9470
vn 0.3424 -0.3199 0.8834
vn -0.4359 0.2589 0.8620
vn -0.2264 0.1027 0.9686
vn -0.1912 0.2316 0.9538
vn 0.0477 -0.0824 0.9955
vn -0.2963 -0.9505 0.0941
vn -0.8026 0.5930 0.0648
vn -0.8360 0.5481 0.0258
vn -0.9771 0.2099 -0.0343
vn -0.9628 0.2197 0.1572
vn -0.9305 0.2971 0.2143
vn -0.9872 0.0296 0.1567
vn -0.9139 -0.0153 -0.4057
vn -0.6905 -0.6860 -0.2293
vn 0.2637 0.0162 -0.9645
vn -0.7842 -0.3909 0.4818
vn -0.6835 -0.7243 0.0904
vn 0.0072 -0.7838 0.6210
vn -0.2452 -0.9605 0.1314
vn 0.2950 -0.9249 -0.2397
vn -0.1400 -0.8678 -0.4768
vn 0.9917 -0.0836 0.0978
vn 0.2874 0.2926 -0.9120
vn -0.7396 0.2451 -0.6268
vn -0.7421 0.0491 0.6684
vn -0.7189 -0.5038 0.4790
vn 0.3810 -0.5757 0.7234
vn 0.3610 -0.0496 0.9312
vn 0.7216 0.2202 0.6563
vn 0.9830 0.1421 -0.1162
vn 0.4143 -0.6145 0.6714
vn 0.2414 -0.5813 -0.7771
vn 0.8074 -0.5334 -0.2521
vn -0.5582 -0.5529 -0.6187
vn -0.5581 -0.5529 -0.6187
vn -0.9464 0.3010 0.1170
vn 0.0905 0.8731 0.4791
vn 0.0524 -0.4096 0.9107
vn 0.7612 -0.5119 0.3983
vn 0.8419 0.5134 0.1663
vn 0.8074 -0.5335 -0.2521
vn 0.8454 -0.5310 0.0576
vn -0.7506 -0.5160 -0.4127
vn -0.4575 0.8716 -0.1761
vn -0.0251 0.9953 0.0938
vn 0.8454 -0.5310 0.0575
vn -0.1489 0.9074 0.3931
vn 0.0252 0.8765 0.4807
vn -0.3033 -0.6715 0.6761
vn -0.3267 -0.3551 0.8759
vn -0.8879 -0.4579 -0.0428
vn -0.0114 -0.9995 0.0309
vn -0.7952 0.5909 -0.1357
vn -0.9783 -0.0629 -0.1974
vn -0.8544 -0.2178 -0.4718
vn -0.8282 -0.3037 0.4711
vn -0.8171 -0.5749 0.0425
vn 0.4443 0.1956 0.8743
vn -0.7725 0.2124 0.5984
vn -0.9907 -0.1351 0.0142
vn -0.7057 0.0553 -0.7063
vn -0.5705 -0.0982 -0.8154
vn -0.9351 -0.3527 0.0332
vn -0.0602 0.6133 -0.7876
vn 0.1160 0.5027 -0.8566
vn -0.5706 -0.0982 -0.8154
vn 0.5781 0.8151 -0.0383
vn 0.5318 0.8396 -0.1108
vn 0.1305 0.5209 0.8436
vn 0.1879 0.6059 0.7730
vn -0.7099 0.0564 0.7020
vn -0.5619 0.0236 0.8268
vn -0.7412 -0.5995 0.3020
vn -0.3055 -0.0260 0.9518
vn -0.2983 -0.5831 0.7557
vn -0.3052 -0.9163 -0.2593
vn -0.1518 0.3825 0.9114
vn -0.4192 0.3295 0.8460
vn -0.3673 -0.0450 0.9290
vn -0.1913 0.2317 0.9538
vn -0.5232 0.0335 0.8516
vn -0.3735 0.1466 -0.9160
vn -0.1649 0.4365 0.8845
vn -0.2842 -0.0475 0.9576
vn 0.6942 0.6680 0.2680
vn 0.9209 -0.0637 0.3845
vn -0.0079 0.9466 0.3222
vn -0.5031 0.0310 0.8637
vn -0.3364 0.3568 0.8715
vn 0.2791 0.9459 0.1656
vn -0.5231 0.0335 0.8516
vn -0.1517 0.3825 0.9114
vn -0.4538 0.2154 0.8647
vn -0.3382 0.3916 0.8557
vn -0.4910 -0.2508 0.8343
vn -0.2291 -0.9060 0.3559
vn 0.0787 0.9409 0.3293
vn 0.3890 -0.8225 0.4150
vn -0.3349 -0.9372 0.0970
vn -0.5801 -0.1413 0.8022
vn -0.3315 -0.8395 0.4306
vn 0.0023 -0.9140 0.4056
vn -0.3350 -0.9372 0.0971
vn -0.5031 0.0310 0.8636
vn 0.2792 0.9459 0.1656
vn -0.0078 0.9466 0.3222
vn -0.0003 0.9520 0.3060
vn 0.5272 0.1667 0.8333
vn 0.5272 0.1666 0.8332
vn 0.2872 0.9450 0.1568
vn -0.2885 0.9401 0.1817
vn -0.2884 0.9401 0.1817
vn 0.6121 -0.2543 -0.7488
vn 0.6490 0.1169 -0.7518
vn 0.0028 -0.3097 -0.9508
vn -0.6436 0.1505 -0.7504
vn -0.6119 -0.2495 -0.7505
vn 0.9289 -0.2985 0.2190
vn 0.7537 -0.2353 0.6136
vn 0.4629 -0.6262 0.6274
vn 0.5737 -0.7837 0.2382
vn 0.9306 0.2956 0.2156
vn 0.7544 0.2396 0.6112
vn 0.5750 0.7847 0.2317
vn 0.4600 0.6271 0.6285
vn 0.0113 0.9719 0.2352
vn 0.0063 0.7641 0.6451
vn 0.0058 -0.4622 0.8868
vn 0.2794 -0.3740 0.8843
vn 0.0092 0.0074 0.9999
vn 0.4533 -0.1371 0.8807
vn 0.4555 0.1520 0.8772
vn 0.2835 0.3912 0.8756
vn 0.0102 0.4796 0.8774
vn 0.0023 -0.7643 0.6449
vn 0.0039 -0.9684 0.2494
vn 0.9508 -0.3095 -0.0102
vn 0.5849 -0.8111 -0.0035
vn 0.9519 0.3061 -0.0132
vn 0.5753 0.8179 -0.0122
vn 0.0024 0.9993 -0.0385
vn -0.0035 -0.9999 -0.0110
vn -0.9220 -0.2848 0.2624
vn -0.5683 -0.7804 0.2608
vn -0.4460 -0.6237 0.6420
vn -0.7407 -0.2341 0.6298
vn -0.9236 0.2946 0.2452
vn -0.7499 0.2344 0.6187
vn -0.5805 0.7769 0.2440
vn -0.4466 0.6200 0.6451
vn -0.2835 -0.3828 0.8792
vn -0.4593 -0.1352 0.8779
vn -0.4636 0.1510 0.8731
vn -0.2974 0.3948 0.8693
vn -0.9511 -0.3088 0.0057
vn -0.5775 -0.8164 -0.0035
vn -0.9472 0.3201 0.0177
vn -0.5824 0.8127 -0.0166
vn 0.0200 0.2307 0.9728
vn 0.0079 -0.5222 0.8528
vn 0.1972 -0.5062 0.8396
vn 0.1667 0.2147 0.9623
vn 0.5817 -0.8083 -0.0908
vn 0.4965 -0.8539 -0.1557
vn 0.9746 -0.1214 0.1881
vn 0.7364 -0.5693 0.3656
vn 0.6599 0.1328 0.7395
vn 0.0012 -0.9991 0.0417
vn -0.0997 -0.7828 -0.6142
vn -0.1148 -0.8335 -0.5404
vn -0.3799 -0.8716 -0.3098
vn 0.3607 -0.5849 0.7265
vn 0.3460 0.1694 0.9228
vn 0.2892 -0.9512 0.1075
vn -0.0933 -0.7922 -0.6030
vn -0.3804 -0.9088 -0.1712
vn 0.9755 -0.2183 -0.0257
vn -0.1350 0.1419 0.9806
vn -0.3553 0.0995 0.9294
vn -0.3298 -0.6065 0.7235
vn -0.1871 -0.5314 0.8262
vn -0.5815 -0.8083 -0.0925
vn -0.9753 -0.1293 0.1789
vn -0.4965 -0.8539 -0.1557
vn -0.6970 -0.6222 0.3563
vn -0.6864 0.0792 0.7229
vn 0.0981 -0.7820 -0.6156
vn -0.0752 -0.9959 0.0504
vn 0.3799 -0.8716 -0.3098
vn 0.1121 -0.8344 -0.5397
vn -0.1565 -0.9872 0.0304
vn 0.3804 -0.9088 -0.1712
vn -0.9755 -0.2183 -0.0257
vn 0.1176 -0.0998 0.9880
vn 0.1386 0.4375 0.8885
vn 0.0006 0.3247 0.9458
vn 0.0006 -0.1534 0.9882
vn 0.7172 0.6159 0.3259
vn 0.9885 0.0695 0.1343
vn 0.6797 0.7139 0.1683
vn 0.9567 -0.0718 0.2822
vn 0.5999 0.4522 0.6600
vn 0.7377 0.0102 0.6751
vn -0.5911 0.8065 0.0151
vn -0.2003 0.9484 -0.2458
vn -0.1777 0.8883 -0.4235
vn -0.2050 0.7347 -0.6467
vn -0.0062 0.7542 -0.6567
vn 0.0111 0.9650 -0.2619
vn -0.6724 0.7273 0.1376
vn -0.9989 0.0293 0.0367
vn -0.9621 0.1898 -0.1960
vn -0.5616 0.5893 -0.5808
vn 0.2351 -0.0696 0.9695
vn 0.1872 0.4612 0.8673
vn -0.1207 0.9907 0.0625
vn -0.2477 0.8581 -0.4498
vn -0.2144 0.7240 -0.6557
vn -0.1197 0.4204 0.8994
vn -0.1200 -0.0976 0.9880
vn -0.7172 0.6160 0.3259
vn -0.6797 0.7139 0.1683
vn -0.9885 0.0695 0.1343
vn -0.9567 -0.0718 0.2822
vn -0.7377 0.0102 0.6750
vn -0.5991 0.4523 0.6607
vn 0.5911 0.8065 0.0151
vn 0.2008 0.9483 -0.2457
vn 0.1999 0.7401 -0.6421
vn 0.2112 0.7257 -0.6548
vn 0.2583 0.8606 -0.4389
vn 0.1630 0.8873 -0.4314
vn 0.9621 0.1897 -0.1960
vn 0.9989 0.0293 0.0367
vn 0.6724 0.7273 0.1376
vn 0.5620 0.5894 -0.5803
vn -0.2340 -0.0666 0.9700
vn -0.2128 0.4476 0.8685
vn 0.1175 0.9912 0.0617
vn 0.0000 -0.9034 0.4289
vn 0.4655 -0.8314 0.3034
vn 0.6449 -0.0794 0.7601
vn 0.0000 -0.1255 0.9921
vn 0.0000 0.7459 0.6661
vn 0.4361 0.7333 0.5216
vn 0.0009 0.9812 0.1928
vn 0.9775 0.0623 0.2015
vn 0.5666 0.7947 0.2178
vn 0.0000 -0.9999 -0.0106
vn 0.5953 -0.7934 0.1274
vn 0.6072 0.7943 0.0204
vn 0.0000 0.9973 0.0728
vn 0.0000 -0.9998 -0.0192
vn 0.8363 -0.5473 -0.0333
vn 0.6552 0.7553 -0.0168
vn 0.0000 0.9974 0.0720
vn -0.0059 -0.9999 -0.0114
vn 0.7798 -0.6234 -0.0571
vn -0.6440 -0.0804 0.7608
vn -0.4655 -0.8314 0.3034
vn -0.4320 0.7337 0.5244
vn -0.5786 0.7877 0.2117
vn -0.9784 0.0491 0.2009
vn -0.4656 -0.8314 0.3034
vn -0.5953 -0.7934 0.1274
vn -0.6072 0.7943 0.0194
vn -0.8353 -0.5484 -0.0384
vn -0.6541 0.7563 -0.0137
vn -0.7971 -0.5989 -0.0765
vn -0.0550 0.9982 -0.0222
vn -0.0291 0.9995 0.0104
vn 0.0301 0.9995 0.0042
vn 0.0263 0.9799 0.1979
vn 0.0754 -0.9959 0.0490
vn 0.0925 -0.7828 -0.6153
vn 0.0038 -0.9995 0.0300
vn 0.0101 -0.7301 -0.6833
vn -0.5550 -0.8030 0.2172
vn 0.0000 -0.9447 0.3281
vn -0.2855 0.2615 0.9220
vn -0.0804 0.0152 -0.9966
vn 0.9927 0.0620 0.1032
vn 0.7400 0.0286 0.6720
vn 0.3246 0.1197 0.9382
vn 0.8453 0.5330 0.0369
vn 0.0000 0.3069 0.9517
vn 0.3144 0.4862 0.8154
vn 0.0000 0.9990 -0.0441
vn 0.4649 0.8846 -0.0376
vn 0.6365 0.2616 0.7256
vn 0.0000 0.2104 0.9776
vn 0.5550 -0.8030 0.2172
vn 0.2855 0.2615 0.9220
vn 0.0803 0.0152 -0.9967
vn -0.9907 0.0621 0.1213
vn -0.6820 0.0225 0.7310
vn -0.8467 0.5307 0.0387
vn -0.3142 0.4862 0.8154
vn 0.3144 0.4861 0.8154
vn -0.4648 0.8846 -0.0377
vn -0.6412 0.2815 0.7139
vn -0.7579 0.3115 0.5731
vn 0.6365 0.2616 0.7255
vn -0.6820 0.0224 0.7310
vn -0.3848 0.0142 0.9229
vn 0.3246 0.1196 0.9382
vn -0.0040 -0.3921 0.9199
vn -0.0016 0.0457 0.9990
vn 0.5096 0.8554 0.0925
vn 0.0943 0.8176 0.5680
vn -0.0281 -0.4190 0.9075
vn -0.1652 0.8628 0.4777
vn -0.1489 -0.6039 0.7830
vn -0.0921 0.8941 0.4384
vn 0.8675 -0.4869 -0.1019
vn -0.9036 -0.4268 -0.0365
vn -0.7390 -0.6036 0.2992
vn -0.4981 -0.4430 0.7454
vn 0.7612 -0.5119 0.3982
vn 0.0524 -0.4096 0.9108
vn -0.7429 -0.5104 0.4330
vn 0.2580 -0.3432 0.9032
vn -0.0281 -0.4191 0.9075
vn -0.0481 0.2706 -0.9615
vn -0.6576 -0.5331 -0.5324
vn -0.7643 -0.5125 -0.3914
vn 0.2742 0.6637 -0.6959
vn 0.7574 0.6400 0.1293
vn 0.5374 0.2432 0.8075
vn 0.6807 0.6680 -0.3007
vn -0.8070 0.0481 0.5885
vn 0.3107 0.7496 0.5844
vn 0.2015 0.5392 0.8177
vn -0.5084 -0.2220 0.8320
vn -0.5626 -0.7590 -0.3278
vn -0.6799 -0.4545 -0.5755
vn 0.2876 -0.2080 -0.9349
vn 0.6353 0.3512 -0.6877
vn -0.6641 -0.3892 -0.6384
vn 0.5584 -0.4283 -0.7104
vn 0.5647 -0.8230 -0.0614
vn -0.5917 -0.8056 -0.0306
vn 0.4048 0.6259 -0.6666
vn 0.2099 0.8827 0.4205
vn 0.4121 0.5618 -0.7173
vn -0.8071 0.0481 0.5885
vn -0.8921 -0.1664 0.4200
vn -0.6747 -0.2918 -0.6780
vn -0.5925 -0.3936 -0.7029
vn 0.4992 0.2729 -0.8224
vn 0.7519 0.5059 0.4228
vn -0.3709 -0.9278 -0.0408
vn -0.3029 -0.5451 0.7817
vn 0.6153 0.1503 0.7738
vn -0.7118 -0.7023 0.0081
vn -0.6747 -0.2917 -0.6780
vn -0.1646 0.6530 0.7393
vn 0.0521 -0.7040 -0.7083
vn 0.9993 -0.0202 0.0319
vn -0.0127 0.4190 0.9079
vn 0.6747 0.0582 -0.7358
vn 0.8325 0.0461 0.5521
vn 0.7564 0.0537 0.6519
vn -0.6228 -0.2061 0.7548
vn -0.6246 -0.3532 0.6965
vn 0.7169 -0.2213 0.6612
vn -0.5808 -0.2519 -0.7741
vn -0.4994 -0.2828 0.8189
vn 0.2758 -0.9585 0.0728
vn -0.6038 -0.5208 -0.6035
vn 0.6724 -0.2718 -0.6885
vn 0.6407 0.0264 -0.7674
vn 0.9359 0.3498 -0.0412
vn -0.9032 -0.2925 0.3142
vn -0.9032 -0.2926 0.3142
vn -0.2889 -0.5436 0.7881
vn 0.7703 0.3430 0.5377
vn 0.4539 -0.3056 0.8370
vn -0.6576 -0.5330 -0.5324
vn -0.7643 -0.5125 -0.3913
vn 0.9939 -0.0415 -0.1026
vn -0.1832 -0.6124 -0.7690
vn 0.2082 0.2135 0.9545
vn -0.7485 -0.4437 0.4928
vn -0.1832 -0.6124 -0.7691
vn -0.7485 -0.4437 0.4929
vn -0.6744 -0.2094 -0.7081
vn 0.9939 -0.0416 -0.1026
vn 0.3656 -0.8896 0.2738
vn 0.2083 0.2135 0.9545
vn 0.7161 0.5890 -0.3744
vn -0.6011 -0.6641 -0.4445
vn 0.1475 -0.0164 -0.9889
vn -0.6011 -0.6642 -0.4445
vn 0.6075 -0.4536 0.6521
vn -0.6305 -0.4738 0.6148
vn -0.3029 -0.5452 0.7817
vn -0.6037 -0.5208 -0.6035
vn -0.7119 -0.7023 0.0081
vn 0.9359 0.3497 -0.0412
vn 0.6075 -0.4536 0.6520
vn 0.4049 0.6259 -0.6666
vn 0.2099 0.8826 0.4206
vn 0.0467 0.2726 -0.9610
vn -0.2622 0.6600 -0.7040
vn 0.7605 -0.5192 -0.3900
vn 0.6558 -0.5344 -0.5332
vn -0.7537 0.6449 0.1269
vn -0.5364 0.2454 0.8075
vn -0.7680 0.3467 0.5385
vn 0.8179 0.0499 0.5732
vn 0.5084 -0.2220 0.8320
vn -0.2017 0.5390 0.8178
vn -0.3329 0.7614 0.5563
vn 0.6940 -0.4683 -0.5469
vn 0.5626 -0.7590 -0.3278
vn -0.2815 -0.2081 -0.9367
vn -0.6386 0.2759 -0.7183
vn 0.6641 -0.3892 -0.6384
vn 0.5917 -0.8056 -0.0306
vn -0.5647 -0.8230 -0.0614
vn -0.5584 -0.4283 -0.7104
vn -0.4199 0.5836 -0.6951
vn -0.4258 0.5498 -0.7186
vn -0.1745 0.8737 0.4541
vn 0.8179 0.0500 0.5732
vn 0.8921 -0.1664 0.4200
vn 0.6940 -0.4682 -0.5469
vn 0.6718 -0.3018 -0.6764
vn 0.5925 -0.3936 -0.7029
vn -0.4992 0.2729 -0.8224
vn -0.7535 0.5019 0.4248
vn -0.6153 0.1503 0.7738
vn 0.3029 -0.5451 0.7817
vn 0.3709 -0.9278 -0.0408
vn 0.6718 -0.3019 -0.6764
vn 0.7118 -0.7023 0.0081
vn 0.1644 0.6421 0.7487
vn -0.0521 -0.7040 -0.7083
vn -0.9993 -0.0201 0.0319
vn 0.0127 0.4190 0.9079
vn -0.6747 0.0582 -0.7358
vn -0.8325 0.0461 0.5521
vn -0.7564 0.0537 0.6519
vn -0.7169 -0.2213 0.6612
vn 0.6246 -0.3532 0.6965
vn 0.6228 -0.2062 0.7548
vn 0.4994 -0.2828 0.8189
vn 0.5808 -0.2519 -0.7741
vn 0.6038 -0.5208 -0.6035
vn -0.2758 -0.9584 0.0728
vn -0.6407 0.0264 -0.7674
vn -0.6724 -0.2718 -0.6885
vn -0.9359 0.3498 -0.0412
vn 0.9032 -0.2925 0.3142
vn 0.9032 -0.2926 0.3142
vn 0.3710 -0.9278 -0.0408
vn -0.6793 0.6697 -0.3000
vn 0.2884 -0.5436 0.7883
vn -0.4524 -0.3055 0.8379
vn 0.1832 -0.6124 -0.7690
vn -0.9939 -0.0415 -0.1026
vn -0.2082 0.2135 0.9545
vn 0.7485 -0.4437 0.4928
vn 0.7485 -0.4437 0.4929
vn 0.1832 -0.6124 -0.7691
vn 0.6744 -0.2094 -0.7081
vn 0.6227 -0.2061 0.7548
vn -0.3656 -0.8896 0.2738
vn -0.2083 0.2135 0.9545
vn -0.7142 0.5911 -0.3747
vn 0.6011 -0.6641 -0.4445
vn -0.1475 -0.0164 -0.9889
vn 0.6011 -0.6642 -0.4445
vn 0.6305 -0.4738 0.6148
vn -0.6075 -0.4536 0.6521
vn 0.3029 -0.5452 0.7817
vn 0.6037 -0.5209 -0.6035
vn 0.7119 -0.7023 0.0081
vn -0.9359 0.3497 -0.0412
vn -0.6075 -0.4536 0.6520
vn -0.4200 0.5835 -0.6951
vn -0.1744 0.8737 0.4541
vn -0.8136 -0.4566 0.3600
vn 0.8165 -0.4548 0.3557
vn -0.4253 -0.6112 0.6675
# 669 vertex normals

vt 0.6110 0.7050 0.0000
vt 0.4336 0.6416 0.0000
vt 0.5703 0.6162 0.0000
vt 0.6818 0.6214 0.0000
vt 0.7667 0.6592 0.0000
vt 0.3887 0.7031 0.0000
vt 0.4053 0.6240 0.0000
vt 0.4268 0.6982 0.0000
vt 0.4157 0.5581 0.0000
vt 0.4682 0.4938 0.0000
vt 0.5798 0.4907 0.0000
vt 0.7048 0.5029 0.0000
vt 0.8057 0.5184 0.0000
vt 0.9098 0.5401 0.0000
vt 0.5658 0.3770 0.0000
vt 0.4671 0.3153 0.0000
vt 0.5709 0.3369 0.0000
vt 0.7165 0.4132 0.0000
vt 0.8385 0.3903 0.0000
vt 0.9566 0.4239 0.0000
vt 0.5972 0.3271 0.0000
vt 0.5982 0.2874 0.0000
vt 0.7222 0.3262 0.0000
vt 0.6119 0.3676 0.0000
vt 0.8408 0.2408 0.0000
vt 0.9407 0.1939 0.0000
vt 0.8780 0.2693 0.0000
vt 0.4004 0.2370 0.0000
vt 0.4433 0.1373 0.0000
vt 0.4971 0.2300 0.0000
vt 0.7272 0.2510 0.0000
vt 0.6968 0.1224 0.0000
vt 0.7346 0.1217 0.0000
vt 0.8089 0.0678 0.0000
vt 0.6326 0.0122 0.0000
vt 0.5144 0.0931 0.0000
vt 0.4403 0.0370 0.0000
vt 0.5993 0.1135 0.0000
vt 0.3434 0.6757 0.0000
vt 0.3655 0.5615 0.0000
vt 0.3852 0.6236 0.0000
vt 0.3656 0.6948 0.0000
vt 0.3727 0.4922 0.0000
vt 0.3828 0.5635 0.0000
vt 0.9714 0.8367 0.0000
vt 0.8496 0.8515 0.0000
vt 0.8511 0.8271 0.0000
vt 0.0419 0.6205 0.0000
vt 0.0478 0.6419 0.0000
vt 0.0118 0.6453 0.0000
vt 0.0118 0.6197 0.0000
vt 0.3155 0.9075 0.0000
vt 0.3060 0.8765 0.0000
vt 0.3151 0.8756 0.0000
vt 0.3332 0.9078 0.0000
vt 0.3238 0.9288 0.0000
vt 0.3086 0.9305 0.0000
vt 0.2924 0.9503 0.0000
vt 0.6339 0.8563 0.0000
vt 0.6132 0.8497 0.0000
vt 0.6284 0.9908 0.0000
vt 0.6590 0.9956 0.0000
vt 0.6632 0.9720 0.0000
vt 0.6979 0.9947 0.0000
vt 0.6961 0.9684 0.0000
vt 0.7417 0.9861 0.0000
vt 0.7605 0.8503 0.0000
vt 0.7282 0.8507 0.0000
vt 0.7795 0.9760 0.0000
vt 0.6129 0.7216 0.0000
vt 0.6337 0.7216 0.0000
vt 0.6677 0.8465 0.0000
vt 0.6685 0.8617 0.0000
vt 0.6963 0.8613 0.0000
vt 0.6950 0.8456 0.0000
vt 0.7339 0.7216 0.0000
vt 0.7600 0.7216 0.0000
vt 0.3103 0.7002 0.0000
vt 0.3235 0.7093 0.0000
vt 0.2978 0.7052 0.0000
vt 0.4594 0.9739 0.0000
vt 0.4677 0.9520 0.0000
vt 0.5422 0.9533 0.0000
vt 0.5284 0.9886 0.0000
vt 0.4691 0.9274 0.0000
vt 0.4133 0.7435 0.0000
vt 0.4438 0.7229 0.0000
vt 0.4536 0.7716 0.0000
vt 0.4378 0.7739 0.0000
vt 0.4523 0.9536 0.0000
vt 0.3834 0.9602 0.0000
vt 0.4497 0.9302 0.0000
vt 0.3897 0.9863 0.0000
vt 0.2843 0.7651 0.0000
vt 0.3274 0.7680 0.0000
vt 0.5438 0.8271 0.0000
vt 0.4635 0.8206 0.0000
vt 0.3788 0.8388 0.0000
vt 0.4327 0.8340 0.0000
vt 0.4844 0.7341 0.0000
vt 0.5087 0.7330 0.0000
vt 0.4961 0.7709 0.0000
vt 0.4741 0.7664 0.0000
vt 0.3323 0.8027 0.0000
vt 0.3031 0.8007 0.0000
vt 0.4910 0.8284 0.0000
vt 0.5198 0.7754 0.0000
vt 0.3775 0.7709 0.0000
vt 0.3884 0.8002 0.0000
vt 0.2840 0.8420 0.0000
vt 0.7247 0.2886 0.0000
vt 0.4807 0.2767 0.0000
vt 0.6124 0.2428 0.0000
vt 0.6618 0.0961 0.0000
vt 0.6618 0.1378 0.0000
vt 0.6232 0.1357 0.0000
vt 0.6983 0.8734 0.0000
vt 0.6677 0.8727 0.0000
vt 0.9059 0.0797 0.0000
vt 0.9175 0.0797 0.0000
vt 0.9001 0.0102 0.0000
vt 0.8770 0.0102 0.0000
vt 0.8503 0.0124 0.0000
vt 0.8926 0.0808 0.0000
vt 0.9639 0.0797 0.0000
vt 0.9928 0.0102 0.0000
vt 0.9697 0.0102 0.0000
vt 0.9523 0.0797 0.0000
vt 0.9465 0.0102 0.0000
vt 0.9407 0.0797 0.0000
vt 0.9233 0.0102 0.0000
vt 0.9291 0.0797 0.0000
vt 0.3147 0.8136 0.0000
vt 0.2893 0.8109 0.0000
vt 0.3257 0.1098 0.0000
vt 0.3763 0.1770 0.0000
vt 0.3666 0.1915 0.0000
vt 0.3073 0.1215 0.0000
vt 0.7821 0.9929 0.0000
vt 0.5969 0.9706 0.0000
vt 0.5947 0.9868 0.0000
vt 0.8801 0.7689 0.0000
vt 0.8570 0.8019 0.0000
vt 0.8236 0.7427 0.0000
vt 0.8691 0.7068 0.0000
vt 0.8866 0.7369 0.0000
vt 0.8544 0.7708 0.0000
vt 0.7960 0.7800 0.0000
vt 0.8256 0.8042 0.0000
vt 0.9405 0.6904 0.0000
vt 0.8829 0.3127 0.0000
vt 0.9656 0.2945 0.0000
vt 0.5818 0.3831 0.0000
vt 0.4603 0.4006 0.0000
vt 0.3998 0.4901 0.0000
vt 0.2705 0.2583 0.0000
vt 0.2189 0.2176 0.0000
vt 0.2414 0.1916 0.0000
vt 0.2981 0.2402 0.0000
vt 0.0661 0.6078 0.0000
vt 0.0717 0.6198 0.0000
vt 0.3504 0.1989 0.0000
vt 0.2910 0.1348 0.0000
vt 0.3949 0.3243 0.0000
vt 0.3713 0.2488 0.0000
vt 0.3900 0.2446 0.0000
vt 0.3832 0.3720 0.0000
vt 0.3670 0.4190 0.0000
vt 0.3092 0.3373 0.0000
vt 0.3304 0.3169 0.0000
vt 0.3515 0.2966 0.0000
vt 0.2492 0.1827 0.0000
vt 0.3070 0.2328 0.0000
vt 0.0118 0.5945 0.0000
vt 0.0359 0.5993 0.0000
vt 0.4083 0.2842 0.0000
vt 0.0731 0.6339 0.0000
vt 0.3602 0.2889 0.0000
vt 0.3830 0.0734 0.0000
vt 0.8770 0.2696 0.0000
vt 0.0118 0.6451 0.0000
vt 0.0480 0.6417 0.0000
vt 0.7014 0.7216 0.0000
vt 0.6960 0.8349 0.0000
vt 0.4094 0.7884 0.0000
vt 0.3931 0.7506 0.0000
vt 0.3042 0.8008 0.0000
vt 0.3154 0.8132 0.0000
vt 0.0716 0.6199 0.0000
vt 0.0730 0.6338 0.0000
vt 0.0370 0.7176 0.0000
vt 0.0118 0.7222 0.0000
vt 0.0374 0.7176 0.0000
vt 0.0577 0.7087 0.0000
vt 0.0716 0.6977 0.0000
vt 0.0976 0.6149 0.0000
vt 0.0532 0.5382 0.0000
vt 0.0368 0.5340 0.0000
vt 0.0118 0.5275 0.0000
vt 0.0365 0.5340 0.0000
vt 0.0530 0.5382 0.0000
vt 0.0693 0.5467 0.0000
vt 0.0717 0.6977 0.0000
vt 0.0576 0.7087 0.0000
vt 0.2429 0.2765 0.0000
vt 0.1964 0.2436 0.0000
vt 0.9349 0.1492 0.0000
vt 0.8060 0.2833 0.0000
vt 0.8097 0.3224 0.0000
vt 0.9531 0.2442 0.0000
vt 0.8095 0.3224 0.0000
vt 0.8059 0.2833 0.0000
vt 0.2824 0.3787 0.0000
vt 0.2684 0.3816 0.0000
vt 0.2286 0.3204 0.0000
vt 0.2360 0.3093 0.0000
vt 0.2775 0.4615 0.0000
vt 0.2684 0.4557 0.0000
vt 0.2267 0.5268 0.0000
vt 0.2218 0.5152 0.0000
vt 0.1533 0.5457 0.0000
vt 0.1536 0.5350 0.0000
vt 0.1539 0.3429 0.0000
vt 0.2022 0.3571 0.0000
vt 0.1536 0.4179 0.0000
vt 0.2284 0.3952 0.0000
vt 0.2278 0.4419 0.0000
vt 0.1998 0.4790 0.0000
vt 0.1539 0.4928 0.0000
vt 0.1536 0.3007 0.0000
vt 0.1533 0.2790 0.0000
vt 0.2900 0.3751 0.0000
vt 0.2392 0.3017 0.0000
vt 0.2879 0.4625 0.0000
vt 0.2342 0.5324 0.0000
vt 0.1533 0.5562 0.0000
vt 0.1533 0.2732 0.0000
vt 0.0221 0.3746 0.0000
vt 0.0729 0.3021 0.0000
vt 0.0857 0.3192 0.0000
vt 0.0385 0.3773 0.0000
vt 0.0242 0.4562 0.0000
vt 0.0385 0.4513 0.0000
vt 0.0711 0.5230 0.0000
vt 0.0808 0.5126 0.0000
vt 0.1115 0.3561 0.0000
vt 0.0826 0.3930 0.0000
vt 0.0822 0.4399 0.0000
vt 0.1098 0.4784 0.0000
vt 0.0121 0.3705 0.0000
vt 0.0696 0.2986 0.0000
vt 0.0142 0.4580 0.0000
vt 0.0652 0.5296 0.0000
vt 0.3032 0.5725 0.0000
vt 0.3032 0.6113 0.0000
vt 0.2786 0.6114 0.0000
vt 0.2772 0.5725 0.0000
vt 0.1836 0.6115 0.0000
vt 0.1313 0.6115 0.0000
vt 0.1836 0.5726 0.0000
vt 0.2238 0.6114 0.0000
vt 0.2238 0.5725 0.0000
vt 0.2909 0.6113 0.0000
vt 0.2693 0.6445 0.0000
vt 0.2238 0.6445 0.0000
vt 0.1836 0.6445 0.0000
vt 0.2569 0.6114 0.0000
vt 0.2569 0.5725 0.0000
vt 0.2394 0.6262 0.0000
vt 0.2569 0.6445 0.0000
vt 0.1313 0.6445 0.0000
vt 0.1313 0.5726 0.0000
vt 0.2773 0.5725 0.0000
vt 0.2798 0.6114 0.0000
vt 0.2684 0.6114 0.0000
vt 0.2095 0.6866 0.0000
vt 0.1815 0.6870 0.0000
vt 0.1815 0.6601 0.0000
vt 0.2095 0.6601 0.0000
vt 0.1815 0.7733 0.0000
vt 0.2094 0.8289 0.0000
vt 0.1815 0.8289 0.0000
vt 0.2095 0.7733 0.0000
vt 0.1815 0.7381 0.0000
vt 0.2095 0.7381 0.0000
vt 0.1573 0.7733 0.0000
vt 0.1573 0.7381 0.0000
vt 0.1573 0.6873 0.0000
vt 0.1276 0.6842 0.0000
vt 0.1276 0.6600 0.0000
vt 0.1573 0.6600 0.0000
vt 0.1573 0.8289 0.0000
vt 0.1275 0.8289 0.0000
vt 0.1276 0.7733 0.0000
vt 0.1276 0.7381 0.0000
vt 0.2095 0.7083 0.0000
vt 0.1815 0.7083 0.0000
vt 0.1653 0.7214 0.0000
vt 0.1573 0.7083 0.0000
vt 0.1276 0.7082 0.0000
vt 0.1815 0.6878 0.0000
vt 0.2095 0.6856 0.0000
vt 0.1276 0.6837 0.0000
vt 0.1573 0.6875 0.0000
vt 0.1059 0.8313 0.0000
vt 0.0936 0.7853 0.0000
vt 0.0893 0.7932 0.0000
vt 0.0996 0.8313 0.0000
vt 0.0907 0.8313 0.0000
vt 0.0828 0.8023 0.0000
vt 0.0643 0.8313 0.0000
vt 0.0643 0.7864 0.0000
vt 0.0643 0.7987 0.0000
vt 0.0933 0.7706 0.0000
vt 0.0643 0.7389 0.0000
vt 0.0643 0.7785 0.0000
vt 0.0351 0.7987 0.0000
vt 0.0351 0.8313 0.0000
vt 0.0351 0.7389 0.0000
vt 0.0351 0.7785 0.0000
vt 0.0081 0.7987 0.0000
vt 0.0081 0.8313 0.0000
vt 0.0081 0.7389 0.0000
vt 0.0081 0.7785 0.0000
vt 0.1040 0.7389 0.0000
vt 0.1694 0.6977 0.0000
vt 0.1694 0.6736 0.0000
vt 0.1694 0.6739 0.0000
vt 0.1694 0.6980 0.0000
vt 0.2678 0.6114 0.0000
vt 0.2704 0.6445 0.0000
vt 0.2915 0.6113 0.0000
vt 0.3032 0.6445 0.0000
vt 0.8971 0.5748 0.0000
vt 0.9908 0.5317 0.0000
vt 0.9498 0.5879 0.0000
vt 0.8995 0.6081 0.0000
vt 0.8604 0.6197 0.0000
vt 0.8649 0.6702 0.0000
vt 0.8315 0.6702 0.0000
vt 0.9030 0.6493 0.0000
vt 0.9873 0.6689 0.0000
vt 0.9590 0.6699 0.0000
vt 0.9873 0.6320 0.0000
vt 0.9473 0.6367 0.0000
vt 0.9111 0.6702 0.0000
vt 0.9908 0.5847 0.0000
vt 0.9238 0.7262 0.0000
vt 0.9238 0.7844 0.0000
vt 0.9187 0.7553 0.0000
vt 0.9463 0.6995 0.0000
vt 0.9463 0.8112 0.0000
vt 0.9792 0.6934 0.0000
vt 0.9792 0.8173 0.0000
vt 0.9957 0.6930 0.0000
vt 0.9957 0.8177 0.0000
vt 0.3657 0.5615 0.0000
vt 0.5461 0.7480 0.0000
vt 0.2747 0.7987 0.0000
vt 0.2884 0.8101 0.0000
vt 0.2815 0.8044 0.0000
vt 0.3238 0.8080 0.0000
vt 0.3021 0.8215 0.0000
vt 0.2820 0.8048 0.0000
vt 0.3235 0.8082 0.0000
vt 0.1615 0.8714 0.0000
vt 0.1608 0.8436 0.0000
vt 0.1441 0.9259 0.0000
vt 0.1406 0.8968 0.0000
vt 0.0108 0.9557 0.0000
vt 0.0234 0.9258 0.0000
vt 0.1294 0.9275 0.0000
vt 0.1234 0.9553 0.0000
vt 0.0948 0.9872 0.0000
vt 0.0108 0.9899 0.0000
vt 0.1188 0.8677 0.0000
vt 0.0242 0.8774 0.0000
vt 0.0108 0.8461 0.0000
vt 0.0948 0.8463 0.0000
vt 0.2382 0.0125 0.0000
vt 0.2320 0.0172 0.0000
vt 0.2553 0.0407 0.0000
vt 0.2637 0.0386 0.0000
vt 0.0548 0.0753 0.0000
vt 0.0570 0.1220 0.0000
vt 0.1005 0.0588 0.0000
vt 0.9844 0.9313 0.0000
vt 0.9792 0.9672 0.0000
vt 0.9701 0.9062 0.0000
vt 0.0397 0.0566 0.0000
vt 0.0836 0.0133 0.0000
vt 0.1464 0.0124 0.0000
vt 0.1614 0.0385 0.0000
vt 0.1279 0.1424 0.0000
vt 0.1799 0.1738 0.0000
vt 0.1933 0.1425 0.0000
vt 0.1825 0.1228 0.0000
vt 0.8777 0.9949 0.0000
vt 0.8508 0.9257 0.0000
vt 0.9348 0.9922 0.0000
vt 0.0406 0.1370 0.0000
vt 0.0759 0.1536 0.0000
vt 0.1691 0.1986 0.0000
vt 0.1464 0.1978 0.0000
vt 0.1310 0.2124 0.0000
vt 0.2041 0.0284 0.0000
vt 0.2096 0.0832 0.0000
vt 0.2180 0.1270 0.0000
vt 0.2119 0.1434 0.0000
vt 0.2626 0.1439 0.0000
vt 0.2517 0.1310 0.0000
vt 0.8269 0.9850 0.0000
vt 0.8280 0.9260 0.0000
vt 0.2670 0.1224 0.0000
vt 0.2803 0.1121 0.0000
vt 0.2602 0.1107 0.0000
vt 0.2199 0.1039 0.0000
vt 0.1774 0.0934 0.0000
vt 0.1947 0.0093 0.0000
vt 0.0566 0.1662 0.0000
vt 0.1130 0.2324 0.0000
vt 0.9124 0.8717 0.0000
vt 0.9220 0.9043 0.0000
vt 0.9043 0.8878 0.0000
vt 0.1444 0.9518 0.0000
vt 0.1608 0.9847 0.0000
vt 0.2840 0.9819 0.0000
vt 0.1724 0.2407 0.0000
vt 0.1774 0.2500 0.0000
vt 0.1633 0.2492 0.0000
vt 0.1573 0.2559 0.0000
vt 0.8699 0.8717 0.0000
vt 0.8726 0.8663 0.0000
vt 0.8398 0.9025 0.0000
vt 0.8186 0.8741 0.0000
vt 0.8400 0.8724 0.0000
vt 0.8579 0.8899 0.0000
vt 0.1730 0.2479 0.0000
vt 0.1736 0.2553 0.0000
vt 0.1295 0.8952 0.0000
vt 0.1334 0.9839 0.0000
vt 0.1405 0.8706 0.0000
vt 0.1334 0.8460 0.0000
vt 0.2583 0.0653 0.0000
vt 0.2667 0.0644 0.0000
vt 0.7971 0.9258 0.0000
vt 0.8721 0.9032 0.0000
vt 0.2763 0.0980 0.0000
vt 0.2215 0.0929 0.0000
vt 0.1956 0.0901 0.0000
vt 0.8267 0.9130 0.0000
vt 0.8399 0.9101 0.0000
vt 0.7975 0.9138 0.0000
vt 0.8041 0.9771 0.0000
vt 0.7879 0.9410 0.0000
vt 0.0108 0.8788 0.0000
vt 0.0108 0.9271 0.0000
vt 0.6651 0.8352 0.0000
vt 0.6671 0.7216 0.0000
# 459 texture coords

o mike_wazowski_lod0_mike_wazowski_lod0_mesh0000
g mike_wazowski_lod0_mike_wazowski_lod0_mesh0000
usemtl mike_wazowski_mike_wazowski
s 1
f 1/1/1 2/2/2 3/3/3 
f 1/1/1 3/3/3 4/4/4 
f 1/1/1 4/4/4 5/5/5 
f 6/6/6 7/7/7 2/2/2 
f 2/2/2 8/8/8 6/6/6 
f 2/2/2 9/9/9 3/3/3 
f 3/3/3 10/10/10 11/11/11 
f 3/3/3 11/11/11 12/12/12 
f 12/12/12 4/4/4 3/3/3 
f 4/4/4 12/12/12 13/13/13 
f 5/5/5 4/4/4 13/13/13 
f 13/13/13 14/14/14 5/5/5 
f 15/15/15 16/16/16 17/17/17 
f 12/12/12 11/11/11 18/18/18 
f 18/18/18 13/13/13 12/12/12 
f 13/13/13 19/19/19 20/20/20 
f 20/20/20 14/14/14 13/13/13 
f 21/21/21 17/17/17 22/22/22 
f 21/21/21 23/23/23 24/24/24 
f 25/25/25 26/26/26 27/27/27 
f 28/28/28 29/29/29 30/30/30 
f 31/31/31 32/32/32 25/25/25 
f 25/25/25 33/33/33 34/34/34 
f 34/34/34 26/26/26 25/25/25 
f 35/35/35 36/36/36 37/37/37 
f 35/35/35 38/38/38 36/36/36 
f 35/35/35 34/34/34 33/33/33 
f 39/39/39 40/40/40 41/41/41 
f 41/41/41 42/42/42 39/39/39 
f 8/8/8 2/2/2 1/1/1 
f 40/40/40 43/43/43 44/44/44 
f 45/45/45 46/46/46 47/47/47 
f 48/48/48 49/49/49 50/50/50 
f 50/50/50 51/51/51 48/48/48 
f 52/52/52 53/53/53 24/54/24 
f 24/54/24 54/55/54 52/52/52 
f 52/52/52 54/55/54 15/56/15 
f 15/56/15 55/57/55 52/52/52 
f 15/56/15 17/58/17 55/57/55 
f 56/59/56 57/60/57 58/61/58 
f 58/61/58 59/62/59 60/63/60 
f 60/63/60 59/62/59 38/64/61 
f 38/64/61 61/65/62 60/63/60 
f 38/64/61 62/66/63 61/65/62 
f 57/67/57 63/68/64 62/66/63 
f 62/66/63 64/69/65 57/67/57 
f 65/70/66 57/60/57 56/59/56 
f 56/59/56 66/71/67 65/70/66 
f 67/72/68 68/73/69 69/74/70 
f 69/74/70 70/75/71 67/72/68 
f 70/75/71 69/74/70 63/68/64 
f 71/76/72 63/68/64 57/67/57 
f 57/67/57 65/77/66 71/76/72 
f 72/78/73 73/79/74 74/80/75 
f 65/81/66 66/82/67 73/83/74 
f 73/83/74 72/84/73 65/81/66 
f 75/85/76 73/83/74 66/82/67 
f 76/86/77 77/87/78 78/88/79 
f 78/88/79 79/89/80 76/86/77 
f 71/90/72 74/91/81 80/92/82 
f 71/90/72 65/81/66 72/93/73 
f 72/93/73 74/91/81 71/90/72 
f 81/94/83 74/80/75 73/79/74 
f 73/79/74 82/95/84 81/94/83 
f 75/85/76 82/96/84 73/83/74 
f 80/92/82 83/97/85 75/85/76 
f 80/92/82 81/98/86 84/99/87 
f 85/100/88 86/101/89 87/102/90 
f 87/102/90 88/103/91 85/100/88 
f 89/104/92 90/105/93 82/95/84 
f 91/106/94 92/107/95 82/96/84 
f 79/89/80 78/88/79 83/97/85 
f 93/108/96 94/109/97 81/98/86 
f 21/110/21 24/54/24 53/53/53 
f 21/21/21 22/22/22 95/111/98 
f 95/111/98 23/23/23 21/21/21 
f 22/22/22 96/112/99 30/30/30 
f 30/30/30 97/113/100 22/22/22 
f 35/35/35 62/114/63 38/38/38 
f 62/114/63 35/35/35 33/33/33 
f 58/115/101 97/113/100 59/116/102 
f 32/32/32 62/114/63 33/33/33 
f 98/117/103 61/65/62 62/66/63 
f 62/66/63 63/68/64 98/117/103 
f 99/118/104 60/63/60 61/65/62 
f 61/65/62 98/117/103 99/118/104 
f 56/59/56 58/61/58 60/63/60 
f 60/63/60 99/118/104 56/59/56 
f 100/119/105 101/120/106 102/121/107 
f 102/121/107 103/122/108 100/119/105 
f 100/119/105 103/122/108 104/123/109 
f 104/123/109 105/124/110 100/119/105 
f 105/125/110 104/126/109 106/127/111 
f 106/127/111 107/128/112 105/125/110 
f 107/128/112 106/127/111 108/129/113 
f 108/129/113 109/130/114 107/128/112 
f 109/130/114 108/129/113 110/131/115 
f 110/131/115 111/132/116 109/130/114 
f 101/120/106 111/132/116 110/131/115 
f 110/131/115 102/121/107 101/120/106 
f 85/133/88 76/134/77 90/105/93 
f 31/31/31 97/113/100 58/115/101 
f 31/31/31 58/115/101 32/32/32 
f 36/36/36 59/116/102 30/30/30 
f 97/113/100 30/30/30 59/116/102 
f 36/36/36 38/38/38 59/116/102 
f 112/135/117 113/136/118 114/137/119 
f 114/137/119 115/138/120 112/135/117 
f 62/66/63 32/139/32 64/69/65 
f 64/140/65 32/141/32 58/61/58 
f 116/142/121 45/45/45 117/143/122 
f 45/45/45 47/47/47 117/143/122 
f 118/144/123 119/145/124 117/146/125 
f 117/146/125 47/147/47 118/144/123 
f 120/148/126 118/144/123 47/147/47 
f 47/147/47 46/149/46 120/148/126 
f 119/145/124 116/150/127 117/146/125 
f 18/18/18 24/24/24 23/23/23 
f 18/18/18 23/23/23 19/19/19 
f 19/19/19 121/151/128 122/152/129 
f 122/152/129 20/20/20 19/19/19 
f 18/18/18 54/153/130 24/24/24 
f 15/15/15 54/153/130 123/154/131 
f 124/155/132 9/9/9 44/44/44 
f 125/156/133 126/157/134 127/158/135 
f 127/158/135 128/159/136 125/156/133 
f 123/154/131 54/153/130 11/11/11 
f 11/11/11 10/10/10 123/154/131 
f 129/160/137 130/161/138 48/48/48 
f 114/137/119 131/162/139 132/163/140 
f 132/163/140 115/138/120 114/137/119 
f 133/164/141 134/165/142 135/166/143 
f 136/167/144 116/168/127 119/169/145 
f 119/169/145 137/170/146 136/167/144 
f 125/156/133 128/159/136 138/171/147 
f 138/171/147 137/170/146 125/156/133 
f 127/158/135 139/172/148 140/173/149 
f 140/173/149 128/159/136 127/158/135 
f 141/174/150 142/175/151 48/48/48 
f 48/48/48 51/51/51 141/174/150 
f 134/165/142 131/162/139 114/137/119 
f 114/137/119 135/166/143 134/165/142 
f 48/48/48 142/175/151 129/160/137 
f 133/164/141 16/16/16 136/167/144 
f 28/28/28 135/166/143 114/137/119 
f 114/137/119 113/136/118 28/28/28 
f 135/166/143 28/28/28 143/176/152 
f 143/176/152 133/164/141 135/166/143 
f 144/177/153 49/49/49 48/48/48 
f 48/48/48 130/161/138 144/177/153 
f 145/178/154 138/171/147 128/159/136 
f 128/159/136 140/173/149 145/178/154 
f 138/171/147 145/178/154 133/164/141 
f 113/136/118 112/135/117 146/179/155 
f 146/179/155 29/29/29 113/136/118 
f 113/136/118 29/29/29 28/28/28 
f 28/28/28 30/30/30 143/176/152 
f 143/176/152 96/112/99 16/16/16 
f 143/176/152 16/16/16 133/164/141 
f 1/1/1 147/3/156 148/2/157 
f 1/1/1 149/4/158 147/3/156 
f 1/1/1 5/5/5 149/4/158 
f 148/2/157 150/7/159 6/6/6 
f 6/6/6 8/8/8 148/2/157 
f 148/2/157 147/3/156 151/9/160 
f 147/3/156 152/11/161 153/10/162 
f 147/3/156 149/4/158 154/12/163 
f 154/12/163 152/11/161 147/3/156 
f 149/4/158 155/13/164 154/12/163 
f 155/13/164 149/4/158 5/5/5 
f 5/5/5 14/14/14 155/13/164 
f 156/15/165 157/16/166 158/154/167 
f 154/12/163 159/18/168 152/11/161 
f 155/13/164 159/18/168 154/12/163 
f 155/13/164 14/14/14 20/20/20 
f 20/20/20 160/19/169 155/13/164 
f 161/21/170 162/22/171 163/17/172 
f 161/21/170 164/24/173 165/23/174 
f 166/25/175 167/180/176 26/26/26 
f 168/28/177 169/30/178 170/29/179 
f 171/31/180 166/25/175 172/32/181 
f 166/25/175 26/26/26 34/34/34 
f 34/34/34 173/33/182 166/25/175 
f 35/35/35 173/33/182 34/34/34 
f 42/42/42 174/41/183 175/40/184 
f 175/40/184 39/39/39 42/42/42 
f 8/8/8 1/1/1 148/2/157 
f 175/40/184 176/44/185 177/43/186 
f 45/45/45 178/47/187 46/46/46 
f 179/48/188 51/51/51 50/181/50 
f 50/181/50 180/182/189 179/48/188 
f 181/52/190 182/55/191 164/54/173 
f 164/54/173 183/53/192 181/52/190 
f 181/52/190 184/57/193 156/56/194 
f 156/56/194 182/55/191 181/52/190 
f 156/56/194 184/57/193 163/58/195 
f 185/59/196 186/61/197 187/60/198 
f 186/61/197 188/63/199 189/62/200 
f 188/63/199 190/65/201 191/64/202 
f 191/64/202 189/62/200 188/63/199 
f 191/64/202 190/65/201 192/66/203 
f 187/67/198 193/69/204 192/66/203 
f 192/66/203 194/68/205 187/67/198 
f 195/70/206 196/71/207 185/59/196 
f 185/59/196 187/60/198 195/70/206 
f 197/73/208 198/72/209 199/75/210 
f 199/75/210 200/74/211 197/73/208 
f 201/183/212 202/76/213 194/68/205 
f 194/68/205 203/184/214 201/183/212 
f 202/76/213 195/77/206 187/67/198 
f 187/67/198 194/68/205 202/76/213 
f 204/78/215 205/80/216 206/79/217 
f 195/81/206 204/84/215 206/83/218 
f 206/83/218 196/82/207 195/81/206 
f 207/85/219 196/82/207 206/83/218 
f 208/185/220 209/186/221 210/108/222 
f 210/108/222 211/109/223 208/185/220 
f 202/90/213 201/92/212 205/91/224 
f 202/90/213 205/91/224 204/93/215 
f 204/93/215 195/81/206 202/90/213 
f 212/94/225 213/95/226 206/79/217 
f 206/79/217 205/80/216 212/94/225 
f 207/85/219 213/96/226 214/106/227 
f 207/85/219 215/97/228 201/92/212 
f 201/92/212 212/98/229 205/91/224 
f 216/88/230 217/103/231 218/100/232 
f 218/100/232 219/87/233 216/88/230 
f 220/104/234 213/95/226 221/187/235 
f 214/106/227 213/96/226 222/107/236 
f 210/108/222 212/98/229 211/109/223 
f 161/110/237 183/53/192 164/54/173 
f 223/111/238 162/22/171 161/21/170 
f 161/21/170 165/23/174 223/111/238 
f 224/112/239 157/16/166 162/22/171 
f 35/35/35 191/38/202 192/114/203 
f 192/114/203 173/33/182 35/35/35 
f 186/115/197 189/116/200 225/113/240 
f 172/32/181 173/33/182 192/114/203 
f 226/117/241 194/68/205 192/66/203 
f 192/66/203 190/65/201 226/117/241 
f 227/118/242 226/117/241 190/65/201 
f 190/65/201 188/63/199 227/118/242 
f 185/59/196 227/118/242 188/63/199 
f 188/63/199 186/61/197 185/59/196 
f 228/120/243 229/119/244 230/122/245 
f 230/122/245 231/121/246 228/120/243 
f 229/119/244 232/124/247 233/123/248 
f 233/123/248 230/122/249 229/119/244 
f 232/125/247 234/128/250 235/127/251 
f 235/127/251 233/126/248 232/125/247 
f 234/128/250 236/130/252 237/129/253 
f 237/129/253 235/127/251 234/128/250 
f 236/130/252 238/132/254 239/131/255 
f 239/131/255 237/129/253 236/130/252 
f 228/120/243 231/121/246 239/131/255 
f 239/131/255 238/132/254 228/120/243 
f 220/104/234 221/187/235 218/188/232 
f 218/188/232 220/104/256 220/104/234 
f 171/31/180 186/115/197 225/113/240 
f 171/31/180 172/32/181 186/115/197 
f 225/113/240 189/116/200 169/30/178 
f 112/135/117 115/138/120 240/137/257 
f 240/137/257 241/136/258 112/135/117 
f 192/66/203 193/69/204 172/139/259 
f 193/140/204 186/61/197 172/141/259 
f 242/142/260 243/143/261 45/45/45 
f 45/45/45 243/143/261 178/47/187 
f 244/144/262 178/147/263 243/146/261 
f 243/146/261 245/145/264 244/144/262 
f 120/148/126 46/149/46 178/147/263 
f 178/147/263 244/144/262 120/148/126 
f 245/145/264 243/146/261 242/150/260 
f 159/18/168 165/23/174 164/24/173 
f 159/18/168 160/19/169 165/23/174 
f 160/19/169 20/20/20 122/152/129 
f 122/152/129 246/151/265 160/19/169 
f 159/18/168 164/24/173 182/153/191 
f 156/15/165 158/154/167 182/153/191 
f 247/156/266 248/159/267 127/158/135 
f 127/158/135 126/157/134 247/156/266 
f 158/154/167 153/10/162 152/11/161 
f 152/11/161 182/153/191 158/154/167 
f 249/160/268 179/48/188 250/189/269 
f 240/137/257 115/138/120 132/163/140 
f 132/163/140 251/162/270 240/137/257 
f 252/164/271 253/166/272 254/165/273 
f 245/169/274 242/168/275 255/167/276 
f 255/167/276 256/170/277 245/169/274 
f 247/156/266 256/170/277 257/171/278 
f 257/171/278 248/159/267 247/156/266 
f 127/158/135 248/159/267 258/173/279 
f 258/173/279 139/172/148 127/158/135 
f 141/174/150 51/51/51 179/48/188 
f 179/48/188 259/175/280 141/174/150 
f 254/165/273 253/166/272 240/137/257 
f 240/137/257 251/162/270 254/165/273 
f 179/48/188 249/160/268 259/175/280 
f 252/164/271 255/167/276 157/16/166 
f 168/28/177 241/136/258 240/137/257 
f 240/137/257 253/166/272 168/28/177 
f 179/48/188 180/182/189 260/190/281 
f 260/190/281 250/189/269 179/48/188 
f 261/178/282 258/173/279 248/159/267 
f 248/159/267 257/171/278 261/178/282 
f 257/171/278 252/164/271 261/178/282 
f 146/179/155 112/135/117 241/136/258 
f 241/136/258 170/29/179 146/179/155 
f 241/136/258 168/28/177 170/29/179 
f 168/28/177 253/166/272 252/164/271 
f 252/164/271 262/176/283 168/28/177 
f 168/28/177 262/176/283 169/30/178 
f 262/176/283 157/16/166 224/112/239 
f 262/176/283 252/164/271 157/16/166 
f 37/37/37 36/36/36 146/179/155 
f 170/29/179 263/36/284 146/179/155 
f 29/29/29 36/36/36 30/30/30 
f 169/30/178 263/36/284 170/29/179 
f 50/50/50 49/49/49 140/191/149 
f 140/191/149 139/192/148 50/50/50 
f 180/182/189 50/181/50 139/192/285 
f 139/192/285 258/193/279 180/182/189 
f 260/190/281 180/182/189 258/193/279 
f 258/193/279 261/194/286 260/190/281 
f 261/194/286 252/195/287 260/190/281 
f 252/196/271 250/189/269 260/190/281 
f 252/196/271 249/160/268 250/189/269 
f 254/197/288 251/198/289 249/160/268 
f 251/198/289 132/199/140 141/174/150 
f 141/174/150 259/175/280 251/198/289 
f 132/199/140 131/200/290 142/175/151 
f 142/175/151 141/174/150 132/199/140 
f 131/200/290 129/160/137 142/175/151 
f 134/201/142 133/202/291 129/160/137 
f 133/196/292 144/177/153 130/161/138 
f 133/203/141 145/204/154 144/177/153 
f 49/49/49 144/177/153 145/204/154 
f 145/204/154 140/191/149 49/49/49 
f 126/157/134 125/156/133 118/205/123 
f 118/205/123 120/206/126 126/157/134 
f 133/164/141 136/167/144 137/170/146 
f 137/170/146 138/171/147 133/164/141 
f 118/205/123 125/156/133 137/170/146 
f 137/170/146 119/169/145 118/205/123 
f 244/205/262 247/156/266 126/157/134 
f 126/157/134 120/206/126 244/205/262 
f 256/170/277 255/167/276 252/164/271 
f 252/164/271 257/171/278 256/170/277 
f 256/170/277 247/156/266 244/205/262 
f 244/205/262 245/169/274 256/170/277 
f 41/41/41 7/7/7 6/6/6 
f 6/6/6 42/42/42 41/41/41 
f 42/42/42 6/6/6 150/7/159 
f 150/7/159 174/41/183 42/42/42 
f 252/202/271 254/197/288 249/160/268 
f 133/196/292 130/161/138 129/160/137 
f 100/119/105 264/207/293 101/120/106 
f 105/124/110 264/207/293 100/119/105 
f 107/128/112 264/207/293 105/125/110 
f 109/130/114 264/207/293 107/128/112 
f 111/132/116 264/207/293 109/130/114 
f 101/120/106 264/207/293 111/132/116 
f 228/120/243 265/207/294 229/119/244 
f 229/119/244 265/207/295 232/124/247 
f 232/125/247 265/207/294 234/128/250 
f 234/128/250 265/207/294 236/130/252 
f 236/130/252 265/207/294 238/132/254 
f 238/132/254 265/207/294 228/120/243 
f 16/16/16 123/154/131 136/167/144 
f 255/167/276 158/154/167 157/16/166 
f 123/154/131 116/168/127 136/167/144 
f 255/167/276 242/168/275 158/154/167 
f 44/44/44 41/41/41 40/40/40 
f 150/7/159 148/2/157 151/9/160 
f 7/7/7 9/9/9 2/2/2 
f 176/44/185 175/40/184 174/41/183 
f 9/9/9 7/7/7 44/44/44 
f 176/44/185 150/7/159 151/9/160 
f 266/208/296 267/209/297 23/23/23 
f 23/23/23 95/111/98 266/208/296 
f 268/210/298 122/152/129 121/151/128 
f 121/151/128 27/27/27 268/210/298 
f 22/22/22 97/113/100 31/31/31 
f 31/31/31 95/111/98 22/22/22 
f 22/22/22 16/16/16 96/112/99 
f 165/23/174 269/211/299 270/212/300 
f 270/212/300 223/111/238 165/23/174 
f 246/151/265 122/152/129 268/210/298 
f 268/210/298 167/180/176 246/151/265 
f 171/31/180 225/113/240 162/22/171 
f 162/22/171 223/111/238 171/31/180 
f 171/31/180 223/111/238 270/212/300 
f 266/208/296 95/111/98 31/31/31 
f 11/11/11 54/153/130 18/18/18 
f 23/23/23 267/209/297 19/19/19 
f 160/19/169 269/211/299 165/23/174 
f 162/22/171 225/113/240 169/30/178 
f 169/30/178 224/112/239 162/22/171 
f 224/112/239 169/30/178 262/176/283 
f 143/176/152 30/30/30 96/112/99 
f 32/32/32 33/33/33 25/25/25 
f 166/25/175 173/33/182 172/32/181 
f 271/213/301 272/214/302 273/215/303 
f 273/215/303 274/216/304 271/213/301 
f 275/217/305 276/218/306 272/214/302 
f 272/214/302 271/213/301 275/217/305 
f 277/219/307 278/220/308 276/218/306 
f 276/218/306 275/217/305 277/219/307 
f 277/219/307 279/221/309 280/222/310 
f 280/222/310 278/220/308 277/219/307 
f 281/223/311 282/224/312 283/225/313 
f 283/225/313 282/224/312 284/226/314 
f 283/225/313 284/226/314 285/227/315 
f 283/225/313 285/227/315 286/228/316 
f 283/225/313 286/228/316 287/229/317 
f 274/216/304 273/215/303 288/230/318 
f 288/230/318 289/231/319 274/216/304 
f 290/232/320 271/213/301 274/216/304 
f 274/216/304 291/233/321 290/232/320 
f 292/234/322 275/217/305 271/213/301 
f 271/213/301 290/232/320 292/234/322 
f 293/235/323 277/219/307 275/217/305 
f 275/217/305 292/234/322 293/235/323 
f 294/236/324 279/221/309 277/219/307 
f 277/219/307 293/235/323 294/236/324 
f 291/233/321 274/216/304 289/231/319 
f 289/231/319 295/237/325 291/233/321 
f 282/224/312 273/215/303 272/214/302 
f 272/214/302 284/226/314 282/224/312 
f 284/226/314 272/214/302 276/218/306 
f 276/218/306 285/227/315 284/226/314 
f 285/227/315 276/218/306 278/220/308 
f 278/220/308 286/228/316 285/227/315 
f 286/228/316 278/220/308 280/222/310 
f 280/222/310 287/229/317 286/228/316 
f 273/215/303 282/224/312 281/223/311 
f 281/223/311 288/230/318 273/215/303 
f 296/238/326 297/239/327 298/240/328 
f 298/240/328 299/241/329 296/238/326 
f 300/242/330 296/238/326 299/241/329 
f 299/241/329 301/243/331 300/242/330 
f 302/244/332 300/242/330 301/243/331 
f 301/243/331 303/245/333 302/244/332 
f 302/244/332 303/245/333 280/222/310 
f 280/222/310 279/221/309 302/244/332 
f 281/223/311 283/225/313 304/246/334 
f 283/225/313 305/247/335 304/246/334 
f 283/225/313 306/248/336 305/247/335 
f 283/225/313 307/249/337 306/248/336 
f 283/225/313 287/229/317 307/249/337 
f 297/239/327 289/231/319 288/230/318 
f 288/230/318 298/240/328 297/239/327 
f 308/250/338 309/251/339 297/239/327 
f 297/239/327 296/238/326 308/250/338 
f 310/252/340 308/250/338 296/238/326 
f 296/238/326 300/242/330 310/252/340 
f 311/253/341 310/252/340 300/242/330 
f 300/242/330 302/244/332 311/253/341 
f 294/236/324 311/253/341 302/244/332 
f 302/244/332 279/221/309 294/236/324 
f 309/251/339 295/237/325 289/231/319 
f 289/231/319 297/239/327 309/251/339 
f 304/246/334 305/247/335 299/241/329 
f 299/241/329 298/240/328 304/246/334 
f 305/247/335 306/248/336 301/243/331 
f 301/243/331 299/241/329 305/247/335 
f 306/248/336 307/249/337 303/245/333 
f 303/245/333 301/243/331 306/248/336 
f 307/249/337 287/229/317 280/222/310 
f 280/222/310 303/245/333 307/249/337 
f 298/240/328 288/230/318 281/223/311 
f 281/223/311 304/246/334 298/240/328 
f 312/254/342 313/255/343 314/256/344 
f 314/256/344 315/257/345 312/254/342 
f 316/258/346 317/259/347 318/260/348 
f 319/261/349 316/258/346 318/260/348 
f 318/260/348 320/262/350 319/261/349 
f 314/256/344 321/263/351 322/264/352 
f 316/258/346 319/261/349 323/265/353 
f 323/265/353 324/266/354 316/258/346 
f 325/267/355 319/261/349 320/262/350 
f 320/262/350 326/268/356 325/267/355 
f 319/261/349 327/269/357 323/265/353 
f 319/261/349 325/267/355 327/269/357 
f 325/267/355 328/270/358 327/269/357 
f 327/269/357 328/270/358 323/265/353 
f 317/259/347 316/258/346 324/266/354 
f 324/266/354 329/271/359 317/259/347 
f 317/259/347 330/272/360 318/260/348 
f 331/273/361 332/268/362 333/267/363 
f 333/267/363 334/274/364 331/273/361 
f 335/258/365 336/260/366 337/259/367 
f 338/261/368 339/262/369 336/260/366 
f 336/260/366 335/258/365 338/261/368 
f 333/267/363 340/270/370 341/275/371 
f 335/258/365 342/266/372 343/265/373 
f 343/265/373 338/261/368 335/258/365 
f 333/267/363 332/268/362 339/262/369 
f 339/262/369 338/261/368 333/267/363 
f 338/261/368 343/265/373 344/269/374 
f 338/261/368 344/269/374 333/267/363 
f 333/267/363 344/269/374 340/270/370 
f 344/269/374 343/265/373 340/270/370 
f 337/259/367 345/271/375 342/266/372 
f 342/266/372 335/258/365 337/259/367 
f 337/259/367 336/260/366 346/272/376 
f 347/276/377 348/277/378 349/278/379 
f 349/278/379 350/279/380 347/276/377 
f 351/280/381 352/281/382 353/282/383 
f 354/283/384 351/280/381 355/284/385 
f 355/284/385 356/285/386 354/283/384 
f 351/280/381 353/282/383 357/286/387 
f 355/284/385 351/280/381 358/287/388 
f 351/280/381 354/283/384 352/281/382 
f 351/280/381 357/286/387 358/287/388 
f 359/288/389 360/289/390 361/290/391 
f 361/290/391 362/291/392 359/288/389 
f 357/286/387 363/292/393 364/293/394 
f 364/293/394 365/294/395 357/286/387 
f 358/287/388 357/286/387 365/294/395 
f 365/294/395 366/295/396 358/287/388 
f 353/282/383 363/292/393 357/286/387 
f 367/296/397 356/285/386 355/284/385 
f 355/284/385 368/297/398 367/296/397 
f 369/298/399 358/287/388 370/299/400 
f 370/299/400 358/287/388 366/295/396 
f 366/295/396 371/300/401 370/299/400 
f 355/284/385 358/287/388 369/298/399 
f 370/299/400 368/297/398 369/298/399 
f 369/298/399 368/297/398 355/284/385 
f 349/278/379 372/301/402 373/302/403 
f 373/302/403 350/279/380 349/278/379 
f 374/280/404 375/282/405 376/281/406 
f 377/283/407 378/285/408 379/284/409 
f 379/284/409 374/280/404 377/283/407 
f 374/280/404 380/286/410 375/282/405 
f 379/284/409 381/287/411 374/280/404 
f 374/280/404 376/281/406 377/283/407 
f 374/280/404 381/287/411 380/286/410 
f 382/303/412 383/300/413 384/299/414 
f 384/299/414 385/304/415 382/303/412 
f 380/286/410 386/294/416 387/293/417 
f 387/293/417 388/292/418 380/286/410 
f 381/287/411 389/295/419 386/294/416 
f 386/294/416 380/286/410 381/287/411 
f 375/282/405 380/286/410 388/292/418 
f 390/296/420 391/297/421 379/284/409 
f 379/284/409 378/285/408 390/296/420 
f 392/298/422 384/299/414 381/287/411 
f 384/299/414 383/300/413 389/295/419 
f 389/295/419 381/287/411 384/299/414 
f 379/284/409 392/298/422 381/287/411 
f 384/299/414 392/298/422 391/297/421 
f 392/298/422 379/284/409 391/297/421 
f 393/305/423 394/306/424 395/307/425 
f 395/307/425 396/308/426 393/305/423 
f 397/309/427 398/310/428 399/311/429 
f 395/307/425 400/312/430 401/313/431 
f 401/313/431 398/310/428 395/307/425 
f 394/314/424 402/315/432 403/316/433 
f 399/311/429 401/313/431 404/317/434 
f 404/317/434 405/318/435 399/311/429 
f 401/313/431 400/312/430 404/317/434 
f 403/316/433 402/315/432 406/319/436 
f 406/319/436 407/320/437 403/316/433 
f 405/318/435 404/317/434 408/321/438 
f 408/321/438 409/322/439 405/318/435 
f 404/317/434 407/320/437 408/321/438 
f 407/320/437 406/319/436 410/323/440 
f 410/323/440 411/324/441 407/320/437 
f 398/310/428 401/313/431 399/311/429 
f 394/314/424 393/325/423 402/315/432 
f 398/310/428 397/309/427 396/308/426 
f 396/308/426 395/307/425 398/310/428 
f 394/306/424 403/316/433 400/312/430 
f 400/312/430 395/307/425 394/306/424 
f 400/312/430 403/316/433 407/320/437 
f 400/312/430 407/320/437 404/317/434 
f 393/305/423 396/308/426 412/307/442 
f 412/307/442 413/306/443 393/305/423 
f 397/309/427 399/311/429 414/310/444 
f 412/307/442 414/310/444 415/313/445 
f 415/313/445 416/312/446 412/307/442 
f 413/314/447 417/316/448 402/315/432 
f 399/311/429 405/318/435 418/317/449 
f 418/317/449 415/313/445 399/311/429 
f 415/313/445 418/317/449 416/312/446 
f 417/316/448 419/320/450 406/319/436 
f 406/319/436 402/315/432 417/316/448 
f 405/318/435 409/322/439 420/321/451 
f 420/321/451 418/317/449 405/318/435 
f 418/317/449 420/321/451 419/320/450 
f 419/320/450 421/324/452 410/323/440 
f 410/323/440 406/319/436 419/320/450 
f 414/310/444 399/311/429 415/313/445 
f 413/314/447 402/315/432 393/325/423 
f 414/310/444 412/307/442 396/308/426 
f 396/308/426 397/309/427 414/310/444 
f 413/306/443 412/307/442 416/312/446 
f 416/312/446 417/316/448 413/306/443 
f 416/312/446 419/320/450 417/316/448 
f 416/312/446 418/317/449 419/320/450 
f 367/296/397 368/297/398 348/277/378 
f 348/277/378 347/276/377 367/296/397 
f 370/299/400 371/300/401 360/289/390 
f 360/289/390 359/288/389 370/299/400 
f 385/304/415 362/291/392 361/290/391 
f 361/290/391 382/303/412 385/304/415 
f 372/301/402 391/297/421 390/296/420 
f 390/296/420 373/302/403 372/301/402 
f 348/277/378 368/297/398 422/326/453 
f 368/297/398 370/299/400 422/326/453 
f 370/299/400 359/288/389 422/326/453 
f 359/288/389 348/277/378 422/326/453 
f 362/291/392 349/278/379 423/327/454 
f 349/278/379 348/277/378 423/327/454 
f 348/277/378 359/288/389 423/327/454 
f 359/288/389 362/291/392 423/327/454 
f 372/301/402 349/278/379 424/328/455 
f 349/278/379 362/291/392 424/328/455 
f 362/291/392 385/304/415 424/328/455 
f 385/304/415 372/301/402 424/328/455 
f 384/299/414 391/297/421 425/329/456 
f 391/297/421 372/301/402 425/329/456 
f 372/301/402 385/304/415 425/329/456 
f 385/304/415 384/299/414 425/329/456 
f 322/264/352 426/330/457 314/256/344 
f 427/331/458 428/332/459 334/274/364 
f 325/267/355 326/268/356 315/257/345 
f 315/257/345 314/256/344 325/267/355 
f 334/274/364 313/255/343 312/254/342 
f 312/254/342 331/273/361 334/274/364 
f 313/255/343 321/263/351 314/256/344 
f 333/267/363 341/275/371 334/274/364 
f 314/256/344 426/330/457 325/267/355 
f 334/274/364 428/332/459 313/255/343 
f 322/264/352 328/270/358 426/330/457 
f 328/270/358 325/267/355 426/330/457 
f 321/263/351 429/333/460 322/264/352 
f 321/263/351 313/255/343 429/333/460 
f 427/331/458 429/333/460 428/332/459 
f 429/333/460 313/255/343 428/332/459 
f 340/270/370 427/331/458 341/275/371 
f 427/331/458 334/274/364 341/275/371 
f 19/19/19 267/209/297 121/151/128 
f 246/151/265 269/211/299 160/19/169 
f 27/27/27 266/208/296 25/25/25 
f 270/212/300 166/25/175 171/31/180 
f 269/211/299 246/151/265 167/180/176 
f 167/180/176 270/212/300 269/211/299 
f 266/208/296 27/27/27 121/151/128 
f 121/151/128 267/209/297 266/208/296 
f 263/36/284 37/37/37 146/179/155 
f 36/36/36 29/29/29 146/179/155 
f 26/26/26 268/210/298 27/27/27 
f 167/180/176 268/210/298 26/26/26 
f 266/208/296 31/31/31 25/25/25 
f 270/212/300 167/180/176 166/25/175 
f 157/16/166 163/17/172 162/22/171 
f 22/22/22 17/17/17 16/16/16 
f 430/334/461 431/335/462 432/336/463 
f 433/337/464 430/334/461 432/336/463 
f 434/338/465 435/339/466 436/340/467 
f 432/336/463 437/341/468 433/337/464 
f 438/342/469 439/343/470 440/344/471 
f 441/345/472 442/346/473 437/341/468 
f 441/345/472 443/347/474 440/344/471 
f 437/341/468 442/346/473 435/339/466 
f 439/343/470 441/345/472 440/344/471 
f 9/9/9 10/10/10 3/3/3 
f 147/3/156 153/10/162 151/9/160 
f 434/338/465 433/337/464 437/341/468 
f 116/168/127 123/154/131 124/155/132 
f 124/155/132 43/43/43 116/168/127 
f 124/155/132 123/154/131 10/10/10 
f 124/155/132 44/44/44 43/43/43 
f 444/334/475 445/336/476 431/335/462 
f 446/337/477 444/334/475 447/338/478 
f 447/338/478 448/339/479 449/341/480 
f 450/348/481 439/349/482 438/350/469 
f 445/336/476 449/341/480 451/345/483 
f 438/342/469 440/344/471 450/343/481 
f 451/345/483 452/346/484 450/343/481 
f 451/345/483 443/347/474 445/336/476 
f 449/341/480 448/339/479 452/346/484 
f 450/343/481 440/344/471 451/345/483 
f 447/338/478 449/341/480 446/337/477 
f 124/155/132 10/10/10 9/9/9 
f 153/10/162 158/154/167 453/155/485 
f 453/155/485 242/168/275 177/43/186 
f 453/155/485 151/9/160 153/10/162 
f 158/154/167 242/168/275 453/155/485 
f 453/155/485 177/43/186 176/44/185 
f 453/155/485 176/44/185 151/9/160 
f 452/351/484 442/352/486 439/349/482 
f 439/349/482 450/348/481 452/351/484 
f 448/353/487 435/354/466 442/352/486 
f 442/352/486 452/351/484 448/353/487 
f 454/355/488 436/356/489 435/354/466 
f 435/354/466 448/353/487 454/355/488 
f 116/168/127 43/43/43 455/43/490 
f 455/43/490 456/168/491 116/168/127 
f 177/43/186 242/168/275 456/168/491 
f 456/168/491 455/43/490 177/43/186 
f 40/40/40 39/39/39 455/357/490 
f 43/43/43 40/40/40 455/357/490 
f 39/39/39 175/40/184 455/40/490 
f 175/40/184 177/43/186 455/40/490 
f 15/15/15 123/154/131 16/16/16 
f 156/15/165 163/17/172 157/16/166 
f 251/198/289 259/175/280 249/160/268 
f 131/200/290 134/201/142 129/160/137 
f 407/320/437 411/324/441 408/321/438 
f 420/321/451 421/324/452 419/320/450 
f 441/345/472 439/343/470 442/346/473 
f 451/345/483 449/341/480 452/346/484 
f 75/85/76 91/106/94 82/96/84 
f 80/92/82 74/91/81 81/98/86 
f 201/92/212 457/99/492 212/98/229 
f 207/85/219 206/83/218 213/96/226 
f 433/337/464 434/338/465 430/334/461 
f 431/335/462 443/347/474 432/336/463 
f 445/336/476 443/347/474 431/335/462 
f 432/336/463 441/345/472 437/341/468 
f 434/338/465 437/341/468 435/339/466 
f 447/338/478 454/340/488 448/339/479 
f 445/336/476 446/337/477 449/341/480 
f 441/345/472 432/336/463 443/347/474 
f 451/345/483 440/344/471 443/347/474 
f 446/337/477 445/336/476 444/334/475 
f 78/88/79 77/87/78 85/100/88 
f 85/100/88 88/103/91 78/88/79 
f 83/97/85 88/103/91 91/106/94 
f 83/97/85 84/99/87 79/89/80 
f 79/89/80 458/185/493 459/186/494 
f 459/186/494 76/86/77 79/89/80 
f 217/103/231 460/102/495 218/100/232 
f 216/88/230 219/87/233 461/86/496 
f 461/86/496 462/89/497 216/88/230 
f 214/106/227 217/103/231 215/97/228 
f 215/97/228 216/88/230 462/89/497 
f 215/97/228 462/89/497 457/99/492 
f 78/88/79 88/103/91 83/97/85 
f 215/97/228 217/103/231 216/88/230 
f 86/101/89 89/358/498 92/107/95 
f 92/107/95 87/102/90 86/101/89 
f 208/185/220 461/86/496 209/186/221 
f 458/185/493 94/109/97 93/108/96 
f 93/108/96 459/186/494 458/185/493 
f 222/107/236 220/358/499 220/358/500 
f 222/107/236 220/358/500 463/101/501 
f 460/102/495 222/107/236 463/101/501 
f 212/94/225 210/359/502 221/187/235 
f 221/187/235 213/95/226 212/94/225 
f 221/187/235 461/360/496 218/188/232 
f 210/359/502 209/361/503 461/360/496 
f 169/30/178 189/116/200 263/36/284 
f 189/116/200 191/38/202 263/36/284 
f 263/36/284 191/38/202 35/35/35 
f 263/36/284 35/35/35 37/37/37 
f 218/188/232 463/362/501 220/104/256 
f 461/360/496 221/187/235 210/359/502 
f 207/85/219 214/106/227 215/97/228 
f 215/97/228 457/99/492 201/92/212 
f 208/185/220 211/109/223 457/99/492 
f 462/89/497 208/185/220 457/99/492 
f 214/106/227 460/102/495 217/103/231 
f 214/106/227 222/107/236 460/102/495 
f 460/102/495 463/101/501 218/100/232 
f 208/185/220 462/89/497 461/86/496 
f 461/360/496 219/363/233 218/188/232 
f 84/99/87 94/109/97 458/185/493 
f 87/102/90 92/107/95 91/106/94 
f 80/92/82 84/99/87 83/97/85 
f 83/97/85 91/106/94 75/85/76 
f 88/103/91 87/102/90 91/106/94 
f 84/99/87 458/185/493 79/89/80 
f 76/134/77 93/359/504 90/105/93 
f 90/105/93 89/104/92 85/133/88 
f 90/105/93 93/359/504 81/94/83 
f 90/105/93 81/94/83 82/95/84 
f 92/107/95 89/358/498 82/96/84 
f 94/109/97 84/99/87 81/98/86 
f 213/96/226 220/358/499 222/107/236 
f 212/98/229 457/99/492 211/109/223 
f 18/18/18 19/19/19 13/13/13 
f 155/13/164 160/19/169 159/18/168 
f 85/133/88 77/363/505 76/134/77 
f 76/134/77 459/364/506 93/359/504 
f 89/104/92 86/365/89 85/133/88 
f 464/366/507 465/367/508 21/110/509 
f 21/110/509 53/53/510 464/366/507 
f 52/52/511 466/368/512 467/369/513 
f 468/370/514 469/371/515 470/372/516 
f 470/372/516 471/373/517 468/370/514 
f 471/373/517 472/374/518 473/375/519 
f 473/375/519 468/370/514 471/373/517 
f 474/376/520 475/377/521 473/378/519 
f 473/378/519 472/379/518 474/376/520 
f 476/380/522 477/381/523 478/382/524 
f 478/382/524 479/383/525 476/380/522 
f 480/384/526 481/385/527 482/386/528 
f 468/387/529 473/388/519 483/389/530 
f 473/390/519 480/384/526 484/391/531 
f 485/392/532 484/391/531 482/386/528 
f 482/386/528 486/393/533 485/392/532 
f 487/394/534 488/395/535 489/396/536 
f 489/396/536 490/397/537 487/394/534 
f 485/398/532 491/399/538 484/400/539 
f 481/385/527 468/401/514 492/402/540 
f 493/403/541 488/395/535 487/394/534 
f 487/394/534 494/404/542 493/403/541 
f 495/405/543 494/404/542 487/394/534 
f 487/394/534 492/402/540 495/405/543 
f 496/406/544 497/407/545 477/381/523 
f 498/408/546 499/409/547 500/410/548 
f 500/410/548 501/411/549 498/408/546 
f 491/399/538 485/398/532 502/412/550 
f 502/412/550 503/413/551 491/399/538 
f 504/414/552 500/410/548 505/415/553 
f 501/411/549 506/416/554 507/417/555 
f 507/417/555 498/408/546 501/411/549 
f 489/396/536 498/408/546 490/397/537 
f 496/406/544 486/393/533 508/418/556 
f 508/418/556 497/407/545 496/406/544 
f 485/392/532 486/393/533 496/406/544 
f 496/406/544 502/419/550 485/392/532 
f 492/402/540 483/420/530 509/421/557 
f 509/421/557 495/405/543 492/402/540 
f 509/422/558 483/389/530 488/423/535 
f 488/423/535 493/424/541 509/422/558 
f 487/394/534 481/385/527 492/402/540 
f 52/52/511 467/369/513 53/53/510 
f 510/425/559 55/57/560 17/58/561 
f 465/426/562 17/58/561 21/427/563 
f 493/403/541 494/404/542 511/428/564 
f 511/428/564 512/429/565 493/403/541 
f 494/404/542 495/405/543 513/430/566 
f 513/430/566 511/428/564 494/404/542 
f 495/405/543 509/421/557 514/431/567 
f 514/431/567 513/430/566 495/405/543 
f 493/424/541 512/432/568 514/433/569 
f 514/433/569 509/422/558 493/424/541 
f 515/434/570 505/435/553 500/436/548 
f 500/436/548 499/437/547 515/434/570 
f 498/408/546 489/396/536 499/409/547 
f 476/380/522 502/419/550 496/406/544 
f 496/406/544 477/381/523 476/380/522 
f 473/388/519 484/400/539 483/389/530 
f 484/400/539 488/423/535 483/389/530 
f 487/394/534 490/397/537 508/418/556 
f 511/428/571 516/438/572 512/429/565 
f 511/428/571 513/430/573 516/438/572 
f 513/430/573 514/439/569 516/438/572 
f 516/438/572 514/439/569 512/429/565 
f 470/372/516 469/371/515 517/440/574 
f 517/440/574 475/377/521 474/376/520 
f 510/425/559 518/441/575 472/374/518 
f 472/374/518 471/373/517 510/425/559 
f 464/366/507 467/369/513 519/442/576 
f 464/366/507 519/442/576 518/443/577 
f 518/443/577 465/367/508 464/366/507 
f 470/372/516 517/440/574 467/369/513 
f 467/369/513 466/368/512 470/372/516 
f 510/425/559 471/373/517 470/372/516 
f 470/372/516 466/368/512 510/425/559 
f 510/425/559 465/426/562 518/441/575 
f 467/369/513 517/440/574 519/442/576 
f 519/442/576 474/376/520 518/443/577 
f 508/418/556 490/397/537 498/408/546 
f 498/408/546 507/417/555 508/418/556 
f 479/383/525 478/382/524 520/444/578 
f 520/444/578 521/445/579 479/383/525 
f 503/413/551 502/412/550 521/446/579 
f 499/437/547 489/447/580 491/399/538 
f 491/399/538 515/434/570 499/437/547 
f 491/399/538 489/447/580 488/423/535 
f 508/418/556 482/386/528 487/394/534 
f 508/418/556 486/393/533 482/386/528 
f 491/399/538 488/423/535 484/400/539 
f 520/444/578 478/382/524 477/381/523 
f 477/381/523 497/407/545 520/444/578 
f 507/417/555 505/448/581 515/449/570 
f 508/418/556 515/449/570 491/450/582 
f 508/418/556 507/417/555 515/449/570 
f 507/417/555 506/416/554 505/448/581 
f 491/399/538 497/451/545 508/452/583 
f 503/413/551 520/453/584 497/451/545 
f 503/413/551 521/446/579 520/453/584 
f 491/399/538 503/413/551 497/451/545 
f 517/440/574 474/376/520 519/442/576 
f 474/376/520 472/379/518 518/443/577 
f 476/454/522 479/455/525 521/446/579 
f 502/412/550 476/454/522 521/446/579 
f 469/371/515 475/377/521 517/440/574 
f 481/385/527 487/394/534 482/386/528 
f 468/401/514 483/420/530 492/402/540 
f 467/369/513 464/366/507 53/53/510 
f 510/425/559 466/368/512 55/57/560 
f 465/426/562 510/425/559 17/58/561 
f 480/456/585 473/378/519 475/377/521 
f 469/371/515 468/370/514 481/457/586 
f 480/456/585 475/377/521 469/371/515 
f 469/371/515 481/457/586 480/456/585 
f 480/384/526 482/386/528 484/391/531 
f 522/366/587 183/53/588 161/110/589 
f 161/110/589 523/367/590 522/366/587 
f 181/52/591 524/368/592 184/57/593 
f 525/370/594 526/373/595 527/372/596 
f 527/372/596 528/371/597 525/370/594 
f 526/373/595 525/370/594 529/375/598 
f 529/375/598 530/374/599 526/373/595 
f 531/376/600 530/379/599 529/378/598 
f 529/378/598 532/377/601 531/376/600 
f 533/380/602 534/383/603 535/382/604 
f 535/382/604 536/381/605 533/380/602 
f 537/384/606 538/386/607 539/385/608 
f 525/387/609 540/389/610 529/388/611 
f 529/390/598 541/391/612 537/384/606 
f 542/392/613 543/393/614 538/386/607 
f 538/386/607 541/391/612 542/392/613 
f 544/394/615 545/397/616 546/396/617 
f 546/396/617 547/395/618 544/394/615 
f 542/398/613 541/400/619 548/399/620 
f 539/385/608 549/402/621 525/401/594 
f 550/403/622 551/404/623 544/394/615 
f 544/394/615 547/395/618 550/403/622 
f 552/405/624 549/402/621 544/394/615 
f 544/394/615 551/404/623 552/405/624 
f 553/406/625 536/381/605 554/407/626 
f 555/408/627 556/411/628 557/410/629 
f 557/410/629 558/409/630 555/408/627 
f 548/399/620 559/413/631 560/412/632 
f 560/412/632 542/398/613 548/399/620 
f 561/415/633 557/410/629 562/414/634 
f 563/417/635 564/416/636 556/411/628 
f 556/411/628 555/408/627 563/417/635 
f 546/396/617 545/397/616 555/408/627 
f 553/406/625 554/407/626 565/418/637 
f 565/418/637 543/393/614 553/406/625 
f 542/392/613 560/419/632 553/406/625 
f 553/406/625 543/393/614 542/392/613 
f 549/402/621 552/405/624 566/421/638 
f 566/421/638 540/420/610 549/402/621 
f 566/422/639 550/424/622 547/423/640 
f 547/423/640 540/389/610 566/422/639 
f 544/394/615 549/402/621 539/385/608 
f 181/52/591 183/53/588 567/369/641 
f 568/425/642 163/58/643 184/57/593 
f 523/426/590 161/427/589 163/58/643 
f 550/403/622 569/429/644 570/428/645 
f 570/428/645 551/404/623 550/403/622 
f 551/404/623 570/428/645 571/430/646 
f 571/430/646 552/405/624 551/404/623 
f 572/431/647 566/421/638 552/405/624 
f 552/405/624 571/430/646 572/431/647 
f 550/424/622 566/422/639 572/433/648 
f 572/433/648 569/432/649 550/424/622 
f 573/434/650 558/437/651 557/436/629 
f 557/436/629 561/435/633 573/434/650 
f 555/408/627 558/409/630 546/396/617 
f 533/380/602 536/381/605 553/406/625 
f 553/406/625 560/419/632 533/380/602 
f 529/388/611 540/389/610 541/400/619 
f 541/400/619 540/389/610 547/423/640 
f 544/394/615 565/418/637 545/397/616 
f 570/428/645 569/429/644 574/438/652 
f 570/428/645 574/438/652 571/430/653 
f 571/430/653 574/438/652 572/439/648 
f 574/438/652 569/429/644 572/439/648 
f 527/372/596 575/440/654 528/371/597 
f 575/440/654 531/376/600 532/377/601 
f 568/425/642 526/373/595 530/374/599 
f 530/374/599 576/441/655 568/425/642 
f 522/366/587 577/442/656 567/369/641 
f 522/366/587 523/367/590 576/443/657 
f 576/443/657 577/442/656 522/366/587 
f 527/372/596 524/368/592 567/369/641 
f 567/369/641 575/440/654 527/372/596 
f 568/425/642 524/368/592 527/372/596 
f 527/372/596 526/373/595 568/425/642 
f 568/425/642 576/441/655 523/426/590 
f 567/369/641 577/442/656 575/440/654 
f 577/442/656 576/443/657 531/376/600 
f 565/418/637 563/417/635 555/408/627 
f 555/408/627 545/397/616 565/418/637 
f 534/383/603 578/445/658 579/444/659 
f 579/444/659 535/382/604 534/383/603 
f 559/413/631 578/446/658 560/412/632 
f 558/437/651 573/434/650 548/399/620 
f 548/399/620 546/447/660 558/437/651 
f 548/399/620 547/423/640 546/447/660 
f 565/418/637 544/394/615 538/386/607 
f 565/418/637 538/386/607 543/393/614 
f 548/399/620 541/400/619 547/423/640 
f 579/444/659 554/407/626 536/381/605 
f 536/381/605 535/382/604 579/444/659 
f 563/417/635 573/449/650 561/448/661 
f 565/418/637 548/450/662 573/449/650 
f 565/418/637 573/449/650 563/417/635 
f 563/417/635 561/448/661 564/416/636 
f 548/399/620 565/452/663 554/451/626 
f 559/413/631 554/451/626 579/453/664 
f 559/413/631 579/453/664 578/446/658 
f 548/399/620 554/451/626 559/413/631 
f 575/440/654 577/442/656 531/376/600 
f 531/376/600 576/443/657 530/379/599 
f 533/454/602 578/446/658 534/455/603 
f 560/412/632 578/446/658 533/454/602 
f 528/371/597 575/440/654 532/377/601 
f 539/385/608 538/386/607 544/394/615 
f 525/401/594 549/402/621 540/420/610 
f 567/369/641 183/53/588 522/366/587 
f 568/425/642 184/57/593 524/368/592 
f 523/426/590 163/58/643 568/425/642 
f 537/456/665 532/377/601 529/378/598 
f 528/371/597 539/457/666 525/370/594 
f 537/456/665 539/457/666 528/371/597 
f 528/371/597 532/377/601 537/456/665 
f 537/384/606 541/391/612 538/386/607 
f 186/61/197 193/140/204 187/60/198 
f 57/60/57 64/140/65 58/61/58 
f 52/52/511 55/57/560 466/368/512 
f 181/52/591 567/369/641 524/368/592 
f 159/18/168 182/153/191 152/11/161 
f 580/458/667 207/459/219 201/183/212 
f 201/183/212 203/184/214 580/458/667 
f 80/183/82 75/459/76 581/458/668 
f 581/458/668 582/184/669 80/183/82 
f 196/71/207 207/459/219 580/458/667 
f 580/458/667 185/59/196 196/71/207 
f 200/74/211 199/75/210 194/68/205 
f 581/458/668 75/459/76 66/71/67 
f 66/71/67 56/59/56 581/458/668 
f 80/183/82 582/184/669 63/68/64 
f 63/68/64 71/76/72 80/183/82 
f 99/118/104 98/117/103 69/74/70 
f 69/74/70 68/73/69 99/118/104 
f 582/184/669 581/458/668 67/72/68 
f 67/72/68 70/75/71 582/184/669 
f 581/458/668 56/59/56 67/72/68 
f 197/73/208 185/59/196 198/72/209 
f 580/458/667 203/184/214 199/75/210 
f 199/75/210 198/72/209 580/458/667 
f 226/117/241 227/118/242 197/73/208 
f 197/73/208 200/74/211 226/117/241 
f 185/59/196 580/458/667 198/72/209 
f 197/73/208 227/118/242 185/59/196 
f 199/75/210 203/184/214 194/68/205 
f 194/68/205 226/117/241 200/74/211 
f 69/74/70 98/117/103 63/68/64 
f 63/68/64 582/184/669 70/75/71 
f 56/59/56 99/118/104 68/73/69 
f 56/59/56 68/73/69 67/72/68 
f 7/7/7 41/41/41 44/44/44 
f 176/44/185 174/41/183 150/7/159 
f 564/416/636 562/414/634 556/411/628 
f 501/411/549 504/414/552 506/416/554 
f 556/411/628 562/414/634 557/410/629 
f 561/448/661 562/414/634 564/416/636 
f 500/410/548 504/414/552 501/411/549 
f 506/416/554 504/414/552 505/448/581 
# 1061 faces

