# 3ds Max Wavefront OBJ Exporter v0.99 - (c)2007 guruware
# File Created: 30.10.2024 13:13:01

mtllib oreja_der_dumbo.mtl

#
# object oreja_der_dumbo
#

v  0.3095 -0.1686 -0.4545
v  0.2828 -0.2836 -0.4951
v  0.2800 -0.2881 -0.4545
v  0.2852 -0.2659 -0.5297
v  0.2877 -0.2421 -0.5449
v  0.2080 -0.3597 0.3977
v  0.3177 -0.1284 0.3977
v  0.2142 -0.4355 0.2829
v  0.3093 -0.1468 0.5113
v  0.1991 -0.2656 0.5113
v  0.2135 -0.2278 0.5442
v  0.2530 -0.1986 0.5389
v  0.3255 -0.1090 0.2829
v  0.3076 -0.1487 0.5322
v  0.3324 -0.1053 -0.3680
v  0.2774 -0.2845 -0.3680
v  0.3490 -0.0588 -0.2714
v  0.2790 -0.3084 -0.2714
v  0.3579 -0.0337 -0.1676
v  0.2707 -0.3579 -0.1676
v  0.2514 -0.4230 -0.0570
v  0.3553 -0.0379 -0.0570
v  0.3458 -0.0603 0.0552
v  0.2391 -0.4613 0.0552
v  0.2257 -0.4682 0.1687
v  0.3353 -0.0861 0.1687
# 26 vertices

vn -0.9706 0.2318 0.0651
vn -0.9741 0.2263 0.0011
vn -0.9653 0.2600 -0.0230
vn -0.9790 0.1920 0.0685
vn -0.9807 0.1678 0.1003
vn -0.8352 0.4507 -0.3152
vn -0.9236 0.3813 -0.0395
vn -0.9187 0.3420 -0.1975
vn -0.7895 0.6044 -0.1068
vn -0.6263 0.6045 -0.4923
vn -0.5554 0.6568 -0.5100
vn -0.6955 0.6761 -0.2433
vn -0.9531 0.3006 -0.0348
vn -0.6730 0.7395 0.0156
vn -0.9584 0.2845 0.0232
vn -0.9588 0.2836 0.0176
vn -0.9609 0.2756 0.0276
vn -0.9626 0.2646 0.0577
vn -0.9647 0.2634 0.0051
vn -0.9655 0.2603 0.0066
vn -0.9658 0.2587 -0.0180
vn -0.9653 0.2603 -0.0208
vn -0.9655 0.2587 -0.0294
vn -0.9625 0.2655 -0.0564
vn -0.9490 0.2908 -0.1218
vn -0.9632 0.2665 -0.0351
# 26 vertex normals

vt 0.5156 0.1141 0.0000
vt 0.4256 0.0363 0.0000
vt 0.4067 0.0705 0.0000
vt 0.4536 0.0121 0.0000
vt 0.4801 0.0069 0.0000
vt 0.0226 0.7982 0.0000
vt 0.2512 0.8828 0.0000
vt 0.0038 0.6685 0.0000
vt 0.1957 0.9776 0.0000
vt 0.0468 0.9369 0.0000
vt 0.0717 0.9798 0.0000
vt 0.1185 0.9844 0.0000
vt 0.3096 0.7883 0.0000
vt 0.1882 0.9962 0.0000
vt 0.5441 0.2143 0.0000
vt 0.3785 0.1479 0.0000
vt 0.5535 0.3172 0.0000
vt 0.3243 0.2256 0.0000
vt 0.5404 0.4184 0.0000
vt 0.2434 0.2999 0.0000
vt 0.1444 0.3738 0.0000
vt 0.4971 0.5145 0.0000
vt 0.4361 0.6052 0.0000
vt 0.0692 0.4588 0.0000
vt 0.0200 0.5560 0.0000
vt 0.3717 0.6959 0.0000
# 26 texture coords

o oreja_der_dumbo
g oreja_der_dumbo
usemtl 08___Default
s 1
f 1/1/1 2/2/2 3/3/3 
f 2/2/2 1/1/1 4/4/4 
f 5/5/5 4/4/4 1/1/1 
f 6/6/6 7/7/7 8/8/8 
f 7/7/7 6/6/6 9/9/9 
f 10/10/10 9/9/9 6/6/6 
f 11/11/11 12/12/12 10/10/10 
f 9/9/9 10/10/10 12/12/12 
f 7/7/7 13/13/13 8/8/8 
f 12/12/12 14/14/14 9/9/9 
f 15/15/15 16/16/16 17/17/17 
f 18/18/18 17/17/17 16/16/16 
f 17/17/17 18/18/18 19/19/19 
f 19/19/19 18/18/18 20/20/20 
f 20/20/20 21/21/21 22/22/22 
f 23/23/23 22/22/22 21/21/21 
f 22/22/22 19/19/19 20/20/20 
f 23/23/23 21/21/21 24/24/24 
f 24/24/24 25/25/25 26/26/26 
f 13/13/13 26/26/26 25/25/25 
f 26/26/26 23/23/23 24/24/24 
f 13/13/13 25/25/25 8/8/8 
f 16/16/16 15/15/15 3/3/3 
f 1/1/1 3/3/3 15/15/15 
# 24 faces

#
# object oreja_der_dumbo001
#

v  0.3715 -0.1336 0.5181
v  0.3753 -0.1338 0.5400
v  0.3381 -0.1608 0.5379
v  0.3507 -0.0811 0.5325
v  0.3494 -0.0861 0.5251
v  0.2979 -0.1032 0.5272
v  0.3007 -0.1057 0.5181
v  0.3436 -0.1386 0.3977
v  0.3756 -0.1161 0.4035
v  0.3371 -0.1578 0.4968
v  0.2608 -0.2165 0.5449
v  0.1991 -0.2656 0.5113
v  0.2135 -0.2278 0.5442
v  0.2080 -0.3597 0.3977
v  0.3550 -0.0718 0.4095
v  0.3076 -0.1487 0.5322
v  0.3093 -0.1468 0.5113
v  0.3177 -0.1284 0.3977
v  0.3097 -0.0901 0.4035
v  0.3677 -0.0999 -0.3789
v  0.3764 -0.0176 -0.2855
v  0.3920 -0.0501 -0.2784
v  0.3539 -0.0745 -0.3900
v  0.3361 -0.1661 -0.4656
v  0.3248 -0.1483 -0.4770
v  0.2877 -0.2421 -0.5449
v  0.3043 -0.1536 -0.4656
v  0.3683 -0.0665 -0.2714
v  0.3486 -0.1117 -0.3680
v  0.3220 -0.1735 -0.4545
v  0.3265 -0.0836 -0.3789
v  0.3490 -0.0588 -0.2714
v  0.3428 -0.0307 -0.2784
v  0.3324 -0.1053 -0.3680
v  0.3095 -0.1686 -0.4545
v  0.2774 -0.2845 -0.3680
v  0.2790 -0.3084 -0.2714
v  0.2800 -0.2881 -0.4545
v  0.2828 -0.2836 -0.4951
v  0.2852 -0.2659 -0.5297
v  0.3702 -0.0334 0.1829
v  0.3623 -0.0535 0.2959
v  0.3896 -0.0748 0.1757
v  0.3825 -0.0970 0.2893
v  0.3511 -0.1191 0.2829
v  0.2142 -0.4355 0.2829
v  0.3277 -0.0504 0.1757
v  0.3177 -0.0714 0.2893
v  0.3596 -0.0957 0.1687
v  0.2257 -0.4682 0.1687
v  0.3255 -0.1090 0.2829
v  0.3353 -0.0861 0.1687
v  0.3987 -0.0495 0.0630
v  0.3797 -0.0094 0.0711
v  0.4057 -0.0275 -0.0506
v  0.3877 0.0109 -0.0439
v  0.3383 -0.0257 0.0630
v  0.3483 -0.0048 -0.0506
v  0.3696 -0.0697 0.0552
v  0.2391 -0.4613 0.0552
v  0.3779 -0.0469 -0.0570
v  0.2514 -0.4230 -0.0570
v  0.3458 -0.0603 0.0552
v  0.3553 -0.0379 -0.0570
v  0.4050 -0.0234 -0.1666
v  0.3885 0.0129 -0.1655
v  0.3516 -0.0022 -0.1666
v  0.3790 -0.0420 -0.1676
v  0.2707 -0.3579 -0.1676
v  0.3579 -0.0337 -0.1676
# 70 vertices

vn 0.9549 -0.2836 -0.0877
vn 0.9502 -0.2630 -0.1672
vn 0.5886 -0.8047 -0.0776
vn 0.3696 0.7660 -0.5259
vn 0.3609 0.8802 -0.3084
vn -0.7978 0.4589 -0.3910
vn -0.8866 0.4214 -0.1907
vn 0.7548 -0.6543 -0.0459
vn 0.9658 -0.2591 0.0016
vn 0.6688 -0.7433 -0.0133
vn 0.5607 -0.8165 0.1378
vn 0.5056 -0.6900 0.5179
vn 0.1526 -0.6819 0.7154
vn 0.7625 -0.5342 0.3651
vn 0.3633 0.9193 0.1512
vn -0.9738 -0.1940 -0.1185
vn -0.9772 -0.1872 -0.0998
vn -0.9772 -0.1872 -0.1005
vn -0.8834 0.4687 0.0047
vn 0.9566 -0.2652 -0.1208
vn 0.3393 0.8584 -0.3847
vn 0.9690 -0.2312 -0.0875
vn 0.2965 0.7501 -0.5911
vn 0.9310 -0.3273 -0.1616
vn 0.2417 0.6115 -0.7534
vn 0.9399 -0.2103 -0.2691
vn -0.9032 0.3976 -0.1616
vn 0.7878 -0.6093 0.0904
vn 0.7935 -0.5902 0.1485
vn 0.8207 -0.5538 0.1407
vn -0.8794 0.4605 -0.1208
vn -0.9689 -0.1652 0.1843
vn -0.8652 0.4937 -0.0874
vn -0.9534 -0.1189 0.2772
vn -0.9449 -0.0958 0.3131
vn 0.9301 -0.3666 -0.0223
vn 0.9390 -0.3344 -0.0806
vn 0.9334 -0.3581 0.0228
vn 0.9452 -0.3248 -0.0333
vn 0.9536 -0.2674 -0.1386
vn 0.3597 0.9100 0.2062
vn 0.3616 0.9150 0.1790
vn 0.9641 -0.2652 0.0133
vn 0.9644 -0.2642 0.0115
vn 0.7916 -0.6092 -0.0477
vn 0.8809 -0.4185 0.2210
vn -0.8849 0.4656 0.0133
vn -0.8844 0.4665 0.0115
vn 0.8056 -0.5896 -0.0581
vn 0.9259 -0.3573 0.1228
vn -0.9765 -0.1854 -0.1095
vn -0.9753 -0.1817 -0.1257
vn 0.9674 -0.2528 0.0158
vn 0.9747 -0.2235 -0.0021
vn 0.3655 0.9248 0.1052
vn -0.8788 0.4769 0.0158
vn -0.8641 0.5032 -0.0021
vn 0.8057 -0.5890 -0.0628
vn 0.9443 -0.3263 0.0421
vn 0.7941 -0.6064 -0.0417
vn 0.9483 -0.3173 -0.0096
vn -0.9754 -0.1817 -0.1252
vn -0.9786 -0.1922 -0.0736
vn 0.9780 -0.2033 -0.0458
vn 0.3650 0.9234 -0.1185
vn -0.8528 0.5203 -0.0458
vn 0.7826 -0.6222 0.0225
vn 0.9462 -0.3210 -0.0402
vn -0.9789 -0.1969 0.0543
# 69 vertex normals

vt 0.8418 0.7559 0.0000
vt 0.8596 0.7708 0.0000
vt 0.8832 0.7389 0.0000
vt 0.8182 0.8018 0.0000
vt 0.8122 0.7957 0.0000
vt 0.7898 0.8409 0.0000
vt 0.7815 0.8359 0.0000
vt 0.7721 0.6570 0.0000
vt 0.7500 0.6908 0.0000
vt 0.8541 0.7115 0.0000
vt 0.9557 0.6840 0.0000
vt 0.9901 0.6117 0.0000
vt 0.9948 0.6592 0.0000
vt 0.9463 0.4800 0.0000
vt 0.7227 0.7296 0.0000
vt 0.7706 0.8799 0.0000
vt 0.7549 0.8666 0.0000
vt 0.6704 0.7994 0.0000
vt 0.6941 0.7679 0.0000
vt 0.1335 0.2255 0.0000
vt 0.1784 0.3379 0.0000
vt 0.2028 0.3103 0.0000
vt 0.1101 0.2458 0.0000
vt 0.0711 0.1362 0.0000
vt 0.0483 0.1519 0.0000
vt 0.0037 0.0434 0.0000
vt 0.0272 0.1646 0.0000
vt 0.2230 0.2900 0.0000
vt 0.1521 0.2093 0.0000
vt 0.0878 0.1223 0.0000
vt 0.0837 0.2669 0.0000
vt 0.1236 0.3759 0.0000
vt 0.1521 0.3658 0.0000
vt 0.0602 0.2746 0.0000
vt 0.0097 0.1696 0.0000
vt 0.2182 0.0453 0.0000
vt 0.3422 0.0749 0.0000
vt 0.1212 0.0112 0.0000
vt 0.0740 0.0047 0.0000
vt 0.0333 0.0162 0.0000
vt 0.5424 0.6049 0.0000
vt 0.6331 0.6659 0.0000
vt 0.5671 0.5670 0.0000
vt 0.6590 0.6282 0.0000
vt 0.6808 0.5953 0.0000
vt 0.9066 0.3557 0.0000
vt 0.5150 0.6427 0.0000
vt 0.6057 0.7042 0.0000
vt 0.5855 0.5336 0.0000
vt 0.8442 0.2600 0.0000
vt 0.5833 0.7352 0.0000
vt 0.4931 0.6719 0.0000
vt 0.4734 0.5088 0.0000
vt 0.4507 0.5451 0.0000
vt 0.3803 0.4459 0.0000
vt 0.3601 0.4815 0.0000
vt 0.4243 0.5798 0.0000
vt 0.3341 0.5138 0.0000
vt 0.4887 0.4735 0.0000
vt 0.7545 0.1850 0.0000
vt 0.3936 0.4161 0.0000
vt 0.6343 0.1281 0.0000
vt 0.4014 0.6076 0.0000
vt 0.3109 0.5381 0.0000
vt 0.2853 0.3846 0.0000
vt 0.2649 0.4173 0.0000
vt 0.2404 0.4474 0.0000
vt 0.3029 0.3601 0.0000
vt 0.4836 0.0994 0.0000
vt 0.2129 0.4647 0.0000
# 70 texture coords

o oreja_der_dumbo001
g oreja_der_dumbo001
usemtl AZNNA6USMLXOFFZNLSTOFN8QM_mat_1_texture002_jpg
s 1
f 27/27/27 28/28/28 29/29/29 
f 28/28/28 27/27/27 30/30/30 
f 31/31/31 30/30/30 27/27/27 
f 30/30/30 31/31/31 32/32/32 
f 33/33/33 32/32/32 31/31/31 
f 34/34/34 35/35/35 36/36/36 
f 27/27/27 36/36/36 35/35/35 
f 36/36/36 27/27/27 29/29/29 
f 37/37/37 36/36/36 29/29/29 
f 36/36/36 37/37/37 38/38/38 
f 39/39/39 38/38/38 37/37/37 
f 34/34/34 36/36/36 40/40/40 
f 38/38/38 40/40/40 36/36/36 
f 41/41/41 31/31/31 35/35/35 
f 27/27/27 35/35/35 31/31/31 
f 32/32/32 33/33/33 42/42/42 
f 43/43/43 42/42/42 33/33/33 
f 44/44/44 43/43/43 45/45/45 
f 33/33/33 45/45/45 43/43/43 
f 31/31/31 41/41/41 45/45/45 
f 31/31/31 45/45/45 33/33/33 
f 46/46/46 47/47/47 48/48/48 
f 47/47/47 46/46/46 49/49/49 
f 50/50/50 49/49/49 46/46/46 
f 49/49/49 50/50/50 51/51/51 
f 52/52/52 51/51/51 50/50/50 
f 51/51/51 52/52/52 53/53/53 
f 48/48/48 54/54/54 46/46/46 
f 55/55/55 46/46/46 54/54/54 
f 46/46/46 55/55/55 50/50/50 
f 56/56/56 50/50/50 55/55/55 
f 50/50/50 56/56/56 52/52/52 
f 57/57/57 58/58/58 59/59/59 
f 58/58/58 57/57/57 60/60/60 
f 53/53/53 60/60/60 57/57/57 
f 60/60/60 53/53/53 61/61/61 
f 52/52/52 61/61/61 53/53/53 
f 62/62/62 54/54/54 63/63/63 
f 54/54/54 62/62/62 55/55/55 
f 64/64/64 55/55/55 62/62/62 
f 55/55/55 64/64/64 56/56/56 
f 59/59/59 47/47/47 57/57/57 
f 49/49/49 57/57/57 47/47/47 
f 57/57/57 49/49/49 53/53/53 
f 64/64/64 65/65/65 56/56/56 
f 66/66/66 56/56/56 65/65/65 
f 56/56/56 66/66/66 52/52/52 
f 49/49/49 51/51/51 53/53/53 
f 67/67/67 68/68/68 69/69/69 
f 70/70/70 69/69/69 68/68/68 
f 69/69/69 70/70/70 71/71/71 
f 34/34/34 71/71/71 70/70/70 
f 71/71/71 34/34/34 72/72/72 
f 40/40/40 72/72/72 34/34/34 
f 67/67/67 73/73/73 68/68/68 
f 74/74/74 68/68/68 73/73/73 
f 68/68/68 74/74/74 41/41/41 
f 45/45/45 41/41/41 74/74/74 
f 68/68/68 41/41/41 70/70/70 
f 35/35/35 70/70/70 41/41/41 
f 70/70/70 35/35/35 34/34/34 
f 71/71/71 75/75/75 69/69/69 
f 75/75/75 71/71/71 76/76/76 
f 72/72/72 76/76/76 71/71/71 
f 74/74/74 73/73/73 77/77/77 
f 78/78/78 77/77/77 73/73/73 
f 77/77/77 44/44/44 74/74/74 
f 45/45/45 74/74/74 44/44/44 
f 79/79/79 67/67/67 69/69/69 
f 67/67/67 79/79/79 80/80/67 
f 81/81/80 80/80/67 79/79/79 
f 80/80/67 81/81/80 82/82/81 
f 73/73/73 67/67/67 83/83/82 
f 80/80/67 83/83/82 67/67/67 
f 83/83/82 80/80/67 84/84/83 
f 82/82/81 84/84/83 80/80/67 
f 81/81/80 79/79/79 85/85/84 
f 75/75/75 85/85/84 79/79/79 
f 85/85/84 75/75/75 86/86/85 
f 76/76/76 86/86/85 75/75/75 
f 85/85/84 87/87/86 81/81/80 
f 87/87/86 85/85/84 88/88/87 
f 86/86/85 88/88/87 85/85/84 
f 83/83/82 84/84/83 89/89/88 
f 90/90/89 89/89/88 84/84/83 
f 73/73/73 83/83/82 78/78/78 
f 89/89/88 78/78/78 83/83/82 
f 75/75/75 79/79/79 69/69/69 
f 91/91/90 82/82/81 81/81/80 
f 82/82/81 91/91/90 92/92/91 
f 48/48/48 92/92/91 91/91/90 
f 92/92/91 48/48/48 47/47/47 
f 84/84/83 82/82/81 93/93/92 
f 92/92/91 93/93/92 82/82/81 
f 93/93/92 92/92/91 59/59/59 
f 47/47/47 59/59/59 92/92/91 
f 54/54/54 48/48/48 94/94/93 
f 91/91/90 94/94/93 48/48/48 
f 94/94/93 91/91/90 87/87/86 
f 81/81/80 87/87/86 91/91/90 
f 54/54/54 94/94/93 63/63/63 
f 95/95/94 63/63/63 94/94/93 
f 93/93/92 59/59/59 96/96/95 
f 58/58/58 96/96/95 59/59/59 
f 94/94/93 87/87/86 95/95/94 
f 88/88/87 95/95/94 87/87/86 
f 84/84/83 93/93/92 90/90/89 
f 96/96/95 90/90/89 93/93/92 
# 108 faces

