# 3ds Max Wavefront OBJ Exporter v0.99 - (c)2007 guruware
# File Created: 30.10.2024 13:12:33

mtllib oreja_izq_dumbo.mtl

#
# object oreja_izq_dumbo
#

v  0.2055 -0.2767 -0.4522
v  0.2597 -0.2097 -0.4791
v  0.2203 -0.2390 -0.4849
v  0.3157 -0.1579 -0.4508
v  0.2130 -0.3709 -0.3385
v  0.3227 -0.1395 -0.3371
v  0.3143 -0.1599 -0.4717
v  0.3038 -0.1797 0.5149
v  0.2786 -0.2770 0.5898
v  0.2809 -0.2532 0.6051
v  0.2766 -0.2947 0.5552
v  0.2743 -0.2993 0.5145
v  0.3278 -0.1164 0.4288
v  0.2728 -0.2956 0.4281
v  0.2177 -0.4466 -0.2236
v  0.3291 -0.1202 -0.2222
v  0.2279 -0.4793 -0.1092
v  0.3374 -0.0972 -0.1079
v  0.2398 -0.4725 0.0044
v  0.3465 -0.0715 0.0058
v  0.2507 -0.4341 0.1168
v  0.3546 -0.0491 0.1181
v  0.2686 -0.3690 0.2276
v  0.3558 -0.0448 0.2287
v  0.2755 -0.3196 0.3315
v  0.3455 -0.0699 0.3324
# 26 vertices

vn -0.6324 0.6045 0.4844
vn -0.6985 0.6761 0.2345
vn -0.5617 0.6568 0.5030
vn -0.7907 0.6044 0.0969
vn -0.8391 0.4507 0.3047
vn -0.9240 0.3813 0.0279
vn -0.6728 0.7395 -0.0240
vn -0.9697 0.2318 -0.0773
vn -0.9781 0.1920 -0.0807
vn -0.9794 0.1678 -0.1126
vn -0.9740 0.2263 -0.0133
vn -0.9656 0.2600 0.0109
vn -0.9580 0.2845 -0.0353
vn -0.9585 0.2836 -0.0296
vn -0.9211 0.3420 0.1860
vn -0.9535 0.3006 0.0228
vn -0.9505 0.2908 0.1099
vn -0.9635 0.2665 0.0230
vn -0.9631 0.2655 0.0443
vn -0.9658 0.2587 0.0172
vn -0.9659 0.2587 0.0058
vn -0.9655 0.2603 0.0087
vn -0.9653 0.2603 -0.0187
vn -0.9645 0.2634 -0.0172
vn -0.9618 0.2646 -0.0698
vn -0.9605 0.2756 -0.0396
# 26 vertex normals

vt 0.0468 0.9369 0.0000
vt 0.1185 0.9844 0.0000
vt 0.0717 0.9798 0.0000
vt 0.1957 0.9776 0.0000
vt 0.0226 0.7982 0.0000
vt 0.2512 0.8828 0.0000
vt 0.1882 0.9962 0.0000
vt 0.5156 0.1141 0.0000
vt 0.4536 0.0121 0.0000
vt 0.4801 0.0069 0.0000
vt 0.4256 0.0363 0.0000
vt 0.4067 0.0705 0.0000
vt 0.5441 0.2143 0.0000
vt 0.3785 0.1479 0.0000
vt 0.0038 0.6685 0.0000
vt 0.3096 0.7883 0.0000
vt 0.0200 0.5560 0.0000
vt 0.3717 0.6959 0.0000
vt 0.0692 0.4588 0.0000
vt 0.4361 0.6052 0.0000
vt 0.1444 0.3738 0.0000
vt 0.4971 0.5145 0.0000
vt 0.2434 0.2999 0.0000
vt 0.5404 0.4184 0.0000
vt 0.3243 0.2256 0.0000
vt 0.5535 0.3172 0.0000
# 26 texture coords

o oreja_izq_dumbo
g oreja_izq_dumbo
usemtl 08___Default
s 1
f 1/1/1 2/2/2 3/3/3 
f 2/2/2 1/1/1 4/4/4 
f 5/5/5 4/4/4 1/1/1 
f 4/4/4 5/5/5 6/6/6 
f 4/4/4 7/7/7 2/2/2 
f 8/8/8 9/9/9 10/10/10 
f 9/9/9 8/8/8 11/11/11 
f 12/12/12 11/11/11 8/8/8 
f 8/8/8 13/13/13 12/12/12 
f 14/14/14 12/12/12 13/13/13 
f 15/15/15 6/6/6 5/5/5 
f 6/6/6 15/15/15 16/16/16 
f 17/17/17 16/16/16 15/15/15 
f 17/17/17 18/18/18 16/16/16 
f 18/18/18 19/19/19 20/20/20 
f 21/21/21 20/20/20 19/19/19 
f 20/20/20 21/21/21 22/22/22 
f 17/17/17 19/19/19 18/18/18 
f 23/23/23 22/22/22 21/21/21 
f 22/22/22 23/23/23 24/24/24 
f 25/25/25 24/24/24 23/23/23 
f 24/24/24 25/25/25 26/26/26 
f 25/25/25 14/14/14 26/26/26 
f 13/13/13 26/26/26 14/14/14 
# 24 faces

#
# object oreja_izq_dumbo001
#

v  0.3574 -0.0922 -0.4715
v  0.3560 -0.0972 -0.4641
v  0.3780 -0.1447 -0.4568
v  0.3806 -0.1272 -0.3421
v  0.3434 -0.1689 -0.4359
v  0.3486 -0.1498 -0.3368
v  0.2130 -0.3709 -0.3385
v  0.3157 -0.1579 -0.4508
v  0.3072 -0.1168 -0.4577
v  0.3143 -0.1599 -0.4717
v  0.3148 -0.1012 -0.3430
v  0.3227 -0.1395 -0.3371
v  0.3045 -0.1143 -0.4668
v  0.3602 -0.0829 -0.3484
v  0.3448 -0.1719 -0.4770
v  0.2676 -0.2276 -0.4850
v  0.3821 -0.1449 -0.4786
v  0.2203 -0.2390 -0.4849
v  0.2055 -0.2767 -0.4522
v  0.2766 -0.2947 0.5552
v  0.2743 -0.2993 0.5145
v  0.3163 -0.1846 0.5151
v  0.3440 -0.1229 0.4290
v  0.3302 -0.1772 0.5263
v  0.3630 -0.1110 0.4400
v  0.3491 -0.0856 0.4510
v  0.3729 -0.0287 0.3468
v  0.2728 -0.2956 0.4281
v  0.3649 -0.0776 0.3326
v  0.3885 -0.0613 0.3399
v  0.2786 -0.2770 0.5898
v  0.2809 -0.2532 0.6051
v  0.3188 -0.1594 0.5376
v  0.2985 -0.1647 0.5259
v  0.3218 -0.0947 0.4395
v  0.3278 -0.1164 0.4288
v  0.3455 -0.0699 0.3324
v  0.3038 -0.1797 0.5149
v  0.3393 -0.0418 0.3392
v  0.2755 -0.3196 0.3315
v  0.2177 -0.4466 -0.2236
v  0.3546 -0.1302 -0.2219
v  0.3862 -0.1081 -0.2279
v  0.3918 -0.0859 -0.1142
v  0.3660 -0.0646 -0.2347
v  0.3725 -0.0446 -0.1217
v  0.3299 -0.0615 -0.1150
v  0.3213 -0.0825 -0.2287
v  0.3291 -0.1202 -0.2222
v  0.2279 -0.4793 -0.1092
v  0.3617 -0.1068 -0.1076
v  0.3374 -0.0972 -0.1079
v  0.2507 -0.4341 0.1168
v  0.2398 -0.4725 0.0044
v  0.3703 -0.0808 0.0061
v  0.3995 -0.0606 -0.0014
v  0.3772 -0.0580 0.1183
v  0.4050 -0.0386 0.1122
v  0.3806 -0.0205 -0.0097
v  0.3871 -0.0002 0.1054
v  0.3477 -0.0159 0.1115
v  0.3391 -0.0368 -0.0022
v  0.3465 -0.0715 0.0058
v  0.3546 -0.0491 0.1181
v  0.2686 -0.3690 0.2276
v  0.3768 -0.0531 0.2290
v  0.4029 -0.0345 0.2283
v  0.3864 0.0018 0.2270
v  0.3495 -0.0134 0.2276
v  0.3558 -0.0448 0.2287
# 70 vertices

vn 0.3630 0.7660 0.5305
vn 0.3569 0.8802 0.3130
vn 0.9538 -0.2835 0.0997
vn 0.9658 -0.2592 0.0106
vn 0.6686 -0.7433 0.0217
vn 0.7542 -0.6543 0.0553
vn 0.7670 -0.5342 -0.3555
vn -0.9784 -0.1872 0.0876
vn -0.8889 0.4214 0.1796
vn -0.9752 -0.1940 0.1063
vn -0.8832 0.4687 -0.0158
vn -0.9783 -0.1872 0.0882
vn -0.8027 0.4589 0.3810
vn 0.3652 0.9193 -0.1466
vn 0.5875 -0.8047 0.0850
vn 0.5623 -0.8165 -0.1308
vn 0.9480 -0.2630 0.1791
vn 0.1616 -0.6819 -0.7134
vn 0.5120 -0.6900 -0.5115
vn 0.9447 -0.3248 0.0451
vn 0.9336 -0.3581 -0.0111
vn 0.8224 -0.5538 -0.1304
vn 0.7953 -0.5902 -0.1386
vn 0.9289 -0.3273 0.1732
vn 0.9550 -0.2652 0.1328
vn 0.2890 0.7501 0.5948
vn 0.3344 0.8584 0.3889
vn 0.9298 -0.3666 0.0340
vn 0.7888 -0.6093 -0.0806
vn 0.9678 -0.2312 0.0996
vn 0.9517 -0.2674 0.1506
vn 0.9364 -0.2103 0.2809
vn 0.2322 0.6115 0.7564
vn -0.9052 0.3976 0.1502
vn -0.8809 0.4605 0.1098
vn -0.9499 -0.1189 -0.2892
vn -0.9665 -0.1652 -0.1965
vn -0.9409 -0.0958 -0.3250
vn -0.8662 0.4937 0.0766
vn 0.9379 -0.3344 0.0924
vn 0.8836 -0.4185 -0.2099
vn 0.7909 -0.6092 0.0577
vn 0.9645 -0.2642 0.0006
vn 0.9642 -0.2652 -0.0012
vn 0.3639 0.9150 -0.1745
vn 0.3622 0.9100 -0.2017
vn -0.8847 0.4656 -0.0244
vn -0.8842 0.4665 -0.0226
vn -0.9778 -0.1854 0.0972
vn 0.9273 -0.3573 -0.1111
vn 0.8048 -0.5896 0.0683
vn -0.9768 -0.1818 0.1135
vn 0.9481 -0.3173 0.0215
vn 0.9448 -0.3263 -0.0303
vn 0.8048 -0.5890 0.0729
vn 0.9675 -0.2528 -0.0036
vn 0.7935 -0.6064 0.0517
vn 0.9746 -0.2235 0.0143
vn 0.3622 0.9100 -0.2016
vn 0.3668 0.9248 -0.1006
vn -0.8641 0.5033 -0.0088
vn -0.8786 0.4769 -0.0268
vn -0.9768 -0.1817 0.1130
vn -0.9794 -0.1922 0.0613
vn 0.9456 -0.3210 0.0521
vn 0.7828 -0.6222 -0.0127
vn 0.9774 -0.2033 0.0580
vn 0.3635 0.9234 0.1231
vn -0.8533 0.5203 0.0350
vn -0.9782 -0.1969 -0.0666
# 70 vertex normals

vt 0.8182 0.8018 0.0000
vt 0.8122 0.7957 0.0000
vt 0.8418 0.7559 0.0000
vt 0.7500 0.6908 0.0000
vt 0.8541 0.7115 0.0000
vt 0.7721 0.6570 0.0000
vt 0.9463 0.4800 0.0000
vt 0.7549 0.8666 0.0000
vt 0.7815 0.8359 0.0000
vt 0.7706 0.8799 0.0000
vt 0.6941 0.7679 0.0000
vt 0.6704 0.7994 0.0000
vt 0.7898 0.8409 0.0000
vt 0.7227 0.7296 0.0000
vt 0.8832 0.7389 0.0000
vt 0.9557 0.6840 0.0000
vt 0.8596 0.7708 0.0000
vt 0.9948 0.6592 0.0000
vt 0.9901 0.6117 0.0000
vt 0.0740 0.0047 0.0000
vt 0.1212 0.0112 0.0000
vt 0.0878 0.1223 0.0000
vt 0.1521 0.2093 0.0000
vt 0.0711 0.1362 0.0000
vt 0.1335 0.2255 0.0000
vt 0.1101 0.2458 0.0000
vt 0.1784 0.3379 0.0000
vt 0.2182 0.0453 0.0000
vt 0.2230 0.2900 0.0000
vt 0.2028 0.3103 0.0000
vt 0.0333 0.0162 0.0000
vt 0.0037 0.0434 0.0000
vt 0.0483 0.1519 0.0000
vt 0.0272 0.1646 0.0000
vt 0.0837 0.2669 0.0000
vt 0.0602 0.2746 0.0000
vt 0.1236 0.3759 0.0000
vt 0.0097 0.1696 0.0000
vt 0.1521 0.3658 0.0000
vt 0.3422 0.0749 0.0000
vt 0.9066 0.3557 0.0000
vt 0.6808 0.5953 0.0000
vt 0.6590 0.6282 0.0000
vt 0.5671 0.5670 0.0000
vt 0.6331 0.6659 0.0000
vt 0.5424 0.6049 0.0000
vt 0.5150 0.6427 0.0000
vt 0.6057 0.7042 0.0000
vt 0.5833 0.7352 0.0000
vt 0.8442 0.2600 0.0000
vt 0.5855 0.5336 0.0000
vt 0.4931 0.6719 0.0000
vt 0.6343 0.1281 0.0000
vt 0.7545 0.1850 0.0000
vt 0.4887 0.4735 0.0000
vt 0.4734 0.5088 0.0000
vt 0.3936 0.4161 0.0000
vt 0.3803 0.4459 0.0000
vt 0.4507 0.5451 0.0000
vt 0.3601 0.4815 0.0000
vt 0.3341 0.5138 0.0000
vt 0.4243 0.5798 0.0000
vt 0.4014 0.6076 0.0000
vt 0.3109 0.5381 0.0000
vt 0.4836 0.0994 0.0000
vt 0.3029 0.3601 0.0000
vt 0.2853 0.3846 0.0000
vt 0.2649 0.4173 0.0000
vt 0.2404 0.4474 0.0000
vt 0.2129 0.4647 0.0000
# 70 texture coords

o oreja_izq_dumbo001
g oreja_izq_dumbo001
usemtl AZNNA6USMLXOFFZNLSTOFN8QM_mat_1_texture002_jpg
s 1
f 27/27/27 28/28/28 29/29/29 
f 30/30/30 29/29/29 28/28/28 
f 29/29/29 30/30/30 31/31/31 
f 32/32/32 31/31/31 30/30/30 
f 31/31/31 32/32/32 33/33/33 
f 34/34/34 35/35/35 36/36/36 
f 35/35/35 34/34/34 37/37/37 
f 38/38/38 37/37/37 34/34/34 
f 39/39/39 35/35/35 28/28/28 
f 37/37/37 28/28/28 35/35/35 
f 28/28/28 37/37/37 40/40/40 
f 41/41/41 31/31/31 42/42/42 
f 31/31/31 41/41/41 29/29/29 
f 43/43/43 29/29/29 41/41/41 
f 44/44/44 42/42/42 45/45/45 
f 31/31/31 45/45/45 42/42/42 
f 45/45/45 31/31/31 33/33/33 
f 36/36/36 35/35/35 39/39/39 
f 39/39/39 28/28/28 27/27/27 
f 27/27/27 29/29/29 43/43/43 
f 28/28/28 40/40/40 30/30/30 
f 46/46/46 47/47/47 48/48/48 
f 49/49/49 48/48/48 47/47/47 
f 48/48/48 49/49/49 50/50/50 
f 51/51/51 50/50/50 49/49/49 
f 50/50/50 51/51/51 52/52/52 
f 53/53/53 52/52/52 51/51/51 
f 47/47/47 54/54/54 49/49/49 
f 55/55/55 49/49/49 54/54/54 
f 49/49/49 55/55/55 51/51/51 
f 56/56/56 51/51/51 55/55/55 
f 51/51/51 56/56/56 53/53/53 
f 57/57/57 48/48/48 58/58/58 
f 50/50/50 58/58/58 48/48/48 
f 58/58/58 50/50/50 59/59/59 
f 52/52/52 59/59/59 50/50/50 
f 59/59/59 52/52/52 60/60/60 
f 61/61/61 60/60/60 52/52/52 
f 60/60/60 61/61/61 62/62/62 
f 63/63/63 62/62/62 61/61/61 
f 58/58/58 60/60/60 64/64/64 
f 62/62/62 64/64/64 60/60/60 
f 52/52/52 53/53/53 61/61/61 
f 65/65/65 61/61/61 53/53/53 
f 48/48/48 57/57/57 46/46/46 
f 60/60/60 58/58/58 59/59/59 
f 55/55/55 54/54/54 66/66/66 
f 63/63/63 61/61/61 65/65/65 
f 32/32/32 67/67/67 33/33/33 
f 67/67/67 32/32/32 68/68/68 
f 69/69/69 68/68/68 32/32/32 
f 68/68/68 69/69/69 70/70/70 
f 71/71/71 70/70/70 69/69/69 
f 72/72/72 71/71/71 73/73/73 
f 74/74/74 73/73/73 71/71/71 
f 73/73/73 74/74/74 75/75/75 
f 38/38/38 75/75/75 74/74/74 
f 68/68/68 76/76/76 67/67/67 
f 76/76/76 68/68/68 77/77/77 
f 70/70/70 77/77/77 68/68/68 
f 74/74/74 37/37/37 38/38/38 
f 37/37/37 74/74/74 40/40/40 
f 71/71/71 40/40/40 74/74/74 
f 32/32/32 30/30/30 69/69/69 
f 40/40/40 69/69/69 30/30/30 
f 75/75/75 78/78/78 73/73/73 
f 71/71/71 72/72/72 70/70/70 
f 40/40/40 71/71/71 69/69/69 
f 79/79/79 80/80/80 81/81/81 
f 77/77/77 81/81/81 80/80/80 
f 81/81/81 77/77/77 82/82/82 
f 70/70/70 82/82/82 77/77/77 
f 82/82/82 70/70/70 72/72/72 
f 81/81/81 83/83/83 79/79/79 
f 83/83/83 81/81/81 84/84/84 
f 82/82/82 84/84/84 81/81/81 
f 84/84/84 82/82/82 85/85/85 
f 72/72/72 85/85/85 82/82/82 
f 86/86/86 85/85/85 87/87/87 
f 88/88/88 87/87/87 85/85/85 
f 87/87/87 88/88/88 89/89/89 
f 78/78/78 89/89/89 88/88/88 
f 85/85/85 72/72/72 88/88/88 
f 73/73/73 88/88/88 72/72/72 
f 88/88/88 73/73/73 78/78/78 
f 80/80/80 76/76/76 77/77/77 
f 89/89/89 90/90/90 87/87/87 
f 85/85/85 86/86/86 84/84/84 
f 66/66/66 91/91/91 92/92/92 
f 83/83/83 92/92/92 91/91/91 
f 92/92/92 83/83/83 93/93/93 
f 84/84/84 93/93/93 83/83/83 
f 93/93/93 84/84/84 86/86/86 
f 92/92/92 55/55/55 66/66/66 
f 55/55/55 92/92/92 56/56/56 
f 93/93/93 56/56/56 92/92/92 
f 56/56/56 93/93/93 94/94/94 
f 86/86/86 94/94/94 93/93/93 
f 53/53/53 94/94/94 65/65/65 
f 95/95/95 65/65/65 94/94/94 
f 65/65/65 95/95/95 96/96/96 
f 90/90/90 96/96/96 95/95/95 
f 94/94/94 86/86/86 95/95/95 
f 87/87/87 95/95/95 86/86/86 
f 83/83/83 91/91/91 79/79/79 
f 96/96/96 63/63/63 65/65/65 
f 94/94/94 53/53/53 56/56/56 
f 90/90/90 95/95/95 87/87/87 
# 108 faces

