# 3ds Max Wavefront OBJ Exporter v0.99 - (c)2007 guruware
# File Created: 30.10.2024 13:15:43

mtllib pata_izq_dumbo.mtl

#
# object pata_izq_dumbo002
#

v  0.0827 -0.2516 0.0531
v  0.0102 -0.2486 0.0403
v  0.1482 -0.2543 0.0311
v  0.1741 -0.2553 -0.0005
v  0.0827 -0.2516 -0.1173
v  0.1482 -0.2543 -0.0953
v  0.0102 -0.2486 -0.1045
v  0.1741 -0.2553 -0.0637
v  -0.0508 -0.2461 -0.0321
v  0.1821 -0.2557 -0.0321
v  -0.0383 -0.2466 0.0047
v  -0.0383 -0.2466 -0.0689
# 12 vertices

vn -0.0410 -0.9992 -0.0000
# 1 vertex normals

vt 0.2171 0.1129 0.0000
vt 0.1341 0.0988 0.0000
vt 0.2919 0.0874 0.0000
vt 0.3213 0.0512 0.0000
vt 0.0640 0.0164 0.0000
vt 0.3303 0.0150 0.0000
vt 0.0785 0.0583 0.0000
# 7 texture coords

o pata_izq_dumbo002
g pata_izq_dumbo002
usemtl 08___Default
s 1
f 1/1/1 2/2/1 3/3/1 
f 4/4/1 3/3/1 2/2/1 
f 5/1/1 6/3/1 7/2/1 
f 8/4/1 7/2/1 6/3/1 
f 4/4/1 9/5/1 10/6/1 
f 8/4/1 10/6/1 9/5/1 
f 9/5/1 4/4/1 11/7/1 
f 2/2/1 11/7/1 4/4/1 
f 9/5/1 12/7/1 8/4/1 
f 7/2/1 8/4/1 12/7/1 
# 10 faces

#
# object pata_izq_dumbo003
#

v  -0.0213 -0.1886 -0.0321
v  0.0243 -0.1656 -0.0321
v  -0.0095 -0.1907 -0.0710
v  0.0468 -0.1713 -0.0879
v  0.0251 -0.1936 -0.0976
v  0.0907 -0.2037 -0.1114
v  0.0836 -0.2289 -0.1198
v  0.1514 -0.2347 -0.0971
v  0.1482 -0.2543 -0.0953
v  0.1741 -0.2553 -0.0637
v  -0.0095 -0.1907 0.0068
v  0.0468 -0.1713 0.0237
v  0.0251 -0.1936 0.0333
v  0.0907 -0.2037 0.0472
v  0.0836 -0.2289 0.0556
v  0.1514 -0.2347 0.0329
v  0.1482 -0.2543 0.0311
v  0.1741 -0.2553 -0.0005
v  0.1783 -0.2365 0.0004
v  0.1821 -0.2557 -0.0321
v  0.1503 -0.2137 0.0277
v  0.0980 -0.1834 0.0382
v  0.1503 -0.2137 -0.0919
v  0.1783 -0.2365 -0.0646
v  0.0980 -0.1834 -0.1024
v  0.1514 -0.1960 -0.0825
v  0.1750 -0.2163 -0.0620
v  0.1821 -0.2181 -0.0321
v  0.1730 -0.2012 -0.0321
v  0.1750 -0.2163 -0.0022
v  0.1514 -0.1960 0.0183
v  0.1858 -0.2374 -0.0321
v  -0.0508 -0.2461 -0.0321
v  -0.0383 -0.2466 0.0047
v  -0.0402 -0.2201 0.0057
v  0.0099 -0.2228 0.0424
v  -0.0530 -0.2190 -0.0321
v  -0.0402 -0.2201 -0.0699
v  -0.0383 -0.2466 -0.0689
v  0.0099 -0.2228 -0.1066
v  0.0102 -0.2486 0.0403
v  0.0102 -0.2486 -0.1045
v  0.0827 -0.2516 0.0531
v  0.0827 -0.2516 -0.1173
v  0.1011 -0.1704 -0.1018
v  0.0997 -0.1341 -0.1045
v  0.1507 -0.1348 -0.0824
v  0.0946 -0.0743 -0.1184
v  0.1554 -0.0713 -0.0863
v  0.1660 -0.0573 -0.0852
v  0.1799 -0.0723 -0.0320
v  0.1895 -0.0544 -0.0306
v  0.1648 -0.0565 0.0233
v  0.2040 -0.0331 -0.0204
v  0.1603 -0.0312 0.0597
v  0.2263 0.0305 0.0020
v  0.1554 -0.0713 0.0221
v  0.1507 -0.1348 0.0182
v  0.0952 -0.0845 0.0481
v  0.0893 -0.0385 0.0902
v  0.1825 0.0361 0.0828
v  0.2356 0.0917 0.0175
v  0.1963 0.0760 -0.0831
v  -0.0019 -0.0589 0.0523
v  -0.0419 0.0107 0.0916
v  0.0855 0.0421 0.1304
v  -0.0608 0.0906 0.1204
v  0.0937 0.1380 0.1493
v  -0.0322 0.1886 0.1382
v  0.1189 0.2514 0.1372
v  0.0331 -0.0791 -0.0873
v  0.0495 -0.1270 -0.0811
v  0.0950 -0.0341 -0.1377
v  -0.0003 -0.0600 -0.0955
v  -0.0334 0.0099 -0.0916
v  -0.0610 -0.0010 -0.0080
v  -0.0456 0.0859 -0.0908
v  0.1870 -0.0331 -0.0842
v  0.1940 0.0253 -0.0829
v  0.0960 0.0801 -0.1409
v  0.1011 -0.1704 0.0376
v  0.0997 -0.1341 0.0403
v  0.0495 -0.1270 0.0169
v  0.0331 -0.0791 0.0231
v  0.0283 -0.1255 -0.0321
v  0.0098 -0.0820 -0.0321
v  -0.0213 -0.0644 -0.0256
v  0.1948 0.1114 0.0959
v  0.2118 0.1907 0.0872
v  0.1512 -0.1822 -0.0793
v  0.1720 -0.1371 -0.0321
v  -0.0822 0.0783 0.0109
v  0.0933 0.0151 -0.1409
v  0.0521 -0.1593 -0.0800
v  0.0321 -0.1537 -0.0321
v  0.1714 -0.1871 -0.0321
v  0.1512 -0.1822 0.0151
v  0.0521 -0.1593 0.0158
v  -0.0638 0.1582 0.1337
v  0.1246 0.0894 0.0352
# 100 vertices

vn -0.5946 0.8040 0.0000
vn -0.4164 0.9092 -0.0000
vn -0.5268 0.7212 -0.4498
vn -0.2624 0.6653 -0.6989
vn -0.3110 0.5180 -0.7968
vn 0.0958 0.3368 -0.9367
vn 0.0640 0.0937 -0.9935
vn 0.5693 0.0237 -0.8218
vn 0.5459 -0.1654 -0.8214
vn 0.8663 -0.2143 -0.4513
vn -0.5268 0.7212 0.4498
vn -0.2624 0.6653 0.6989
vn -0.3110 0.5180 0.7968
vn 0.0958 0.3367 0.9367
vn 0.0640 0.0937 0.9935
vn 0.5693 0.0237 0.8218
vn 0.5459 -0.1654 0.8214
vn 0.8663 -0.2143 0.4513
vn 0.8959 -0.0078 0.4442
vn 0.9780 -0.2084 0.0000
vn 0.5647 0.2812 0.7759
vn 0.1250 0.3811 0.9161
vn 0.5647 0.2812 -0.7759
vn 0.8959 -0.0078 -0.4442
vn 0.1250 0.3810 -0.9161
vn 0.6269 0.4094 -0.6628
vn 0.8518 0.3627 -0.3780
vn 0.9462 0.3235 0.0000
vn 0.8428 0.5383 0.0000
vn 0.8518 0.3627 0.3780
vn 0.6269 0.4094 0.6628
vn 1.0000 -0.0089 0.0000
vn -0.9965 -0.0836 0.0000
vn -0.8005 -0.0820 0.5937
vn -0.7855 0.2889 0.5473
vn -0.3946 0.1856 0.8999
vn -0.9421 0.3353 0.0000
vn -0.7855 0.2888 -0.5473
vn -0.8005 -0.0820 -0.5937
vn -0.3946 0.1856 -0.8999
vn -0.3950 -0.0806 0.9151
vn -0.3950 -0.0806 -0.9151
vn 0.0710 -0.1115 0.9912
vn 0.0710 -0.1115 -0.9912
vn 0.3789 -0.0307 -0.9249
vn 0.3938 -0.1196 -0.9114
vn 0.7076 -0.0821 -0.7019
vn 0.4532 -0.2661 -0.8507
vn 0.6670 -0.2604 -0.6981
vn 0.6428 -0.4809 -0.5962
vn 0.9469 -0.3214 -0.0032
vn 0.8423 -0.5390 -0.0027
vn 0.6671 -0.5459 0.5068
vn 0.8894 -0.4501 0.0798
vn 0.5479 -0.5582 0.6230
vn 0.9659 -0.2472 0.0774
vn 0.6594 -0.2917 0.6929
vn 0.7017 -0.0732 0.7087
vn 0.0411 -0.4345 0.8997
vn 0.1051 -0.5826 0.8059
vn 0.6403 -0.3274 0.6948
vn 0.9559 0.2141 0.2012
vn 0.6131 0.5733 -0.5436
vn -0.4371 -0.7561 0.4872
vn -0.6220 -0.4832 0.6162
vn 0.1173 -0.3239 0.9388
vn -0.6684 -0.2447 0.7024
vn 0.1672 -0.0739 0.9831
vn -0.0800 -0.0774 0.9938
vn 0.2605 0.0457 0.9644
vn -0.5033 -0.5745 -0.6455
vn -0.4086 -0.3301 -0.8509
vn -0.7017 -0.2094 -0.6810
vn -0.3548 -0.2431 -0.9028
vn -0.5516 -0.5515 -0.6258
vn -0.7115 -0.1899 -0.6765
vn -0.9220 -0.3836 -0.0530
vn -0.5691 0.5264 -0.6317
vn 0.7496 -0.3137 -0.5829
vn 0.7660 -0.0578 -0.6403
vn 0.4591 0.4575 -0.7615
vn 0.0225 -0.0022 0.9997
vn -0.0129 -0.1130 0.9935
vn -0.6960 -0.2004 0.6895
vn -0.4588 -0.6998 0.5475
vn -0.9628 -0.2702 0.0000
vn -0.6997 -0.7141 -0.0211
vn -0.7112 -0.7024 -0.0296
vn 0.6635 -0.1485 0.7333
vn 0.6122 -0.0462 0.7893
vn 0.7376 0.0713 -0.6715
vn 0.9978 -0.0664 -0.0002
vn -0.9904 0.0934 -0.1022
vn 0.4926 -0.2001 -0.8470
vn 0.5013 -0.0310 -0.8647
vn -0.3611 -0.0276 -0.9321
vn -0.2460 0.6455 -0.7230
vn -0.6417 0.2824 -0.7131
vn -0.9728 0.2318 0.0000
vn -0.4324 -0.1528 -0.8887
vn 0.9986 0.0528 -0.0000
vn 0.7376 0.0713 0.6715
vn -0.6417 0.2824 0.7131
vn -0.4015 0.0318 -0.9153
vn -0.3372 0.2126 -0.9171
vn -0.3971 0.6187 -0.6779
vn -0.8353 0.5497 -0.0000
vn -0.3971 0.6187 0.6778
vn 0.9941 0.1081 0.0000
vn 0.7226 0.1435 -0.6762
vn 0.3400 -0.0414 -0.9395
vn 0.7226 0.1435 0.6762
vn -0.0006 0.0926 0.9957
vn -0.3424 0.2526 0.9049
vn 0.1251 0.9726 -0.1958
vn 0.0114 0.9943 -0.1059
# 116 vertex normals

vt 0.6392 0.6768 0.0000
vt 0.6998 0.7145 0.0000
vt 0.6778 0.6448 0.0000
vt 0.7565 0.6576 0.0000
vt 0.7298 0.6267 0.0000
vt 0.8151 0.6067 0.0000
vt 0.8045 0.5729 0.0000
vt 0.8950 0.5682 0.0000
vt 0.8944 0.5433 0.0000
vt 0.9494 0.5459 0.0000
vt 0.9488 0.5703 0.0000
vt 0.9921 0.5497 0.0000
vt 0.8967 0.5954 0.0000
vt 0.8277 0.6354 0.0000
vt 0.9061 0.6209 0.0000
vt 0.9476 0.5958 0.0000
vt 0.9877 0.5976 0.0000
vt 0.9813 0.6221 0.0000
vt 0.9909 0.5731 0.0000
vt 0.5802 0.5975 0.0000
vt 0.6280 0.5768 0.0000
vt 0.6374 0.6088 0.0000
vt 0.7112 0.5865 0.0000
vt 0.5944 0.6329 0.0000
vt 0.7065 0.5527 0.0000
vt 0.8037 0.5439 0.0000
vt 0.8245 0.0167 0.0000
vt 0.8441 0.0423 0.0000
vt 0.7967 0.0704 0.0000
vt 0.8844 0.0808 0.0000
vt 0.8255 0.1198 0.0000
vt 0.8314 0.1368 0.0000
vt 0.7673 0.1489 0.0000
vt 0.7782 0.1671 0.0000
vt 0.7172 0.1836 0.0000
vt 0.7873 0.1906 0.0000
vt 0.7110 0.2243 0.0000
vt 0.8113 0.2537 0.0000
vt 0.7055 0.1681 0.0000
vt 0.6886 0.1126 0.0000
vt 0.6300 0.1735 0.0000
vt 0.6379 0.2342 0.0000
vt 0.7369 0.2877 0.0000
vt 0.8304 0.3159 0.0000
vt 0.8991 0.2451 0.0000
vt 0.5423 0.2144 0.0000
vt 0.5274 0.2950 0.0000
vt 0.6454 0.3190 0.0000
vt 0.5080 0.3739 0.0000
vt 0.6597 0.4060 0.0000
vt 0.5386 0.4615 0.0000
vt 0.6951 0.5037 0.0000
vt 0.4283 0.1178 0.0000
vt 0.3787 0.0801 0.0000
vt 0.4569 0.0757 0.0000
vt 0.3264 0.1073 0.0000
vt 0.4118 0.1507 0.0000
vt 0.3776 0.2126 0.0000
vt 0.4510 0.2446 0.0000
vt 0.3502 0.2693 0.0000
vt 0.8454 0.1627 0.0000
vt 0.8777 0.2068 0.0000
vt 0.9944 0.2090 0.0000
vt 0.6274 0.0931 0.0000
vt 0.6275 0.1257 0.0000
vt 0.5662 0.1281 0.0000
vt 0.5553 0.1724 0.0000
vt 0.5054 0.1066 0.0000
vt 0.4859 0.1449 0.0000
vt 0.4761 0.1792 0.0000
vt 0.7592 0.3582 0.0000
vt 0.7877 0.4293 0.0000
vt 0.7735 0.0337 0.0000
vt 0.7418 0.0922 0.0000
vt 0.4291 0.3145 0.0000
vt 0.9209 0.1090 0.0000
vt 0.9616 0.1470 0.0000
vt 0.2788 0.1538 0.0000
vt 0.2346 0.2220 0.0000
vt 0.4746 0.0516 0.0000
vt 0.5164 0.0839 0.0000
vt 0.4196 0.0389 0.0000
vt 0.7244 0.0509 0.0000
vt 0.6783 0.0709 0.0000
vt 0.5708 0.0991 0.0000
vt 0.4396 0.0131 0.0000
vt 0.4484 0.0052 0.0000
vt 0.4811 0.0403 0.0000
vt 0.5225 0.0741 0.0000
vt 0.5740 0.0870 0.0000
vt 0.7203 0.0395 0.0000
vt 0.7690 0.0217 0.0000
vt 0.8210 0.0058 0.0000
vt 0.6737 0.0590 0.0000
vt 0.6239 0.0819 0.0000
vt 0.4677 0.4415 0.0000
vt 0.2282 0.4043 0.0000
vt 0.9271 0.3635 0.0000
# 98 texture coords

o pata_izq_dumbo003
g pata_izq_dumbo003
usemtl 07___Default
s 1
f 13/8/2 14/9/3 15/10/4 
f 16/11/5 15/10/4 14/9/3 
f 15/10/4 16/11/5 17/12/6 
f 18/13/7 17/12/6 16/11/5 
f 17/12/6 18/13/7 19/14/8 
f 20/15/9 19/14/8 18/13/7 
f 19/14/8 20/15/9 21/16/10 
f 22/17/11 21/16/10 20/15/9 
f 23/10/12 14/9/3 13/8/2 
f 14/9/3 23/10/12 24/11/13 
f 25/12/14 24/11/13 23/10/12 
f 24/11/13 25/12/14 26/13/15 
f 27/14/16 26/13/15 25/12/14 
f 26/13/15 27/14/16 28/15/17 
f 29/16/18 28/15/17 27/14/16 
f 28/15/17 29/16/18 30/17/19 
f 31/18/20 30/17/19 32/19/21 
f 30/17/19 31/18/20 28/15/17 
f 33/20/22 28/15/17 31/18/20 
f 28/15/17 33/20/22 26/13/15 
f 34/21/23 26/13/15 33/20/22 
f 26/13/15 34/21/23 24/11/13 
f 18/13/7 35/20/24 20/15/9 
f 36/18/25 20/15/9 35/20/24 
f 20/15/9 36/18/25 22/17/11 
f 32/19/21 22/17/11 36/18/25 
f 37/21/26 38/22/27 35/20/24 
f 39/23/28 35/20/24 38/22/27 
f 35/20/24 39/23/28 36/18/25 
f 40/24/29 36/18/25 39/23/28 
f 40/24/29 41/25/30 42/23/31 
f 43/22/32 42/23/31 41/25/30 
f 42/23/31 43/22/32 33/20/22 
f 32/19/21 36/18/25 44/26/33 
f 40/24/29 44/26/33 36/18/25 
f 44/26/33 40/24/29 31/18/20 
f 45/27/34 46/28/35 47/29/36 
f 48/30/37 47/29/36 46/28/35 
f 47/29/36 48/30/37 23/10/12 
f 45/27/34 47/29/36 49/31/38 
f 13/8/2 49/31/38 47/29/36 
f 49/31/38 13/8/2 50/29/39 
f 50/29/39 51/28/40 45/27/34 
f 51/28/40 50/29/39 52/30/41 
f 15/10/4 52/30/41 50/29/39 
f 48/30/37 25/12/14 23/10/12 
f 25/12/14 48/30/37 27/14/16 
f 53/32/42 27/14/16 48/30/37 
f 52/30/41 54/32/43 51/28/40 
f 54/32/43 52/30/41 19/14/8 
f 17/12/6 19/14/8 52/30/41 
f 40/24/29 39/23/28 41/25/30 
f 38/22/27 41/25/30 39/23/28 
f 35/20/24 18/13/7 37/21/26 
f 16/11/5 37/21/26 18/13/7 
f 40/24/29 42/23/31 31/18/20 
f 33/20/22 31/18/20 42/23/31 
f 53/32/42 55/33/44 27/14/16 
f 29/16/18 27/14/16 55/33/44 
f 21/16/10 56/33/45 19/14/8 
f 54/32/43 19/14/8 56/33/45 
f 33/20/22 43/22/32 34/21/23 
f 31/18/20 32/19/21 44/26/33 
f 50/29/39 45/27/34 49/31/38 
f 13/8/2 47/29/36 23/10/12 
f 50/29/39 13/8/2 15/10/4 
f 48/30/37 46/28/35 53/32/42 
f 52/30/41 15/10/4 17/12/6 
f 57/34/46 58/35/47 59/36/48 
f 60/37/49 59/36/48 58/35/47 
f 59/36/48 60/37/49 61/38/50 
f 62/39/51 61/38/50 60/37/49 
f 61/38/50 62/39/51 63/40/52 
f 64/41/53 63/40/52 62/39/51 
f 63/40/52 64/41/53 65/42/54 
f 66/43/55 65/42/54 64/41/53 
f 65/42/54 66/43/55 67/44/56 
f 68/45/57 67/44/56 66/43/55 
f 69/46/58 70/47/59 63/40/52 
f 70/47/59 69/46/58 71/48/60 
f 65/42/54 71/48/60 69/46/58 
f 71/48/60 65/42/54 72/49/61 
f 67/44/56 72/49/61 65/42/54 
f 72/49/61 67/44/56 73/50/62 
f 68/45/57 73/50/62 67/44/56 
f 73/50/62 68/45/57 74/51/63 
f 75/52/64 74/51/63 68/45/57 
f 76/53/65 72/49/61 77/54/66 
f 78/55/67 77/54/66 72/49/61 
f 77/54/66 78/55/67 79/56/68 
f 80/57/69 79/56/68 78/55/67 
f 79/56/68 80/57/69 81/58/70 
f 82/59/71 81/58/70 80/57/69 
f 83/60/72 60/61/73 84/62/74 
f 60/61/73 83/60/72 85/63/75 
f 86/64/76 85/63/75 83/60/72 
f 85/63/75 86/64/76 87/65/77 
f 88/66/78 87/65/77 86/64/76 
f 87/65/77 88/66/78 89/67/79 
f 90/68/80 66/43/55 64/41/53 
f 66/43/55 90/68/80 68/45/57 
f 91/69/81 68/45/57 90/68/80 
f 68/45/57 91/69/81 75/52/64 
f 92/70/82 75/52/64 91/69/81 
f 93/71/83 70/47/59 94/72/84 
f 71/48/60 94/72/84 70/47/59 
f 94/72/84 71/48/60 95/73/85 
f 96/74/86 95/73/85 71/48/60 
f 95/73/85 96/74/86 97/75/87 
f 71/48/60 72/49/61 96/74/86 
f 76/53/65 96/74/86 72/49/61 
f 96/74/86 76/53/65 98/76/88 
f 99/77/89 98/76/88 76/53/65 
f 86/64/76 99/77/89 88/66/78 
f 99/77/89 86/64/76 98/76/88 
f 83/60/72 98/76/88 86/64/76 
f 98/76/88 83/60/72 97/75/87 
f 100/78/90 74/51/63 101/79/91 
f 74/51/63 100/78/90 73/50/62 
f 78/55/67 73/50/62 100/78/90 
f 73/50/62 78/55/67 72/49/61 
f 59/36/48 102/80/92 57/34/46 
f 102/80/92 59/36/48 103/81/93 
f 63/40/52 103/81/93 59/36/48 
f 103/81/93 63/40/52 70/47/59 
f 76/53/65 77/54/66 88/66/78 
f 104/82/94 88/66/78 77/54/66 
f 88/66/78 104/82/94 89/67/79 
f 64/41/53 62/39/51 90/68/80 
f 85/83/95 90/68/80 62/39/51 
f 90/68/80 85/83/95 105/84/96 
f 87/65/77 105/85/97 85/63/75 
f 105/85/97 87/65/77 92/86/98 
f 89/67/79 92/86/98 87/65/77 
f 84/62/74 106/87/99 107/88/100 
f 106/87/99 84/62/74 58/89/101 
f 60/61/73 58/89/101 84/62/74 
f 97/75/87 107/88/100 95/73/85 
f 107/88/100 97/75/87 84/62/74 
f 83/60/72 84/62/74 97/75/87 
f 102/80/92 103/81/93 108/90/102 
f 109/91/103 108/90/102 103/81/93 
f 103/81/93 70/47/59 109/91/103 
f 93/71/83 109/91/103 70/47/59 
f 107/88/100 110/92/104 95/73/85 
f 94/72/84 95/73/85 110/92/104 
f 78/55/67 100/78/90 80/57/69 
f 101/79/91 80/57/69 100/78/90 
f 90/68/80 105/84/96 91/69/81 
f 92/70/82 91/69/81 105/84/96 
f 65/42/54 69/46/58 63/40/52 
f 88/66/78 99/77/89 76/53/65 
f 62/39/51 60/37/49 85/83/95 
f 106/87/99 58/89/101 57/93/105 
f 94/72/84 110/92/104 93/71/83 
f 63/40/52 59/36/48 61/38/50 
f 97/75/87 96/74/86 98/76/88 
f 104/82/94 77/54/66 79/56/68 
f 80/57/69 101/79/91 82/59/71 
f 57/93/105 37/94/106 106/87/99 
f 16/95/107 106/87/99 37/94/106 
f 106/87/99 16/95/107 107/88/100 
f 14/96/108 107/88/100 16/95/107 
f 107/88/100 14/96/108 24/97/109 
f 108/90/102 41/98/110 102/80/92 
f 38/99/111 102/80/92 41/98/110 
f 102/80/92 38/99/111 57/34/46 
f 37/100/112 57/34/46 38/99/111 
f 108/90/102 109/91/103 41/98/110 
f 43/101/113 41/98/110 109/91/103 
f 24/97/109 34/102/114 110/92/104 
f 93/71/83 110/92/104 34/102/114 
f 34/102/114 43/101/113 93/71/83 
f 109/91/103 93/71/83 43/101/113 
f 24/97/109 110/92/104 107/88/100 
f 111/103/115 104/82/94 79/56/68 
f 104/82/94 111/103/115 89/67/79 
f 112/104/116 89/67/79 111/103/115 
f 89/67/79 112/104/116 92/86/98 
f 92/70/82 112/105/117 75/52/64 
f 74/51/63 75/52/64 112/105/117 
f 79/56/68 81/58/70 111/103/115 
# 182 faces

