# 3ds Max Wavefront OBJ Exporter v0.99 - (c)2007 guruware
# File Created: 30.10.2024 13:14:47

mtllib pata_der_dumbo.mtl

#
# object pata_izq_dumbo
#

v  0.0595 -0.2269 0.0926
v  -0.0130 -0.2238 0.0798
v  0.1250 -0.2297 0.0706
v  0.1509 -0.2308 0.0390
v  0.0595 -0.2269 -0.0778
v  0.1250 -0.2297 -0.0557
v  -0.0130 -0.2238 -0.0650
v  0.1509 -0.2308 -0.0241
v  -0.0614 -0.2217 0.0442
v  -0.0740 -0.2211 0.0074
v  -0.0614 -0.2217 -0.0293
v  0.1589 -0.2312 0.0074
# 12 vertices

vn -0.0430 -0.9991 -0.0000
# 1 vertex normals

vt 0.2171 0.1129 0.0000
vt 0.1341 0.0988 0.0000
vt 0.2919 0.0874 0.0000
vt 0.3213 0.0512 0.0000
vt 0.0785 0.0583 0.0000
vt 0.0640 0.0164 0.0000
vt 0.3303 0.0150 0.0000
# 7 texture coords

o pata_izq_dumbo
g pata_izq_dumbo
usemtl 08___Default
s 1
f 1/1/1 2/2/1 3/3/1 
f 4/4/1 3/3/1 2/2/1 
f 5/1/1 6/3/1 7/2/1 
f 8/4/1 7/2/1 6/3/1 
f 2/2/1 9/5/1 4/4/1 
f 10/6/1 4/4/1 9/5/1 
f 7/2/1 8/4/1 11/5/1 
f 10/6/1 11/5/1 8/4/1 
f 4/4/1 10/6/1 12/7/1 
f 8/4/1 12/7/1 10/6/1 
# 10 faces

#
# object pata_izq_dumbo001
#

v  -0.0614 -0.2217 0.0442
v  -0.0132 -0.1980 0.0820
v  -0.0633 -0.1952 0.0453
v  -0.0326 -0.1658 0.0463
v  -0.0443 -0.1637 0.0074
v  0.0013 -0.1408 0.0074
v  -0.0326 -0.1658 -0.0315
v  0.0238 -0.1466 -0.0484
v  0.0021 -0.1688 -0.0580
v  0.0676 -0.1791 -0.0719
v  0.0605 -0.2042 -0.0802
v  0.1283 -0.2102 -0.0576
v  0.1250 -0.2297 -0.0557
v  0.1509 -0.2308 -0.0241
v  0.0091 -0.1289 0.0074
v  0.0238 -0.1466 0.0633
v  0.0292 -0.1346 -0.0404
v  0.0749 -0.1587 -0.0629
v  0.0781 -0.1457 -0.0623
v  0.1284 -0.1715 -0.0430
v  0.1282 -0.1577 -0.0398
v  0.1499 -0.1767 0.0074
v  0.1484 -0.1626 0.0074
v  0.1282 -0.1577 0.0546
v  0.1491 -0.1126 0.0074
v  -0.0681 0.1109 0.0661
v  -0.1047 0.1033 -0.0356
v  -0.0837 0.0240 -0.0167
v  -0.0645 0.0357 -0.1163
v  -0.0247 -0.0341 -0.0770
v  0.0666 -0.0138 -0.1149
v  0.0103 -0.0543 -0.0478
v  0.0724 -0.0599 -0.0728
v  0.0266 -0.1022 -0.0416
v  0.0767 -0.1094 -0.0650
v  0.2037 0.0549 -0.0267
v  0.2131 0.1161 -0.0422
v  0.1738 0.1005 0.0584
v  0.1599 0.0605 -0.1075
v  0.1376 -0.0067 -0.0844
v  0.1421 -0.0320 -0.0480
v  0.1326 -0.0467 -0.0468
v  0.1277 -0.1102 -0.0429
v  0.1571 -0.0478 0.0073
v  0.1813 -0.0087 -0.0043
v  0.1643 -0.0086 0.0595
v  0.1667 -0.0299 0.0059
v  0.1433 -0.0328 0.0605
v  0.1326 -0.0467 0.0617
v  0.1277 -0.1102 0.0577
v  0.0718 -0.0496 0.0938
v  0.0767 -0.1094 0.0799
v  -0.0441 -0.0396 0.0010
v  -0.0130 -0.0572 0.0074
v  -0.0230 -0.0352 0.0709
v  0.0103 -0.0543 0.0627
v  0.0722 -0.0094 0.1130
v  0.1724 0.1358 -0.1206
v  0.1895 0.2151 -0.1119
v  0.0714 0.1627 -0.1740
v  0.0629 0.0668 -0.1551
v  -0.0832 0.1155 -0.1450
v  0.1714 0.0498 0.0582
v  0.0707 0.0397 0.1162
v  0.0735 0.1048 0.1162
v  0.0749 -0.1587 0.0777
v  0.1284 -0.1715 0.0578
v  0.0781 -0.1457 0.0772
v  0.0021 -0.1688 0.0729
v  0.0676 -0.1791 0.0868
v  0.0605 -0.2042 0.0951
v  0.1283 -0.2102 0.0724
v  0.1250 -0.2297 0.0706
v  0.1509 -0.2308 0.0390
v  0.1519 -0.1918 0.0373
v  0.1272 -0.1892 0.0672
v  0.1590 -0.1936 0.0074
v  0.1519 -0.1918 -0.0224
v  0.1552 -0.2120 -0.0251
v  0.1272 -0.1892 -0.0523
v  0.1552 -0.2120 0.0399
v  0.1589 -0.2312 0.0074
v  -0.0561 0.0348 0.0669
v  0.0292 -0.1346 0.0553
v  0.0266 -0.1022 0.0564
v  0.0054 -0.1007 0.0074
v  -0.0545 0.2136 -0.1629
v  0.0967 0.2760 -0.1618
v  -0.0130 -0.2238 0.0798
v  -0.0132 -0.1980 -0.0671
v  -0.0130 -0.2238 -0.0650
v  -0.0614 -0.2217 -0.0293
v  -0.0633 -0.1952 -0.0304
v  -0.0740 -0.2211 0.0074
v  -0.0761 -0.1940 0.0074
v  0.1626 -0.2129 0.0074
v  0.0595 -0.2269 0.0926
v  0.0595 -0.2269 -0.0778
v  -0.0861 0.1831 -0.1583
v  0.1021 0.1140 -0.0599
# 100 vertices

vn -0.8009 -0.0788 0.5936
vn -0.3938 0.1872 0.8999
vn -0.7843 0.2920 0.5473
vn -0.5238 0.7234 0.4498
vn -0.5913 0.8065 0.0000
vn -0.4127 0.9109 0.0000
vn -0.5238 0.7234 -0.4498
vn -0.2597 0.6664 -0.6989
vn -0.3089 0.5192 -0.7968
vn 0.0972 0.3364 -0.9367
vn 0.0643 0.0934 -0.9935
vn 0.5694 0.0214 -0.8218
vn 0.5452 -0.1676 -0.8214
vn 0.8654 -0.2178 -0.4513
vn -0.9718 0.2358 0.0000
vn -0.8331 0.5532 -0.0000
vn -0.3946 0.6203 0.6778
vn -0.3946 0.6203 -0.6778
vn -0.6405 0.2850 -0.7131
vn -0.0002 0.0926 -0.9957
vn 0.0225 -0.0023 -0.9997
vn 0.7232 0.1405 -0.6762
vn 0.7379 0.0683 -0.6715
vn 0.9946 0.1041 0.0000
vn 0.9988 0.0487 -0.0000
vn 0.7379 0.0683 0.6715
vn 0.9975 -0.0705 0.0002
vn -0.5669 0.5288 0.6317
vn -0.9900 0.0974 0.1022
vn -0.9236 -0.3798 0.0530
vn -0.6240 -0.4806 -0.6162
vn -0.4402 -0.7543 -0.4871
vn 0.1027 -0.5831 -0.8059
vn -0.4616 -0.6980 -0.5475
vn 0.0394 -0.4347 -0.8997
vn -0.6968 -0.1975 -0.6895
vn -0.0133 -0.1129 -0.9935
vn 0.9648 -0.2512 -0.0774
vn 0.9567 0.2102 -0.2012
vn 0.6154 0.5708 0.5436
vn 0.6390 -0.3300 -0.6948
vn 0.5456 -0.5604 -0.6230
vn 0.6649 -0.5486 -0.5068
vn 0.6582 -0.2943 -0.6929
vn 0.7014 -0.0760 -0.7087
vn 0.9456 -0.3252 0.0032
vn 0.8876 -0.4537 -0.0798
vn 0.7483 -0.3167 0.5829
vn 0.8401 -0.5424 0.0027
vn 0.6409 -0.4835 0.5962
vn 0.6659 -0.2631 0.6981
vn 0.7072 -0.0849 0.7019
vn 0.4521 -0.2680 0.8507
vn 0.3933 -0.1212 0.9114
vn -0.7140 -0.6995 0.0296
vn -0.7026 -0.7113 0.0211
vn -0.5539 -0.5492 0.6258
vn -0.5056 -0.5724 0.6455
vn -0.3558 -0.2417 0.9028
vn -0.4099 -0.3284 0.8509
vn 0.6629 -0.1512 -0.7333
vn 0.6121 -0.0487 -0.7893
vn 0.1669 -0.0746 -0.9831
vn 0.1160 -0.3244 -0.9388
vn -0.6694 -0.2420 -0.7024
vn 0.7657 -0.0609 0.6403
vn 0.5012 -0.0330 0.8647
vn 0.4609 0.4557 0.7615
vn 0.3398 -0.0428 0.9395
vn 0.7232 0.1405 0.6762
vn 0.3788 -0.0322 0.9249
vn -0.3089 0.5192 0.7968
vn -0.2597 0.6664 0.6989
vn 0.0972 0.3364 0.9367
vn 0.0643 0.0934 0.9935
vn 0.5694 0.0214 0.8218
vn 0.5452 -0.1676 0.8214
vn 0.8654 -0.2178 0.4513
vn 0.8532 0.3593 0.3780
vn 0.6286 0.4068 0.6628
vn 0.5659 0.2789 0.7759
vn 0.8449 0.5348 0.0000
vn 0.9475 0.3197 0.0000
vn 0.8533 0.3593 -0.3780
vn 0.8958 -0.0114 -0.4442
vn 0.5659 0.2789 -0.7759
vn 0.1265 0.3805 0.9161
vn 0.8958 -0.0114 0.4442
vn 0.9772 -0.2124 0.0000
vn -0.2434 0.6465 0.7230
vn -0.7123 -0.1870 0.6765
vn 0.4917 -0.2021 0.8470
vn -0.6405 0.2851 0.7131
vn -0.7026 -0.2065 0.6810
vn -0.4330 -0.1510 0.8887
vn 0.6286 0.4068 -0.6628
vn 0.1265 0.3805 -0.9161
vn -0.9639 -0.2663 -0.0000
vn -0.3612 -0.0261 0.9321
vn -0.0803 -0.0771 -0.9938
vn 0.2607 0.0446 -0.9644
vn -0.3364 0.2139 0.9171
vn -0.4014 0.0334 0.9153
vn -0.3953 -0.0790 0.9151
vn -0.3938 0.1872 -0.8999
vn -0.3953 -0.0790 -0.9151
vn -0.8009 -0.0788 -0.5937
vn -0.7843 0.2920 -0.5473
vn -0.9968 -0.0796 0.0000
vn -0.9407 0.3391 0.0000
vn 0.9999 -0.0129 0.0000
vn 0.0705 -0.1118 0.9912
vn 0.0705 -0.1118 -0.9912
vn -0.3414 0.2540 -0.9049
vn 0.1290 0.9721 0.1958
vn 0.0154 0.9943 0.1059
# 116 vertex normals

vt 0.6280 0.5768 0.0000
vt 0.7112 0.5865 0.0000
vt 0.6374 0.6088 0.0000
vt 0.6778 0.6448 0.0000
vt 0.6392 0.6768 0.0000
vt 0.6998 0.7145 0.0000
vt 0.7565 0.6576 0.0000
vt 0.7298 0.6267 0.0000
vt 0.8151 0.6067 0.0000
vt 0.8045 0.5729 0.0000
vt 0.8950 0.5682 0.0000
vt 0.8944 0.5433 0.0000
vt 0.9494 0.5459 0.0000
vt 0.5164 0.0839 0.0000
vt 0.5225 0.0741 0.0000
vt 0.4811 0.0403 0.0000
vt 0.5740 0.0870 0.0000
vt 0.5708 0.0991 0.0000
vt 0.6239 0.0819 0.0000
vt 0.6274 0.0931 0.0000
vt 0.6737 0.0590 0.0000
vt 0.6783 0.0709 0.0000
vt 0.7203 0.0395 0.0000
vt 0.7244 0.0509 0.0000
vt 0.7735 0.0337 0.0000
vt 0.7418 0.0922 0.0000
vt 0.3502 0.2693 0.0000
vt 0.4291 0.3145 0.0000
vt 0.4510 0.2446 0.0000
vt 0.5274 0.2950 0.0000
vt 0.5423 0.2144 0.0000
vt 0.6379 0.2342 0.0000
vt 0.5553 0.1724 0.0000
vt 0.6300 0.1735 0.0000
vt 0.5662 0.1281 0.0000
vt 0.6275 0.1257 0.0000
vt 0.8113 0.2537 0.0000
vt 0.8304 0.3159 0.0000
vt 0.8991 0.2451 0.0000
vt 0.7369 0.2877 0.0000
vt 0.7110 0.2243 0.0000
vt 0.7172 0.1836 0.0000
vt 0.7055 0.1681 0.0000
vt 0.6886 0.1126 0.0000
vt 0.7673 0.1489 0.0000
vt 0.7873 0.1906 0.0000
vt 0.8454 0.1627 0.0000
vt 0.7782 0.1671 0.0000
vt 0.8314 0.1368 0.0000
vt 0.8255 0.1198 0.0000
vt 0.7967 0.0704 0.0000
vt 0.8844 0.0808 0.0000
vt 0.8441 0.0423 0.0000
vt 0.4761 0.1792 0.0000
vt 0.4859 0.1449 0.0000
vt 0.4118 0.1507 0.0000
vt 0.4283 0.1178 0.0000
vt 0.3264 0.1073 0.0000
vt 0.3787 0.0801 0.0000
vt 0.7592 0.3582 0.0000
vt 0.7877 0.4293 0.0000
vt 0.6597 0.4060 0.0000
vt 0.6454 0.3190 0.0000
vt 0.5080 0.3739 0.0000
vt 0.8777 0.2068 0.0000
vt 0.9616 0.1470 0.0000
vt 0.9944 0.2090 0.0000
vt 0.8210 0.0058 0.0000
vt 0.7690 0.0217 0.0000
vt 0.8245 0.0167 0.0000
vt 0.9476 0.5958 0.0000
vt 0.9061 0.6209 0.0000
vt 0.8967 0.5954 0.0000
vt 0.9813 0.6221 0.0000
vt 0.9877 0.5976 0.0000
vt 0.9488 0.5703 0.0000
vt 0.8277 0.6354 0.0000
vt 0.9921 0.5497 0.0000
vt 0.2346 0.2220 0.0000
vt 0.3776 0.2126 0.0000
vt 0.9209 0.1090 0.0000
vt 0.4746 0.0516 0.0000
vt 0.4569 0.0757 0.0000
vt 0.4196 0.0389 0.0000
vt 0.5054 0.1066 0.0000
vt 0.2788 0.1538 0.0000
vt 0.5386 0.4615 0.0000
vt 0.6951 0.5037 0.0000
vt 0.4484 0.0052 0.0000
vt 0.4396 0.0131 0.0000
vt 0.7065 0.5527 0.0000
vt 0.5802 0.5975 0.0000
vt 0.5944 0.6329 0.0000
vt 0.9909 0.5731 0.0000
vt 0.8037 0.5439 0.0000
vt 0.4677 0.4415 0.0000
vt 0.2282 0.4043 0.0000
vt 0.9271 0.3635 0.0000
# 98 texture coords

o pata_izq_dumbo001
g pata_izq_dumbo001
usemtl 07___Default
s 1
f 13/8/2 14/9/3 15/10/4 
f 16/11/5 15/10/4 14/9/3 
f 15/10/4 16/11/5 17/12/6 
f 18/13/7 17/12/6 16/11/5 
f 17/12/6 18/13/7 19/11/8 
f 20/14/9 19/11/8 18/13/7 
f 19/11/8 20/14/9 21/15/10 
f 22/16/11 21/15/10 20/14/9 
f 21/15/10 22/16/11 23/17/12 
f 24/18/13 23/17/12 22/16/11 
f 23/17/12 24/18/13 25/19/14 
f 26/20/15 25/19/14 24/18/13 
f 27/21/16 18/22/17 28/23/18 
f 18/22/17 27/21/16 20/24/19 
f 29/25/20 20/24/19 27/21/16 
f 20/24/19 29/25/20 30/26/21 
f 31/27/22 30/26/21 29/25/20 
f 30/26/21 31/27/22 32/28/23 
f 33/29/24 32/28/23 31/27/22 
f 32/28/23 33/29/24 34/30/25 
f 35/31/26 34/30/25 33/29/24 
f 34/30/25 35/31/26 36/32/27 
f 37/33/28 36/32/27 35/31/26 
f 38/34/29 39/35/30 40/36/31 
f 41/37/32 40/36/31 39/35/30 
f 40/36/31 41/37/32 42/38/33 
f 43/39/34 42/38/33 41/37/32 
f 42/38/33 43/39/34 44/40/35 
f 45/41/36 44/40/35 43/39/34 
f 44/40/35 45/41/36 46/42/37 
f 47/43/38 46/42/37 45/41/36 
f 46/42/37 47/43/38 29/25/20 
f 48/44/39 49/45/40 50/46/41 
f 49/45/40 48/44/39 51/47/42 
f 52/48/43 51/47/42 48/44/39 
f 51/47/42 52/48/43 43/39/34 
f 53/49/44 43/39/34 52/48/43 
f 43/39/34 53/49/44 45/41/36 
f 54/50/45 45/41/36 53/49/44 
f 45/41/36 54/50/45 55/51/46 
f 56/52/47 55/51/46 54/50/45 
f 57/53/48 58/54/49 59/55/50 
f 60/56/51 59/55/50 58/54/49 
f 59/55/50 60/56/51 56/52/47 
f 61/57/52 56/52/47 60/56/51 
f 56/52/47 61/57/52 62/58/53 
f 63/59/54 62/58/53 61/57/52 
f 62/58/53 63/59/54 64/60/55 
f 40/36/31 42/38/33 65/61/56 
f 66/62/57 65/61/56 42/38/33 
f 65/61/56 66/62/57 67/63/58 
f 68/64/59 67/63/58 66/62/57 
f 67/63/58 68/64/59 69/65/60 
f 63/66/61 69/65/60 68/64/59 
f 70/67/62 71/68/63 49/45/40 
f 71/68/63 70/67/62 72/69/64 
f 73/70/65 72/69/64 70/67/62 
f 72/69/64 73/70/65 74/71/66 
f 41/37/32 74/71/66 73/70/65 
f 74/71/66 41/37/32 39/35/30 
f 53/49/44 52/48/43 57/53/48 
f 48/44/39 57/53/48 52/48/43 
f 57/53/48 48/44/39 58/54/49 
f 75/72/67 58/54/49 48/44/39 
f 58/54/49 75/72/67 76/73/68 
f 77/74/69 76/73/68 75/72/67 
f 78/75/70 79/76/71 80/77/72 
f 36/32/27 80/77/72 79/76/71 
f 80/77/72 36/32/27 62/58/53 
f 37/33/28 62/58/53 36/32/27 
f 62/58/53 37/33/28 56/52/47 
f 55/51/46 56/52/47 37/33/28 
f 81/15/73 28/14/74 16/11/5 
f 28/14/74 81/15/73 82/16/75 
f 83/17/76 82/16/75 81/15/73 
f 82/16/75 83/17/76 84/18/77 
f 85/19/78 84/18/77 83/17/76 
f 84/18/77 85/19/78 86/20/79 
f 87/78/80 79/79/81 88/80/82 
f 79/79/81 87/78/80 34/81/83 
f 89/82/84 34/81/83 87/78/80 
f 34/81/83 89/82/84 90/78/85 
f 91/83/86 90/78/85 89/82/84 
f 90/78/85 91/83/86 92/80/87 
f 82/16/75 78/84/88 28/14/74 
f 78/84/88 82/16/75 88/80/82 
f 84/18/77 88/80/82 82/16/75 
f 88/80/82 84/18/77 93/83/89 
f 86/20/79 93/83/89 84/18/77 
f 93/83/89 86/20/79 94/85/90 
f 77/86/91 38/34/29 95/87/92 
f 40/36/31 95/87/92 38/34/29 
f 95/87/92 40/36/31 67/63/58 
f 65/61/56 67/63/58 40/36/31 
f 73/70/65 43/39/34 41/37/32 
f 43/39/34 73/70/65 51/47/42 
f 70/67/62 51/47/42 73/70/65 
f 51/47/42 70/67/62 49/45/40 
f 60/56/51 63/59/54 61/57/52 
f 63/59/54 60/56/51 69/88/93 
f 58/54/49 69/88/93 60/56/51 
f 69/88/93 58/54/49 76/73/68 
f 96/89/94 27/21/16 28/23/18 
f 27/21/16 96/89/94 97/90/95 
f 64/91/96 97/90/95 96/89/94 
f 97/90/95 64/91/96 63/66/61 
f 22/16/11 92/80/87 24/18/13 
f 91/83/86 24/18/13 92/80/87 
f 24/18/13 91/83/86 26/20/15 
f 94/85/90 26/20/15 91/83/86 
f 92/80/87 32/79/97 90/78/85 
f 32/79/97 92/80/87 30/84/98 
f 22/16/11 30/84/98 92/80/87 
f 30/84/98 22/16/11 20/14/9 
f 46/42/37 27/21/16 98/92/99 
f 97/90/95 98/92/99 27/21/16 
f 98/92/99 97/90/95 68/64/59 
f 63/66/61 68/64/59 97/90/95 
f 95/87/92 76/93/100 77/86/91 
f 76/93/100 95/87/92 69/65/60 
f 67/63/58 69/65/60 95/87/92 
f 74/71/66 99/94/101 72/69/64 
f 100/95/102 72/69/64 99/94/101 
f 72/69/64 100/95/102 71/68/63 
f 57/53/48 59/55/50 53/49/44 
f 56/52/47 53/49/44 59/55/50 
f 53/49/44 56/52/47 54/50/45 
f 42/38/33 44/40/35 66/62/57 
f 98/92/99 66/62/57 44/40/35 
f 66/62/57 98/92/99 68/64/59 
f 28/23/18 78/96/103 96/89/94 
f 80/97/104 96/89/94 78/96/103 
f 96/89/94 80/97/104 64/91/96 
f 47/43/38 31/27/22 29/25/20 
f 31/27/22 47/43/38 55/51/46 
f 45/41/36 55/51/46 47/43/38 
f 14/9/3 83/17/76 81/15/73 
f 83/17/76 14/9/3 101/98/105 
f 13/8/2 101/98/105 14/9/3 
f 21/15/10 23/17/12 102/9/106 
f 103/98/107 102/9/106 23/17/12 
f 102/9/106 103/98/107 104/8/108 
f 19/11/8 102/9/106 105/10/109 
f 104/8/108 105/10/109 102/9/106 
f 105/10/109 104/8/108 106/99/110 
f 15/10/4 17/12/6 107/100/111 
f 105/10/109 107/100/111 17/12/6 
f 107/100/111 105/10/109 106/99/110 
f 91/83/86 89/82/84 108/101/112 
f 93/83/89 108/101/112 89/82/84 
f 108/101/112 93/83/89 94/85/90 
f 77/74/69 75/72/67 50/46/41 
f 48/44/39 50/46/41 75/72/67 
f 85/19/78 83/17/76 109/102/113 
f 101/98/105 109/102/113 83/17/76 
f 25/19/14 110/102/114 23/17/12 
f 103/98/107 23/17/12 110/102/114 
f 31/27/22 55/51/46 33/29/24 
f 37/33/28 33/29/24 55/51/46 
f 88/80/82 93/83/89 87/78/80 
f 89/82/84 87/78/80 93/83/89 
f 88/80/82 79/79/81 78/84/88 
f 16/11/5 28/14/74 18/13/7 
f 36/32/27 79/76/71 34/30/25 
f 90/78/85 32/79/97 34/81/83 
f 98/92/99 44/40/35 46/42/37 
f 27/21/16 46/42/37 29/25/20 
f 80/77/72 62/58/53 64/60/55 
f 33/29/24 37/33/28 35/31/26 
f 16/11/5 14/9/3 81/15/73 
f 102/9/106 19/11/8 21/15/10 
f 105/10/109 17/12/6 19/11/8 
f 94/85/90 91/83/86 108/101/112 
f 15/10/4 106/99/110 13/8/2 
f 106/99/110 15/10/4 107/100/111 
f 111/103/115 38/34/29 112/104/116 
f 38/34/29 111/103/115 39/35/30 
f 74/71/66 39/35/30 111/103/115 
f 77/74/69 50/46/41 112/105/117 
f 49/45/40 112/105/117 50/46/41 
f 38/34/29 77/86/91 112/104/116 
f 111/103/115 99/94/101 74/71/66 
# 182 faces

