# 3ds Max Wavefront OBJ Exporter v0.99 - (c)2007 guruware
# File Created: 08.11.2024 16:44:37

mtllib rueda_tras_izq_mate.mtl

#
# object mesh_4_
#

v  2.5790 -5.5591 -11.3465
v  2.5790 -4.4072 -12.4984
v  4.7645 -5.5591 -11.3465
v  4.7645 -4.4072 -12.4984
v  2.5790 -2.8337 -12.9200
v  4.7645 -2.8337 -12.9200
v  2.5790 -1.2603 -12.4984
v  4.7645 -1.2603 -12.4984
v  2.5790 -0.1084 -11.3465
v  4.7645 -0.1084 -11.3465
v  2.5790 0.3132 -9.7730
v  4.7645 0.3132 -9.7730
v  2.5790 -0.1084 -8.1995
v  4.7645 -0.1084 -8.1995
v  2.5790 -1.2603 -7.0477
v  4.7645 -1.2603 -7.0477
v  2.5790 -2.8337 -6.6261
v  4.7645 -2.8337 -6.6261
v  2.5790 -4.4072 -7.0477
v  4.7645 -4.4072 -7.0477
v  2.5790 -5.5591 -8.1995
v  4.7645 -5.5591 -8.1995
v  2.5790 -5.9807 -9.7730
v  4.7645 -5.9807 -9.7730
v  6.7569 -3.7311 -9.5316
v  6.7569 -3.4907 -10.4326
v  6.7569 -3.0742 -8.8721
v  6.7569 -2.5933 -10.6740
v  6.7569 -2.1768 -9.1135
v  6.7569 -1.9364 -10.0144
v  6.9681 -2.8337 -6.6261
v  6.9681 -4.4072 -7.0477
v  6.9681 -1.2603 -7.0477
v  6.9681 -0.1084 -8.1995
v  6.9681 0.3132 -9.7730
v  6.9681 -0.1084 -11.3465
v  6.9681 -1.2603 -12.4984
v  6.9681 -2.8337 -12.9200
v  6.9681 -4.4072 -12.4984
v  6.9681 -5.5591 -11.3465
v  6.9681 -5.9807 -9.7730
v  6.9681 -5.5591 -8.1995
v  7.1544 -5.4348 -9.7730
v  7.1544 -5.0863 -8.4725
v  7.1544 -4.1343 -7.5205
v  7.1544 -2.8337 -7.1720
v  7.1544 -1.5332 -7.5205
v  7.1544 -0.5812 -8.4725
v  7.1544 -0.2327 -9.7730
v  7.1544 -0.5812 -11.0736
v  7.1544 -1.5332 -12.0256
v  7.1544 -2.8337 -12.3741
v  7.1544 -4.1343 -12.0256
v  7.1544 -5.0863 -11.0735
v  6.9681 -4.8407 -9.7730
v  6.9681 -4.5718 -8.7696
v  6.9681 -3.8372 -8.0350
v  6.9681 -2.8337 -7.7661
v  6.9681 -1.8303 -8.0350
v  6.9681 -1.0957 -8.7696
v  6.9681 -0.8268 -9.7730
v  6.9681 -1.0957 -10.7765
v  6.9681 -1.8303 -11.5111
v  6.9681 -2.8337 -11.7800
v  6.9681 -3.8372 -11.5111
v  6.9681 -4.5718 -10.7765
v  5.9516 -4.6734 -9.7730
v  5.9516 -4.4270 -10.6929
v  5.9516 -3.7536 -11.3663
v  5.9516 -2.8337 -11.6127
v  5.9516 -1.9139 -11.3663
v  5.9516 -1.2405 -10.6929
v  5.9516 -0.9940 -9.7730
v  5.9516 -1.2405 -8.8532
v  5.9516 -1.9139 -8.1798
v  5.9516 -2.8337 -7.9333
v  5.9516 -3.7536 -8.1798
v  5.9516 -4.4270 -8.8532
# 78 vertices

vn 0.0000 -0.8660 -0.5000
vn 0.0000 -0.5000 -0.8660
vn -0.0000 -0.8660 -0.5000
vn 0.0000 -0.0000 -1.0000
vn 0.0000 0.5000 -0.8660
vn 0.0000 0.8660 -0.5000
vn 0.0000 1.0000 -0.0000
vn 0.0000 0.8660 0.5000
vn 0.0000 0.5000 0.8660
vn 0.0000 0.0000 1.0000
vn 0.0000 -0.5000 0.8660
vn 0.0000 -0.8660 0.5000
vn 0.0000 -1.0000 0.0000
vn -0.0001 -0.8660 -0.5000
vn -1.0000 0.0000 -0.0000
vn 1.0000 0.0000 -0.0000
vn 0.0000 -0.0000 1.0000
vn -0.0000 -0.0000 1.0000
vn -0.0000 -0.5000 0.8660
vn -0.0000 0.5000 0.8660
vn -0.0000 0.0000 1.0000
vn -0.0000 0.8660 0.5000
vn 0.0001 1.0000 0.0000
vn -0.0000 1.0000 0.0000
vn -0.0000 0.8660 -0.5000
vn -0.0000 1.0000 -0.0000
vn -0.0000 0.5000 -0.8660
vn 0.0000 0.0000 -1.0000
vn -0.0000 0.0000 -1.0000
vn -0.0000 -0.5000 -0.8660
vn -0.0000 -0.0000 -1.0000
vn 0.0000 -1.0000 -0.0000
vn -0.0000 -1.0000 -0.0000
vn -0.0000 -0.8660 0.5000
vn -0.0000 -1.0000 0.0000
vn 0.9464 -0.3230 0.0000
vn 0.9464 -0.2797 -0.1615
vn 0.9999 -0.0107 -0.0062
vn 0.9999 -0.0108 0.0062
vn 0.9464 -0.2797 0.1615
vn 0.9999 0.0000 0.0124
vn 0.9464 -0.1615 0.2797
vn 0.9999 -0.0000 0.0124
vn 0.9464 0.0000 0.3230
vn 0.9999 0.0107 0.0062
vn 0.9464 0.1615 0.2797
vn 0.9999 0.0108 0.0062
vn 0.9464 0.2797 0.1615
vn 0.9999 0.0107 -0.0062
vn 0.9464 0.3230 -0.0000
vn 0.9999 0.0108 -0.0062
vn 0.9464 0.2797 -0.1615
vn 0.9999 -0.0000 -0.0124
vn 0.9464 0.1615 -0.2797
vn 0.9999 0.0000 -0.0124
vn 0.9464 -0.0000 -0.3230
vn 0.9464 -0.1615 -0.2797
vn 0.9999 -0.0108 -0.0062
vn 0.9542 0.2993 -0.0000
vn 0.9542 0.2592 -0.1496
vn 0.9542 0.1496 -0.2592
vn 0.9542 -0.0000 -0.2993
vn 0.9542 -0.1496 -0.2592
vn 0.9542 -0.2592 -0.1496
vn 0.9542 -0.2993 0.0000
vn 0.9542 -0.2592 0.1496
vn 0.9542 -0.1496 0.2592
vn 0.9542 0.0000 0.2993
vn 0.9542 0.1496 0.2592
vn 0.9542 0.2592 0.1496
vn 0.1624 0.9867 -0.0000
vn 0.1624 0.8545 0.4934
vn 0.1624 0.4934 0.8545
vn 0.1624 -0.0000 0.9867
vn 0.1624 0.0000 0.9867
vn 0.1624 -0.4934 0.8545
vn 0.1624 -0.8545 0.4934
vn 0.1624 -0.9867 0.0000
vn 0.1624 -0.8545 -0.4934
vn 0.1624 -0.4934 -0.8545
vn 0.1624 0.0000 -0.9867
vn 0.1624 -0.0000 -0.9867
vn 0.1624 0.4934 -0.8545
vn 0.1624 0.8545 -0.4934
vn 0.7593 -0.6507 0.0068
vn 0.7590 -0.5605 -0.3313
vn 0.7838 -0.5999 0.1607
vn 0.7590 -0.5673 0.3195
vn 0.7833 -0.1609 0.6005
vn 0.7585 -0.3202 0.5676
vn 0.7582 -0.0066 0.6519
vn 0.7835 0.4394 0.4393
vn 0.7585 0.3317 0.5609
vn 0.7590 0.5605 0.3313
vn 0.7838 0.5999 -0.1607
vn 0.7593 0.6507 -0.0068
vn 0.7590 0.5673 -0.3195
vn 0.7833 0.1609 -0.6005
vn 0.7585 0.3202 -0.5676
vn 0.7582 0.0066 -0.6519
vn 0.7835 -0.4394 -0.4393
vn 0.7585 -0.3317 -0.5609
# 102 vertex normals

vt 0.0131 0.8675 0.0000
vt 0.0920 0.8675 0.0000
vt 0.0131 0.9639 0.0000
vt 0.0920 0.9639 0.0000
vt 0.1710 0.8675 0.0000
vt 0.1710 0.9639 0.0000
vt 0.2499 0.8675 0.0000
vt 0.2499 0.9639 0.0000
vt 0.3289 0.8675 0.0000
vt 0.3289 0.9639 0.0000
vt 0.4078 0.8675 0.0000
vt 0.4078 0.9639 0.0000
vt 0.4868 0.8675 0.0000
vt 0.4868 0.9639 0.0000
vt 0.5657 0.8675 0.0000
vt 0.5657 0.9639 0.0000
vt 0.6447 0.8675 0.0000
vt 0.6447 0.9639 0.0000
vt 0.7236 0.8675 0.0000
vt 0.7236 0.9639 0.0000
vt 0.8026 0.8675 0.0000
vt 0.8026 0.9639 0.0000
vt 0.8815 0.8675 0.0000
vt 0.8815 0.9639 0.0000
vt 0.9605 0.8675 0.0000
vt 0.9605 0.9639 0.0000
vt 0.8580 0.6489 0.0000
vt 0.8580 0.2350 0.0000
vt 0.9134 0.4420 0.0000
vt 0.7064 0.8005 0.0000
vt 0.7064 0.0835 0.0000
vt 0.4995 0.0280 0.0000
vt 0.4995 0.8559 0.0000
vt 0.2925 0.0835 0.0000
vt 0.2925 0.8005 0.0000
vt 0.1410 0.2350 0.0000
vt 0.1410 0.6489 0.0000
vt 0.0855 0.4420 0.0000
vt 0.4686 0.3316 0.0000
vt 0.5717 0.3591 0.0000
vt 0.3931 0.4068 0.0000
vt 0.5993 0.4618 0.0000
vt 0.4208 0.5095 0.0000
vt 0.5239 0.5370 0.0000
vt 0.4477 0.8683 0.0000
vt 0.5523 0.8683 0.0000
vt 0.4477 0.9660 0.0000
vt 0.5523 0.9660 0.0000
vt 0.4962 0.0151 0.0000
vt 0.7059 0.0712 0.0000
vt 0.4962 0.0878 0.0000
vt 0.3230 0.1342 0.0000
vt 0.2866 0.0712 0.0000
vt 0.1962 0.2610 0.0000
vt 0.1332 0.2247 0.0000
vt 0.1497 0.4343 0.0000
vt 0.0770 0.4343 0.0000
vt 0.1962 0.6075 0.0000
vt 0.1332 0.6439 0.0000
vt 0.3230 0.7344 0.0000
vt 0.2866 0.7974 0.0000
vt 0.4962 0.7808 0.0000
vt 0.4962 0.8535 0.0000
vt 0.6695 0.7344 0.0000
vt 0.7059 0.7974 0.0000
vt 0.7963 0.6075 0.0000
vt 0.8593 0.6439 0.0000
vt 0.8427 0.4343 0.0000
vt 0.9155 0.4343 0.0000
vt 0.7963 0.2610 0.0000
vt 0.8593 0.2247 0.0000
vt 0.6695 0.1342 0.0000
vt 0.4962 0.1397 0.0000
vt 0.3489 0.1791 0.0000
vt 0.2411 0.2870 0.0000
vt 0.2016 0.4343 0.0000
vt 0.2411 0.5816 0.0000
vt 0.3489 0.6894 0.0000
vt 0.4962 0.7289 0.0000
vt 0.6436 0.6894 0.0000
vt 0.7514 0.5816 0.0000
vt 0.7909 0.4343 0.0000
vt 0.7514 0.2870 0.0000
vt 0.6436 0.1791 0.0000
vt 0.0382 0.9679 0.0000
vt 0.0805 0.9679 0.0000
vt 0.0382 0.9945 0.0000
vt 0.0805 0.9945 0.0000
vt 0.4962 0.1642 0.0000
vt 0.6313 0.2004 0.0000
vt 0.3612 0.2004 0.0000
vt 0.2623 0.2993 0.0000
vt 0.2262 0.4343 0.0000
vt 0.2623 0.5693 0.0000
vt 0.3612 0.6682 0.0000
vt 0.4962 0.7044 0.0000
vt 0.6313 0.6682 0.0000
vt 0.7301 0.5693 0.0000
vt 0.7663 0.4343 0.0000
vt 0.7301 0.2993 0.0000
# 100 texture coords

o mesh_4_
g mesh_4_
usemtl 03___Default
s off
f 1/1/1 2/2/2 3/3/3 
f 2/2/2 4/4/2 3/3/3 
f 2/2/2 5/5/4 4/4/2 
f 5/5/4 6/6/4 4/4/2 
f 5/5/4 7/7/5 6/6/4 
f 7/7/5 8/8/5 6/6/4 
f 7/7/5 9/9/6 8/8/5 
f 9/9/6 10/10/6 8/8/5 
f 9/9/6 11/11/7 10/10/6 
f 11/11/7 12/12/7 10/10/6 
f 11/11/7 13/13/8 12/12/7 
f 13/13/8 14/14/8 12/12/7 
f 13/13/8 15/15/9 14/14/8 
f 15/15/9 16/16/9 14/14/8 
f 15/15/9 17/17/10 16/16/9 
f 17/17/10 18/18/10 16/16/9 
f 17/17/10 19/19/11 18/18/10 
f 19/19/11 20/20/11 18/18/10 
f 19/19/11 21/21/12 20/20/11 
f 21/21/12 22/22/12 20/20/11 
f 21/21/12 23/23/13 22/22/12 
f 23/23/13 24/24/13 22/22/12 
f 23/23/13 1/25/1 24/24/13 
f 1/25/1 3/26/14 24/24/13 
f 21/27/15 1/28/15 23/29/15 
f 21/27/15 19/30/15 1/28/15 
f 19/30/15 2/31/15 1/28/15 
f 2/31/15 19/30/15 5/32/15 
f 19/30/15 17/33/15 5/32/15 
f 5/32/15 17/33/15 7/34/15 
f 17/33/15 15/35/15 7/34/15 
f 7/34/15 15/35/15 9/36/15 
f 15/35/15 13/37/15 9/36/15 
f 9/36/15 13/37/15 11/38/15 
f 25/39/16 26/40/16 27/41/16 
f 26/40/16 28/42/16 27/41/16 
f 27/41/16 28/42/16 29/43/16 
f 28/42/16 30/44/16 29/43/16 
f 18/45/17 20/46/11 31/47/18 
f 20/46/11 32/48/19 31/47/18 
f 16/45/9 18/46/10 33/47/20 
f 18/46/10 31/48/21 33/47/20 
f 14/45/8 16/46/9 34/47/22 
f 16/46/9 33/48/20 34/47/22 
f 12/45/23 14/46/8 35/47/24 
f 14/46/8 34/48/22 35/47/24 
f 10/45/6 12/46/7 36/47/25 
f 12/46/7 35/48/26 36/47/25 
f 8/45/5 10/46/6 37/47/27 
f 10/46/6 36/48/25 37/47/27 
f 6/45/28 8/46/5 38/47/29 
f 8/46/5 37/48/27 38/47/29 
f 4/45/2 6/46/4 39/47/30 
f 6/46/4 38/48/31 39/47/30 
f 3/45/1 4/46/2 40/47/3 
f 4/46/2 39/48/30 40/47/3 
f 24/45/32 3/46/1 41/47/33 
f 3/46/1 40/48/14 41/47/33 
f 22/45/12 24/46/13 42/47/34 
f 24/46/13 41/48/35 42/47/34 
f 20/45/11 22/46/12 32/47/19 
f 22/46/12 42/48/34 32/47/19 
f 41/49/36 40/50/37 43/51/38 
f 41/49/36 43/51/38 44/52/39 
f 42/53/40 41/49/36 44/52/39 
f 42/53/40 44/52/39 45/54/41 
f 32/55/42 42/53/40 45/54/41 
f 32/55/42 45/54/41 46/56/43 
f 31/57/44 32/55/42 46/56/43 
f 31/57/44 46/56/43 47/58/45 
f 33/59/46 31/57/44 47/58/45 
f 33/59/46 47/58/45 48/60/47 
f 34/61/48 33/59/46 48/60/47 
f 34/61/48 48/60/47 49/62/49 
f 35/63/50 34/61/48 49/62/49 
f 35/63/50 49/62/49 50/64/51 
f 36/65/52 35/63/50 50/64/51 
f 36/65/52 50/64/51 51/66/53 
f 37/67/54 36/65/52 51/66/53 
f 37/67/54 51/66/53 52/68/55 
f 38/69/56 37/67/54 52/68/55 
f 38/69/56 52/68/55 53/70/38 
f 39/71/57 38/69/56 53/70/38 
f 39/71/57 53/70/38 54/72/58 
f 40/50/37 39/71/57 54/72/58 
f 40/50/37 54/72/58 43/51/38 
f 43/51/38 54/72/58 55/73/59 
f 44/52/39 43/51/38 56/74/60 
f 43/51/38 55/73/59 56/74/60 
f 44/52/39 56/74/60 57/75/61 
f 45/54/41 44/52/39 57/75/61 
f 46/56/43 45/54/41 58/76/62 
f 45/54/41 57/75/61 58/76/62 
f 47/58/45 46/56/43 59/77/63 
f 46/56/43 58/76/62 59/77/63 
f 48/60/47 47/58/45 60/78/64 
f 47/58/45 59/77/63 60/78/64 
f 49/62/49 48/60/47 61/79/65 
f 48/60/47 60/78/64 61/79/65 
f 49/62/49 61/79/65 62/80/66 
f 50/64/51 49/62/49 62/80/66 
f 51/66/53 50/64/51 63/81/67 
f 50/64/51 62/80/66 63/81/67 
f 52/68/55 51/66/53 64/82/68 
f 51/66/53 63/81/67 64/82/68 
f 53/70/38 52/68/55 65/83/69 
f 52/68/55 64/82/68 65/83/69 
f 53/70/38 65/83/69 66/84/70 
f 54/72/58 53/70/38 66/84/70 
f 54/72/58 66/84/70 55/73/59 
f 55/85/71 66/86/72 67/87/71 
f 66/86/72 68/88/72 67/87/71 
f 66/85/72 65/86/73 68/87/72 
f 65/86/73 69/88/73 68/87/72 
f 65/85/73 64/86/74 69/87/73 
f 64/86/74 70/88/74 69/87/73 
f 64/85/75 63/86/76 70/87/75 
f 63/86/76 71/88/76 70/87/75 
f 63/85/76 62/86/77 71/87/76 
f 62/86/77 72/88/77 71/87/76 
f 62/85/77 61/86/78 72/87/77 
f 61/86/78 73/88/78 72/87/77 
f 61/85/78 60/86/79 73/87/78 
f 60/86/79 74/88/79 73/87/78 
f 60/85/79 59/86/80 74/87/79 
f 59/86/80 75/88/80 74/87/79 
f 59/85/80 58/86/81 75/87/80 
f 58/86/81 76/88/82 75/87/80 
f 58/85/82 57/86/83 76/87/82 
f 57/86/83 77/88/83 76/87/82 
f 57/85/83 56/86/84 77/87/83 
f 56/86/84 78/88/84 77/87/83 
f 56/85/84 55/86/71 78/87/84 
f 55/86/71 67/88/71 78/87/84 
f 67/89/85 68/90/86 25/39/87 
f 78/91/88 67/89/85 25/39/87 
f 78/91/88 25/39/87 27/41/89 
f 77/92/90 78/91/88 27/41/89 
f 76/93/91 77/92/90 27/41/89 
f 76/93/91 27/41/89 29/43/92 
f 75/94/93 76/93/91 29/43/92 
f 74/95/94 75/94/93 29/43/92 
f 74/95/94 29/43/92 30/44/95 
f 73/96/96 74/95/94 30/44/95 
f 72/97/97 73/96/96 30/44/95 
f 72/97/97 30/44/95 28/42/98 
f 71/98/99 72/97/97 28/42/98 
f 70/99/100 71/98/99 28/42/98 
f 70/99/100 28/42/98 26/40/101 
f 68/90/86 26/40/101 25/39/87 
f 69/100/102 70/99/100 26/40/101 
f 68/90/86 69/100/102 26/40/101 
# 152 faces

