# 3ds Max Wavefront OBJ Exporter v0.99 - (c)2007 guruware
# File Created: 08.11.2024 16:42:48

mtllib rueda_tras_der_mate.mtl

#
# object mesh_6_
#

v  -4.3110 -5.5591 -11.3465
v  -6.4966 -5.5591 -11.3465
v  -4.3110 -4.4072 -12.4984
v  -6.4966 -4.4072 -12.4984
v  -4.3110 -2.8337 -12.9200
v  -6.4966 -2.8337 -12.9200
v  -4.3110 -1.2603 -12.4984
v  -6.4966 -1.2603 -12.4984
v  -4.3110 -0.1084 -11.3465
v  -6.4966 -0.1084 -11.3465
v  -4.3110 0.3132 -9.7730
v  -6.4966 0.3132 -9.7730
v  -4.3110 -0.1084 -8.1995
v  -6.4966 -0.1084 -8.1995
v  -4.3110 -1.2603 -7.0477
v  -6.4966 -1.2603 -7.0477
v  -4.3110 -2.8337 -6.6261
v  -6.4966 -2.8337 -6.6261
v  -4.3110 -4.4072 -7.0477
v  -6.4966 -4.4072 -7.0477
v  -4.3110 -5.5591 -8.1995
v  -6.4966 -5.5591 -8.1995
v  -4.3110 -5.9807 -9.7730
v  -6.4966 -5.9807 -9.7730
v  -8.4889 -3.7311 -9.5316
v  -8.4889 -3.0742 -8.8721
v  -8.4889 -3.4907 -10.4326
v  -7.6836 -4.4270 -10.6929
v  -7.6836 -4.6734 -9.7730
v  -7.6836 -4.4270 -8.8532
v  -7.6836 -3.7536 -8.1798
v  -7.6836 -2.8337 -7.9333
v  -8.4889 -2.1768 -9.1135
v  -8.4889 -2.5933 -10.6740
v  -7.6836 -2.8337 -11.6127
v  -7.6836 -3.7536 -11.3663
v  -8.4889 -1.9364 -10.0144
v  -7.6836 -1.2405 -8.8532
v  -7.6836 -0.9940 -9.7730
v  -7.6836 -1.2405 -10.6929
v  -7.6836 -1.9139 -11.3663
v  -8.7001 -2.8337 -6.6261
v  -8.7001 -4.4072 -7.0477
v  -8.7001 -1.2603 -7.0477
v  -8.7001 -0.1084 -8.1995
v  -8.7001 0.3132 -9.7730
v  -8.7001 -0.1084 -11.3465
v  -8.7001 -1.2603 -12.4984
v  -8.7001 -2.8337 -12.9200
v  -8.7001 -4.4072 -12.4984
v  -8.7001 -5.5591 -11.3465
v  -8.7001 -5.9807 -9.7730
v  -8.7001 -5.5591 -8.1995
v  -8.8864 -5.4348 -9.7730
v  -8.8864 -5.0863 -8.4725
v  -8.8864 -4.1343 -7.5205
v  -8.8864 -2.8337 -7.1720
v  -8.8864 -1.5332 -7.5205
v  -8.8864 -0.5812 -8.4725
v  -8.8864 -0.2327 -9.7730
v  -8.8864 -0.5812 -11.0736
v  -8.8864 -1.5332 -12.0256
v  -8.8864 -2.8337 -12.3741
v  -8.8864 -4.1343 -12.0256
v  -8.8864 -5.0863 -11.0735
v  -8.7001 -4.8407 -9.7730
v  -8.7001 -4.5718 -8.7696
v  -8.7001 -3.8372 -8.0350
v  -8.7001 -2.8337 -7.7661
v  -8.7001 -1.8303 -8.0350
v  -8.7001 -1.0957 -8.7696
v  -8.7001 -0.8268 -9.7730
v  -8.7001 -1.0957 -10.7765
v  -8.7001 -1.8303 -11.5111
v  -8.7001 -2.8337 -11.7800
v  -8.7001 -3.8372 -11.5111
v  -8.7001 -4.5718 -10.7765
v  -7.6836 -1.9139 -8.1798
# 78 vertices

vn -0.0000 -0.8660 -0.5000
vn 0.0000 -0.8660 -0.5000
vn 0.0000 -0.5000 -0.8660
vn 0.0000 -0.0000 -1.0000
vn 0.0000 0.5000 -0.8660
vn 0.0000 0.8660 -0.5000
vn 0.0000 1.0000 -0.0000
vn 0.0000 0.8660 0.5000
vn 0.0000 0.5000 0.8660
vn 0.0000 0.0000 1.0000
vn 0.0000 -0.5000 0.8660
vn 0.0000 -0.8660 0.5000
vn 0.0000 -1.0000 0.0000
vn -0.0001 -0.8660 -0.5000
vn 1.0000 -0.0000 0.0000
vn 1.0000 0.0000 -0.0000
vn -0.8764 -0.4653 0.1247
vn -0.8761 -0.1248 0.4658
vn -0.8762 -0.3408 -0.3408
vn -0.7590 -0.5605 -0.3313
vn -0.7593 -0.6507 0.0068
vn -0.7590 -0.5673 0.3195
vn -0.7585 -0.3202 0.5676
vn -0.7582 -0.0066 0.6519
vn -0.8762 0.3408 0.3408
vn -0.8761 0.1248 -0.4658
vn -0.7582 0.0065 -0.6519
vn -0.7585 -0.3317 -0.5609
vn -0.8764 0.4653 -0.1247
vn -0.7590 0.5605 0.3313
vn -0.7593 0.6507 -0.0068
vn -0.7590 0.5673 -0.3195
vn -0.7585 0.3202 -0.5676
vn -0.0000 -0.0000 1.0000
vn 0.0000 -0.0000 1.0000
vn -0.0001 -0.5000 0.8660
vn -0.0000 0.5000 0.8660
vn -0.0000 0.0000 1.0000
vn -0.0000 0.8660 0.5000
vn -0.0000 1.0000 0.0000
vn 0.0000 1.0000 0.0000
vn -0.0001 0.8660 0.5000
vn -0.0000 0.8660 -0.5000
vn -0.0000 1.0000 -0.0000
vn -0.0000 0.5000 -0.8660
vn -0.0000 0.0000 -1.0000
vn 0.0000 0.0000 -1.0000
vn -0.0000 -0.5000 -0.8660
vn -0.0000 -0.0000 -1.0000
vn -0.0000 -1.0000 -0.0000
vn 0.0000 -1.0000 -0.0000
vn -0.0000 -0.8660 0.5000
vn 0.0001 -0.8660 0.5000
vn -0.0000 -1.0000 0.0000
vn -0.0000 -0.5000 0.8660
vn -0.9464 -0.3230 0.0000
vn -0.9999 -0.0124 0.0000
vn -0.9464 -0.2797 -0.1615
vn -0.9999 -0.0124 -0.0000
vn -0.9464 -0.2797 0.1615
vn -0.9999 -0.0062 0.0107
vn -0.9464 -0.1615 0.2797
vn -0.9999 0.0062 0.0107
vn -0.9464 0.0000 0.3230
vn -0.9999 0.0062 0.0108
vn -0.9464 0.1615 0.2797
vn -0.9999 0.0124 -0.0000
vn -0.9464 0.2797 0.1615
vn -0.9464 0.3230 -0.0000
vn -0.9999 0.0062 -0.0107
vn -0.9464 0.2797 -0.1615
vn -0.9999 0.0062 -0.0108
vn -0.9464 0.1615 -0.2797
vn -0.9999 -0.0062 -0.0107
vn -0.9464 -0.0000 -0.3230
vn -0.9999 -0.0062 -0.0108
vn -0.9464 -0.1615 -0.2797
vn -0.9542 0.2993 -0.0000
vn -0.9542 0.2592 -0.1496
vn -0.9542 0.1496 -0.2592
vn -0.9542 -0.0000 -0.2993
vn -0.9542 -0.1496 -0.2592
vn -0.9542 -0.2592 -0.1496
vn -0.9542 -0.2993 0.0000
vn -0.9542 -0.2592 0.1496
vn -0.9542 -0.1496 0.2592
vn -0.9542 0.0000 0.2993
vn -0.9542 0.1496 0.2592
vn -0.9542 0.2592 0.1496
vn -0.1624 0.9867 -0.0000
vn -0.1624 0.8545 0.4934
vn -0.1624 0.4934 0.8545
vn -0.1624 -0.0000 0.9867
vn -0.1624 0.0000 0.9867
vn -0.1624 -0.4934 0.8545
vn -0.1624 -0.8545 0.4934
vn -0.1624 -0.9867 0.0000
vn -0.1624 -0.8545 -0.4934
vn -0.1624 -0.4934 -0.8545
vn -0.1624 0.0000 -0.9867
vn -0.1624 -0.0000 -0.9867
vn -0.1624 0.4934 -0.8545
vn -0.1624 0.8545 -0.4934
vn -0.7585 0.3317 0.5609
# 104 vertex normals

vt 0.0131 0.8675 0.0000
vt 0.0131 0.9639 0.0000
vt 0.0920 0.8675 0.0000
vt 0.0920 0.9639 0.0000
vt 0.1710 0.8675 0.0000
vt 0.1710 0.9639 0.0000
vt 0.2499 0.8675 0.0000
vt 0.2499 0.9639 0.0000
vt 0.3289 0.8675 0.0000
vt 0.3289 0.9639 0.0000
vt 0.4078 0.8675 0.0000
vt 0.4078 0.9639 0.0000
vt 0.4868 0.8675 0.0000
vt 0.4868 0.9639 0.0000
vt 0.5657 0.8675 0.0000
vt 0.5657 0.9639 0.0000
vt 0.6447 0.8675 0.0000
vt 0.6447 0.9639 0.0000
vt 0.7236 0.8675 0.0000
vt 0.7236 0.9639 0.0000
vt 0.8026 0.8675 0.0000
vt 0.8026 0.9639 0.0000
vt 0.8815 0.8675 0.0000
vt 0.8815 0.9639 0.0000
vt 0.9605 0.8675 0.0000
vt 0.9605 0.9639 0.0000
vt 0.8580 0.6489 0.0000
vt 0.9134 0.4420 0.0000
vt 0.8580 0.2350 0.0000
vt 0.7064 0.8005 0.0000
vt 0.7064 0.0835 0.0000
vt 0.4995 0.0280 0.0000
vt 0.4995 0.8559 0.0000
vt 0.2925 0.0835 0.0000
vt 0.2925 0.8005 0.0000
vt 0.1410 0.2350 0.0000
vt 0.1410 0.6489 0.0000
vt 0.0855 0.4420 0.0000
vt 0.4686 0.3316 0.0000
vt 0.3931 0.4068 0.0000
vt 0.5717 0.3591 0.0000
vt 0.6313 0.2004 0.0000
vt 0.4962 0.1642 0.0000
vt 0.3612 0.2004 0.0000
vt 0.2623 0.2993 0.0000
vt 0.2262 0.4343 0.0000
vt 0.4208 0.5095 0.0000
vt 0.5993 0.4618 0.0000
vt 0.7663 0.4343 0.0000
vt 0.7301 0.2993 0.0000
vt 0.5239 0.5370 0.0000
vt 0.3612 0.6682 0.0000
vt 0.4962 0.7044 0.0000
vt 0.6313 0.6682 0.0000
vt 0.7301 0.5693 0.0000
vt 0.4477 0.8683 0.0000
vt 0.4477 0.9660 0.0000
vt 0.5523 0.8683 0.0000
vt 0.5523 0.9660 0.0000
vt 0.4962 0.0151 0.0000
vt 0.4962 0.0878 0.0000
vt 0.7059 0.0712 0.0000
vt 0.3230 0.1342 0.0000
vt 0.2866 0.0712 0.0000
vt 0.1962 0.2610 0.0000
vt 0.1332 0.2247 0.0000
vt 0.1497 0.4343 0.0000
vt 0.0770 0.4343 0.0000
vt 0.1962 0.6075 0.0000
vt 0.1332 0.6439 0.0000
vt 0.3230 0.7344 0.0000
vt 0.2866 0.7974 0.0000
vt 0.4962 0.7808 0.0000
vt 0.4962 0.8535 0.0000
vt 0.6695 0.7344 0.0000
vt 0.7059 0.7974 0.0000
vt 0.7963 0.6075 0.0000
vt 0.8593 0.6439 0.0000
vt 0.8427 0.4343 0.0000
vt 0.9155 0.4343 0.0000
vt 0.7963 0.2610 0.0000
vt 0.8593 0.2247 0.0000
vt 0.6695 0.1342 0.0000
vt 0.4962 0.1397 0.0000
vt 0.3489 0.1791 0.0000
vt 0.2411 0.2870 0.0000
vt 0.2016 0.4343 0.0000
vt 0.2411 0.5816 0.0000
vt 0.3489 0.6894 0.0000
vt 0.4962 0.7289 0.0000
vt 0.6436 0.6894 0.0000
vt 0.7514 0.5816 0.0000
vt 0.7909 0.4343 0.0000
vt 0.7514 0.2870 0.0000
vt 0.6436 0.1791 0.0000
vt 0.0382 0.9679 0.0000
vt 0.0382 0.9945 0.0000
vt 0.0805 0.9679 0.0000
vt 0.0805 0.9945 0.0000
vt 0.2623 0.5693 0.0000
# 100 texture coords

o mesh_6_
g mesh_6_
usemtl 03___Default
s off
f 1/1/1 2/2/2 3/3/3 
f 2/2/2 4/4/3 3/3/3 
f 3/3/3 4/4/3 5/5/4 
f 4/4/3 6/6/4 5/5/4 
f 5/5/4 6/6/4 7/7/5 
f 6/6/4 8/8/5 7/7/5 
f 7/7/5 8/8/5 9/9/6 
f 8/8/5 10/10/6 9/9/6 
f 9/9/6 10/10/6 11/11/7 
f 10/10/6 12/12/7 11/11/7 
f 11/11/7 12/12/7 13/13/8 
f 12/12/7 14/14/8 13/13/8 
f 13/13/8 14/14/8 15/15/9 
f 14/14/8 16/16/9 15/15/9 
f 15/15/9 16/16/9 17/17/10 
f 16/16/9 18/18/10 17/17/10 
f 17/17/10 18/18/10 19/19/11 
f 18/18/10 20/20/11 19/19/11 
f 19/19/11 20/20/11 21/21/12 
f 20/20/11 22/22/12 21/21/12 
f 21/21/12 22/22/12 23/23/13 
f 22/22/12 24/24/13 23/23/13 
f 23/23/13 24/24/13 1/25/14 
f 24/24/13 2/26/2 1/25/14 
f 21/27/15 23/28/16 1/29/16 
f 21/27/15 1/29/16 19/30/16 
f 1/29/16 3/31/16 19/30/16 
f 3/31/16 5/32/16 19/30/16 
f 5/32/16 17/33/16 19/30/16 
f 5/32/16 7/34/16 17/33/16 
f 7/34/16 15/35/16 17/33/16 
f 7/34/16 9/36/16 15/35/16 
f 9/36/16 13/37/16 15/35/16 
f 9/36/16 11/38/16 13/37/16 
f 25/39/17 26/40/18 27/41/19 
f 25/39/17 27/41/19 28/42/20 
f 29/43/21 25/39/17 28/42/20 
f 26/40/18 25/39/17 30/44/22 
f 30/44/22 25/39/17 29/43/21 
f 31/45/23 26/40/18 30/44/22 
f 32/46/24 26/40/18 31/45/23 
f 26/40/18 33/47/25 27/41/19 
f 33/47/25 26/40/18 32/46/24 
f 27/41/19 33/47/25 34/48/26 
f 27/41/19 34/48/26 35/49/27 
f 36/50/28 27/41/19 35/49/27 
f 28/42/20 27/41/19 36/50/28 
f 33/47/25 37/51/29 34/48/26 
f 37/51/29 33/47/25 38/52/30 
f 39/53/31 37/51/29 38/52/30 
f 34/48/26 37/51/29 40/54/32 
f 40/54/32 37/51/29 39/53/31 
f 35/49/27 34/48/26 41/55/33 
f 41/55/33 34/48/26 40/54/32 
f 18/56/34 42/57/35 20/58/36 
f 42/57/35 43/59/11 20/58/36 
f 16/56/37 44/57/9 18/58/38 
f 44/57/9 42/59/10 18/58/38 
f 14/56/39 45/57/8 16/58/37 
f 45/57/8 44/59/9 16/58/37 
f 12/56/40 46/57/41 14/58/42 
f 46/57/41 45/59/8 14/58/42 
f 10/56/43 47/57/6 12/58/44 
f 47/57/6 46/59/7 12/58/44 
f 8/56/45 48/57/5 10/58/43 
f 48/57/5 47/59/6 10/58/43 
f 6/56/46 49/57/47 8/58/45 
f 49/57/47 48/59/5 8/58/45 
f 4/56/48 50/57/3 6/58/49 
f 50/57/3 49/59/4 6/58/49 
f 2/56/1 51/57/2 4/58/48 
f 51/57/2 50/59/3 4/58/48 
f 24/56/50 52/57/51 2/58/1 
f 52/57/51 51/59/2 2/58/1 
f 22/56/52 53/57/53 24/58/54 
f 53/57/53 52/59/13 24/58/54 
f 20/56/55 43/57/11 22/58/52 
f 43/57/11 53/59/12 22/58/52 
f 52/60/56 54/61/57 51/62/58 
f 55/63/59 54/61/57 52/60/56 
f 53/64/60 55/63/59 52/60/56 
f 56/65/61 55/63/59 53/64/60 
f 43/66/62 56/65/61 53/64/60 
f 57/67/63 56/65/61 43/66/62 
f 42/68/64 57/67/63 43/66/62 
f 58/69/65 57/67/63 42/68/64 
f 44/70/66 58/69/65 42/68/64 
f 59/71/67 58/69/65 44/70/66 
f 45/72/68 59/71/67 44/70/66 
f 60/73/67 59/71/67 45/72/68 
f 46/74/69 60/73/67 45/72/68 
f 61/75/70 60/73/67 46/74/69 
f 47/76/71 61/75/70 46/74/69 
f 62/77/72 61/75/70 47/76/71 
f 48/78/73 62/77/72 47/76/71 
f 63/79/74 62/77/72 48/78/73 
f 49/80/75 63/79/74 48/78/73 
f 64/81/76 63/79/74 49/80/75 
f 50/82/77 64/81/76 49/80/75 
f 51/62/58 65/83/57 50/82/77 
f 54/61/57 65/83/57 51/62/58 
f 65/83/57 64/81/76 50/82/77 
f 54/61/57 66/84/78 65/83/57 
f 67/85/79 66/84/78 54/61/57 
f 55/63/59 67/85/79 54/61/57 
f 56/65/61 68/86/80 55/63/59 
f 68/86/80 67/85/79 55/63/59 
f 57/67/63 69/87/81 56/65/61 
f 69/87/81 68/86/80 56/65/61 
f 58/69/65 70/88/82 57/67/63 
f 70/88/82 69/87/81 57/67/63 
f 59/71/67 71/89/83 58/69/65 
f 71/89/83 70/88/82 58/69/65 
f 72/90/84 71/89/83 59/71/67 
f 60/73/67 72/90/84 59/71/67 
f 61/75/70 73/91/85 60/73/67 
f 73/91/85 72/90/84 60/73/67 
f 62/77/72 74/92/86 61/75/70 
f 74/92/86 73/91/85 61/75/70 
f 63/79/74 75/93/87 62/77/72 
f 75/93/87 74/92/86 62/77/72 
f 64/81/76 76/94/88 63/79/74 
f 76/94/88 75/93/87 63/79/74 
f 77/95/89 76/94/88 64/81/76 
f 65/83/57 77/95/89 64/81/76 
f 66/84/78 77/95/89 65/83/57 
f 66/96/90 29/97/90 77/98/91 
f 29/97/90 28/99/91 77/98/91 
f 77/96/91 28/97/91 76/98/92 
f 28/97/91 36/99/92 76/98/92 
f 76/96/92 36/97/92 75/98/93 
f 36/97/92 35/99/93 75/98/93 
f 75/96/94 35/97/94 74/98/95 
f 35/97/94 41/99/95 74/98/95 
f 74/96/95 41/97/95 73/98/96 
f 41/97/95 40/99/96 73/98/96 
f 73/96/96 40/97/96 72/98/97 
f 40/97/96 39/99/97 72/98/97 
f 72/96/97 39/97/97 71/98/98 
f 39/97/97 38/99/98 71/98/98 
f 71/96/98 38/97/98 70/98/99 
f 38/97/98 78/99/99 70/98/99 
f 70/96/99 78/97/99 69/98/100 
f 78/97/99 32/99/101 69/98/100 
f 69/96/101 32/97/101 68/98/102 
f 32/97/101 31/99/102 68/98/102 
f 68/96/102 31/97/102 67/98/103 
f 31/97/102 30/99/103 67/98/103 
f 67/96/103 30/97/103 66/98/90 
f 30/97/103 29/99/90 66/98/90 
f 78/100/104 33/47/25 32/46/24 
f 38/52/30 33/47/25 78/100/104 
# 152 faces

