# 3ds Max Wavefront OBJ Exporter v0.99 - (c)2007 guruware
# File Created: 08.11.2024 16:44:13

mtllib rueda_del_izq_mate.mtl

#
# object mesh_3_
#

v  4.7617 -5.5591 11.2681
v  4.7617 -4.4072 10.1163
v  6.7462 -5.5591 11.2681
v  6.7462 -5.9807 12.8416
v  4.7617 -5.9807 12.8416
v  6.7462 -5.5591 14.4151
v  4.7617 -5.5591 14.4151
v  6.7462 -4.4072 15.5670
v  4.7617 -4.4072 15.5670
v  6.7462 -2.8337 15.9886
v  4.7617 -2.8337 15.9886
v  6.7462 -1.2603 15.5670
v  4.7617 -1.2603 15.5670
v  6.7462 -0.1084 14.4151
v  4.7617 -0.1084 14.4151
v  6.7462 0.3132 12.8416
v  4.7617 0.3132 12.8416
v  6.7462 -0.1084 11.2681
v  4.7617 -0.1084 11.2681
v  6.7462 -1.2603 10.1163
v  4.7617 -1.2603 10.1163
v  6.7462 -4.4072 10.1163
v  4.7617 -2.8337 9.6946
v  6.7462 -2.8337 9.6946
v  7.1875 -3.9364 12.5461
v  7.1875 -3.1292 11.7389
v  7.1875 -3.6409 13.6488
v  7.1875 -2.0265 12.0344
v  7.1875 -2.5383 13.9443
v  7.1875 -1.7311 13.1371
v  6.9362 -5.3568 12.8416
v  6.9362 -5.0188 14.1031
v  6.9362 -4.0953 15.0266
v  6.9362 -2.8337 15.3646
v  6.9362 -1.5722 15.0266
v  6.9362 -0.6487 14.1031
v  6.9362 -0.3107 12.8416
v  6.9362 -0.6487 11.5801
v  6.9362 -1.5722 10.6566
v  6.9362 -2.8337 10.3186
v  6.9362 -4.0953 10.6566
v  6.9362 -5.0188 11.5801
v  6.7462 -4.8293 12.8416
v  6.7462 -4.5620 13.8394
v  6.7462 -3.8315 14.5698
v  6.7462 -2.8337 14.8372
v  6.7462 -1.8359 14.5698
v  6.7462 -1.1055 13.8394
v  6.7462 -0.8381 12.8416
v  6.7462 -1.1055 11.8438
v  6.7462 -1.8359 11.1134
v  6.7462 -2.8337 10.8460
v  6.7462 -3.8315 11.1134
v  6.7462 -4.5620 11.8438
v  6.4678 -4.5633 12.8416
v  6.4678 -4.3315 13.7064
v  6.4678 -3.6985 14.3394
v  6.4678 -2.8337 14.5711
v  6.4678 -1.9690 14.3394
v  6.4678 -1.3359 13.7064
v  6.4678 -1.1042 12.8416
v  6.4678 -1.3359 11.9768
v  6.4678 -1.9690 11.3438
v  6.4678 -2.8337 11.1121
v  6.4678 -3.6985 11.3438
v  6.4678 -4.3315 11.9768
# 66 vertices

vn 0.0000 -0.8660 -0.5000
vn 0.0000 -0.5000 -0.8660
vn 0.0000 -1.0000 0.0000
vn 0.0000 -0.8660 0.5000
vn 0.0000 -0.5000 0.8660
vn 0.0000 0.0000 1.0000
vn 0.0000 0.5000 0.8660
vn 0.0000 0.8660 0.5000
vn 0.0000 1.0000 -0.0000
vn 0.0000 0.8660 -0.5000
vn -0.0000 0.5000 -0.8660
vn 0.0000 0.5000 -0.8660
vn 0.0000 -0.0000 -1.0000
vn -1.0000 0.0000 -0.0000
vn -1.0000 -0.0000 0.0000
vn 1.0000 0.0000 -0.0000
vn 0.9566 -0.2913 0.0000
vn 0.9566 -0.2523 -0.1457
vn 0.9997 0.0249 -0.0000
vn 0.9997 0.0124 -0.0216
vn 0.9566 -0.2523 0.1457
vn 0.9566 -0.1457 0.2523
vn 0.9997 -0.0000 -0.0249
vn 0.9566 0.0000 0.2913
vn 0.9997 -0.0216 -0.0124
vn 0.9566 0.1457 0.2523
vn 0.9566 0.2523 0.1457
vn 0.9997 -0.0249 0.0000
vn 0.9566 0.2913 -0.0000
vn 0.9997 -0.0124 0.0216
vn 0.9566 0.2523 -0.1457
vn 0.9566 0.1457 -0.2523
vn 0.9997 0.0000 0.0249
vn 0.9566 -0.0000 -0.2913
vn 0.9997 0.0215 0.0124
vn 0.9566 -0.1457 -0.2523
vn 0.9997 0.0216 0.0124
vn 0.9408 0.3389 -0.0000
vn 0.9408 0.2935 -0.1695
vn 0.9408 0.1695 -0.2935
vn 0.9408 -0.0000 -0.3389
vn 0.9408 -0.1695 -0.2935
vn 0.9408 -0.2935 -0.1695
vn 0.9408 -0.3389 0.0000
vn 0.9408 -0.2935 0.1695
vn 0.9408 -0.1695 0.2935
vn 0.9408 0.0000 0.3389
vn 0.9408 0.1695 0.2935
vn 0.9408 0.2935 0.1695
vn 0.6910 0.7228 -0.0000
vn 0.6910 0.6260 0.3614
vn 0.6910 0.7229 -0.0000
vn 0.6910 0.6260 -0.3614
vn 0.6910 0.3614 -0.6260
vn 0.6910 -0.0000 -0.7228
vn 0.6910 -0.3614 -0.6260
vn 0.6910 -0.6260 -0.3614
vn 0.6910 -0.7228 0.0000
vn 0.6910 -0.6260 0.3614
vn 0.6910 -0.3614 0.6260
vn 0.6910 0.0000 0.7228
vn 0.6910 0.3614 0.6260
vn 0.6543 -0.7561 -0.0106
vn 0.6543 -0.6601 -0.3689
vn 0.6903 -0.6989 -0.1873
vn 0.6903 -0.5116 0.5116
vn 0.6543 -0.6496 0.3872
vn 0.6543 -0.3872 0.6495
vn 0.6903 0.1873 0.6989
vn 0.6543 0.0106 0.7561
vn 0.6543 0.3689 0.6601
vn 0.6903 0.6989 0.1873
vn 0.6543 0.6601 0.3689
vn 0.6543 0.7561 0.0106
vn 0.6903 0.5116 -0.5116
vn 0.6543 0.6495 -0.3872
vn 0.6543 0.3872 -0.6495
vn 0.6903 -0.1873 -0.6989
vn 0.6543 -0.0106 -0.7561
vn 0.6543 -0.3689 -0.6601
# 80 vertex normals

vt 0.7276 0.8722 0.0000
vt 0.8078 0.8722 0.0000
vt 0.7259 0.9622 0.0000
vt 0.6471 0.9622 0.0000
vt 0.6471 0.8722 0.0000
vt 0.5684 0.9622 0.0000
vt 0.5666 0.8722 0.0000
vt 0.4895 0.9622 0.0000
vt 0.4864 0.8722 0.0000
vt 0.4102 0.9622 0.0000
vt 0.4067 0.8722 0.0000
vt 0.3305 0.9622 0.0000
vt 0.3274 0.8722 0.0000
vt 0.2503 0.9622 0.0000
vt 0.2485 0.8722 0.0000
vt 0.1698 0.9622 0.0000
vt 0.1698 0.8722 0.0000
vt 0.0893 0.9622 0.0000
vt 0.0911 0.8722 0.0000
vt 0.0091 0.9622 0.0000
vt 0.0121 0.8722 0.0000
vt 0.8048 0.9622 0.0000
vt 0.8876 0.8722 0.0000
vt 0.8840 0.9622 0.0000
vt 0.9668 0.8722 0.0000
vt 0.9638 0.9622 0.0000
vt 0.7064 0.0835 0.0000
vt 0.7064 0.8005 0.0000
vt 0.4995 0.0280 0.0000
vt 0.8580 0.2350 0.0000
vt 0.8580 0.6489 0.0000
vt 0.9134 0.4420 0.0000
vt 0.4995 0.8559 0.0000
vt 0.2925 0.0835 0.0000
vt 0.2925 0.8005 0.0000
vt 0.1410 0.2350 0.0000
vt 0.1410 0.6489 0.0000
vt 0.0855 0.4420 0.0000
vt 0.5253 0.3312 0.0000
vt 0.5984 0.4043 0.0000
vt 0.4254 0.3580 0.0000
vt 0.5716 0.5042 0.0000
vt 0.3987 0.4579 0.0000
vt 0.4718 0.5310 0.0000
vt 0.4985 0.0119 0.0000
vt 0.7081 0.0680 0.0000
vt 0.4985 0.0950 0.0000
vt 0.3305 0.1400 0.0000
vt 0.2889 0.0680 0.0000
vt 0.2074 0.2630 0.0000
vt 0.1354 0.2215 0.0000
vt 0.1624 0.4311 0.0000
vt 0.0793 0.4311 0.0000
vt 0.2074 0.5992 0.0000
vt 0.1354 0.6407 0.0000
vt 0.3305 0.7222 0.0000
vt 0.2889 0.7942 0.0000
vt 0.4985 0.7672 0.0000
vt 0.4985 0.8503 0.0000
vt 0.6666 0.7222 0.0000
vt 0.7081 0.7942 0.0000
vt 0.7896 0.5992 0.0000
vt 0.8616 0.6407 0.0000
vt 0.8346 0.4311 0.0000
vt 0.9178 0.4311 0.0000
vt 0.7896 0.2630 0.0000
vt 0.8616 0.2215 0.0000
vt 0.6666 0.1400 0.0000
vt 0.4985 0.1653 0.0000
vt 0.3656 0.2009 0.0000
vt 0.2683 0.2982 0.0000
vt 0.2327 0.4311 0.0000
vt 0.2683 0.5640 0.0000
vt 0.3656 0.6613 0.0000
vt 0.4985 0.6970 0.0000
vt 0.6314 0.6613 0.0000
vt 0.7287 0.5640 0.0000
vt 0.7644 0.4311 0.0000
vt 0.7287 0.2982 0.0000
vt 0.6314 0.2009 0.0000
vt 0.4985 0.2007 0.0000
vt 0.3833 0.2316 0.0000
vt 0.2990 0.3159 0.0000
vt 0.2681 0.4311 0.0000
vt 0.2990 0.5463 0.0000
vt 0.3833 0.6306 0.0000
vt 0.4985 0.6615 0.0000
vt 0.6137 0.6306 0.0000
vt 0.6981 0.5463 0.0000
vt 0.7289 0.4311 0.0000
vt 0.6981 0.3159 0.0000
vt 0.6137 0.2316 0.0000
# 92 texture coords

o mesh_3_
g mesh_3_
usemtl 03___Default
s off
f 1/1/1 2/2/2 3/3/1 
f 1/1/1 3/3/1 4/4/3 
f 5/5/3 1/1/1 4/4/3 
f 5/5/3 4/4/3 6/6/4 
f 7/7/4 5/5/3 6/6/4 
f 7/7/4 6/6/4 8/8/5 
f 9/9/5 7/7/4 8/8/5 
f 9/9/5 8/8/5 10/10/6 
f 11/11/6 9/9/5 10/10/6 
f 11/11/6 10/10/6 12/12/7 
f 13/13/7 11/11/6 12/12/7 
f 13/13/7 12/12/7 14/14/8 
f 15/15/8 13/13/7 14/14/8 
f 15/15/8 14/14/8 16/16/9 
f 17/17/9 15/15/8 16/16/9 
f 17/17/9 16/16/9 18/18/10 
f 19/19/10 17/17/9 18/18/10 
f 19/19/10 18/18/10 20/20/11 
f 21/21/12 19/19/10 20/20/11 
f 2/2/2 22/22/2 3/3/1 
f 2/2/2 23/23/13 22/22/2 
f 23/23/13 24/24/13 22/22/2 
f 23/23/13 21/25/12 24/24/13 
f 21/25/12 20/26/11 24/24/13 
f 2/27/14 9/28/14 23/29/14 
f 9/28/14 2/27/14 1/30/15 
f 7/31/14 9/28/14 1/30/15 
f 7/31/14 1/30/15 5/32/14 
f 9/28/14 11/33/14 23/29/14 
f 23/29/14 11/33/14 21/34/14 
f 11/33/14 13/35/14 21/34/14 
f 21/34/14 13/35/14 19/36/14 
f 13/35/14 15/37/14 19/36/14 
f 19/36/14 15/37/14 17/38/14 
f 25/39/16 26/40/16 27/41/16 
f 26/40/16 28/42/16 27/41/16 
f 27/41/16 28/42/16 29/43/16 
f 28/42/16 30/44/16 29/43/16 
f 4/45/17 3/46/18 31/47/19 
f 4/45/17 31/47/19 32/48/20 
f 6/49/21 4/45/17 32/48/20 
f 6/49/21 32/48/20 33/50/20 
f 8/51/22 6/49/21 33/50/20 
f 8/51/22 33/50/20 34/52/23 
f 10/53/24 8/51/22 34/52/23 
f 10/53/24 34/52/23 35/54/25 
f 12/55/26 10/53/24 35/54/25 
f 12/55/26 35/54/25 36/56/25 
f 14/57/27 12/55/26 36/56/25 
f 14/57/27 36/56/25 37/58/28 
f 16/59/29 14/57/27 37/58/28 
f 16/59/29 37/58/28 38/60/30 
f 18/61/31 16/59/29 38/60/30 
f 18/61/31 38/60/30 39/62/30 
f 20/63/32 18/61/31 39/62/30 
f 20/63/32 39/62/30 40/64/33 
f 24/65/34 20/63/32 40/64/33 
f 24/65/34 40/64/33 41/66/35 
f 22/67/36 24/65/34 41/66/35 
f 22/67/36 41/66/35 42/68/37 
f 3/46/18 22/67/36 42/68/37 
f 3/46/18 42/68/37 31/47/19 
f 31/47/19 42/68/37 43/69/38 
f 32/48/20 31/47/19 44/70/39 
f 31/47/19 43/69/38 44/70/39 
f 33/50/20 32/48/20 45/71/40 
f 32/48/20 44/70/39 45/71/40 
f 34/52/23 33/50/20 46/72/41 
f 33/50/20 45/71/40 46/72/41 
f 34/52/23 46/72/41 47/73/42 
f 35/54/25 34/52/23 47/73/42 
f 36/56/25 35/54/25 48/74/43 
f 35/54/25 47/73/42 48/74/43 
f 37/58/28 36/56/25 49/75/44 
f 36/56/25 48/74/43 49/75/44 
f 38/60/30 37/58/28 50/76/45 
f 37/58/28 49/75/44 50/76/45 
f 39/62/30 38/60/30 51/77/46 
f 38/60/30 50/76/45 51/77/46 
f 39/62/30 51/77/46 52/78/47 
f 40/64/33 39/62/30 52/78/47 
f 41/66/35 40/64/33 53/79/48 
f 40/64/33 52/78/47 53/79/48 
f 42/68/37 41/66/35 54/80/49 
f 42/68/37 54/80/49 43/69/38 
f 41/66/35 53/79/48 54/80/49 
f 43/69/50 54/80/51 55/81/52 
f 43/69/50 55/81/52 56/82/53 
f 44/70/53 43/69/50 56/82/53 
f 44/70/53 56/82/53 57/83/54 
f 45/71/54 44/70/53 57/83/54 
f 45/71/54 57/83/54 58/84/55 
f 46/72/55 45/71/54 58/84/55 
f 46/72/55 58/84/55 59/85/56 
f 47/73/56 46/72/55 59/85/56 
f 47/73/56 59/85/56 60/86/57 
f 48/74/57 47/73/56 60/86/57 
f 48/74/57 60/86/57 61/87/58 
f 49/75/58 48/74/57 61/87/58 
f 49/75/58 61/87/58 62/88/59 
f 50/76/59 49/75/58 62/88/59 
f 50/76/59 62/88/59 63/89/60 
f 51/77/60 50/76/59 63/89/60 
f 51/77/60 63/89/60 64/90/61 
f 52/78/61 51/77/60 64/90/61 
f 52/78/61 64/90/61 65/91/62 
f 53/79/62 52/78/61 65/91/62 
f 53/79/62 65/91/62 66/92/51 
f 54/80/51 53/79/62 66/92/51 
f 54/80/51 66/92/51 55/81/52 
f 55/81/63 66/92/64 25/39/65 
f 55/81/63 25/39/65 27/41/66 
f 56/82/67 55/81/63 27/41/66 
f 57/83/68 56/82/67 27/41/66 
f 57/83/68 27/41/66 29/43/69 
f 58/84/70 57/83/68 29/43/69 
f 59/85/71 58/84/70 29/43/69 
f 59/85/71 29/43/69 30/44/72 
f 60/86/73 59/85/71 30/44/72 
f 61/87/74 60/86/73 30/44/72 
f 61/87/74 30/44/72 28/42/75 
f 62/88/76 61/87/74 28/42/75 
f 63/89/77 62/88/76 28/42/75 
f 63/89/77 28/42/75 26/40/78 
f 64/90/79 63/89/77 26/40/78 
f 65/91/80 26/40/78 25/39/65 
f 66/92/64 65/91/80 25/39/65 
f 65/91/80 64/90/79 26/40/78 
# 128 faces

