# 3ds Max Wavefront OBJ Exporter v0.99 - (c)2007 guruware
# File Created: 08.11.2024 16:43:19

mtllib rueda_del_der_mate.mtl

#
# object mesh_5_
#

v  -7.4139 -5.5591 11.4936
v  -9.0395 -5.5591 12.6319
v  -8.0746 -4.4072 10.5501
v  -8.1370 -5.9807 13.9208
v  -6.5114 -5.9807 12.7825
v  -7.2344 -5.5591 15.2097
v  -5.6089 -5.5591 14.0715
v  -6.5738 -4.4072 16.1533
v  -4.9482 -4.4072 15.0150
v  -6.3319 -2.8337 16.4986
v  -4.7063 -2.8337 15.3604
v  -6.5738 -1.2603 16.1533
v  -4.9482 -1.2603 15.0150
v  -7.2344 -0.1084 15.2097
v  -5.6089 -0.1084 14.0715
v  -8.1370 0.3132 13.9208
v  -6.5114 0.3132 12.7825
v  -9.0395 -0.1084 12.6319
v  -7.4139 -0.1084 11.4936
v  -9.7001 -1.2603 11.6883
v  -8.0746 -1.2603 10.5501
v  -9.7001 -4.4072 11.6883
v  -8.3164 -2.8337 10.2047
v  -9.9420 -2.8337 11.3429
v  -8.3290 -3.9364 14.4159
v  -7.8660 -3.1292 15.0771
v  -8.9614 -3.6409 13.5127
v  -8.0354 -2.0265 14.8351
v  -9.1309 -2.5383 13.2706
v  -8.6679 -1.7311 13.9319
v  -8.2926 -5.3568 14.0298
v  -7.5690 -5.0188 15.0631
v  -7.0393 -4.0953 15.8196
v  -6.8454 -2.8337 16.0965
v  -7.0393 -1.5722 15.8196
v  -7.5690 -0.6487 15.0631
v  -8.2926 -0.3107 14.0298
v  -9.0162 -0.6487 12.9964
v  -9.5459 -1.5722 12.2399
v  -9.7398 -2.8337 11.9630
v  -9.5459 -4.0953 12.2399
v  -9.0162 -5.0188 12.9964
v  -8.1370 -4.8293 13.9208
v  -7.5646 -4.5620 14.7381
v  -7.1457 -3.8315 15.3365
v  -6.9923 -2.8337 15.5555
v  -7.1457 -1.8359 15.3365
v  -7.5646 -1.1055 14.7381
v  -8.1370 -0.8381 13.9208
v  -8.7093 -1.1055 13.1034
v  -9.1282 -1.8359 12.5051
v  -9.2816 -2.8337 12.2861
v  -9.1282 -3.8315 12.5051
v  -8.7093 -4.5620 13.1034
v  -7.9090 -4.5633 13.7611
v  -7.4130 -4.3315 14.4695
v  -7.0498 -3.6985 14.9881
v  -6.9169 -2.8337 15.1779
v  -7.0498 -1.9690 14.9881
v  -7.4130 -1.3359 14.4695
v  -7.9090 -1.1042 13.7611
v  -8.4050 -1.3359 13.0528
v  -8.7681 -1.9690 12.5342
v  -8.9010 -2.8337 12.3444
v  -8.7681 -3.6985 12.5342
v  -8.4050 -4.3315 13.0528
# 66 vertices

vn 0.0000 -0.8660 -0.5000
vn 0.0000 -0.5000 -0.8660
vn 0.0000 -1.0000 0.0000
vn -0.0000 -0.8660 0.5000
vn -0.0000 -0.5000 0.8660
vn 0.0000 -0.0000 1.0000
vn 0.0000 0.0000 1.0000
vn -0.0000 0.5000 0.8660
vn -0.0000 0.8660 0.5000
vn 0.0000 1.0000 -0.0000
vn 0.0000 0.8660 -0.5000
vn 0.0000 0.5000 -0.8660
vn -0.0000 0.0000 -1.0000
vn 1.0000 -0.0000 0.0000
vn 1.0000 0.0000 0.0000
vn -1.0000 -0.0000 -0.0000
vn -1.0000 0.0000 -0.0000
vn -0.9566 -0.2913 0.0000
vn -0.9997 0.0249 0.0000
vn -0.9566 -0.2523 -0.1457
vn -0.9997 0.0124 -0.0216
vn -0.9566 -0.2523 0.1457
vn -0.9566 -0.1457 0.2523
vn -0.9997 0.0000 -0.0249
vn -0.9566 0.0000 0.2913
vn -0.9997 -0.0215 -0.0124
vn -0.9566 0.1457 0.2523
vn -0.9997 -0.0216 -0.0124
vn -0.9566 0.2523 0.1457
vn -0.9997 -0.0249 0.0000
vn -0.9566 0.2913 -0.0000
vn -0.9997 -0.0125 0.0215
vn -0.9566 0.2523 -0.1457
vn -0.9997 -0.0124 0.0216
vn -0.9566 0.1457 -0.2523
vn -0.9997 -0.0000 0.0249
vn -0.9566 0.0000 -0.2913
vn -0.9997 0.0215 0.0124
vn -0.9566 -0.1457 -0.2523
vn -0.9408 0.3389 -0.0000
vn -0.9408 0.2935 -0.1694
vn -0.9408 0.1695 -0.2935
vn -0.9408 0.0000 -0.3389
vn -0.9408 -0.1695 -0.2935
vn -0.9408 -0.2935 -0.1694
vn -0.9408 -0.3389 0.0000
vn -0.9408 -0.2935 0.1694
vn -0.9408 -0.1694 0.2935
vn -0.9408 -0.0000 0.3389
vn -0.9408 0.1694 0.2935
vn -0.9408 0.2935 0.1695
vn -0.6910 0.7228 -0.0000
vn -0.6910 0.6260 0.3614
vn -0.6910 0.6260 -0.3614
vn -0.6910 0.3614 -0.6260
vn -0.6910 0.0000 -0.7228
vn -0.6910 0.0000 -0.7229
vn -0.6910 -0.3614 -0.6260
vn -0.6910 -0.6260 -0.3614
vn -0.6910 -0.7228 0.0000
vn -0.6910 -0.7228 -0.0000
vn -0.6910 -0.6260 0.3614
vn -0.6910 -0.3614 0.6260
vn -0.6910 -0.0000 0.7229
vn -0.6910 -0.0000 0.7228
vn -0.6910 0.3614 0.6260
vn -0.6543 -0.7561 0.0106
vn -0.6903 -0.6989 0.1873
vn -0.6543 -0.6495 -0.3872
vn -0.6543 -0.6601 0.3689
vn -0.6903 -0.1873 0.6989
vn -0.6543 -0.3689 0.6601
vn -0.6543 -0.0105 0.7561
vn -0.6903 0.5116 0.5116
vn -0.6543 0.3872 0.6495
vn -0.6543 0.6496 0.3872
vn -0.6903 0.6989 -0.1873
vn -0.6543 0.7561 -0.0106
vn -0.6543 0.6601 -0.3689
vn -0.6903 0.1873 -0.6989
vn -0.6543 0.3689 -0.6601
vn -0.6543 0.0106 -0.7561
vn -0.6903 -0.5116 -0.5116
vn -0.6543 -0.3872 -0.6495
# 84 vertex normals

vt 0.7276 0.8722 0.0000
vt 0.7259 0.9622 0.0000
vt 0.8078 0.8722 0.0000
vt 0.6471 0.9622 0.0000
vt 0.6471 0.8722 0.0000
vt 0.5684 0.9622 0.0000
vt 0.5666 0.8722 0.0000
vt 0.4895 0.9622 0.0000
vt 0.4864 0.8722 0.0000
vt 0.4102 0.9622 0.0000
vt 0.4067 0.8722 0.0000
vt 0.3305 0.9622 0.0000
vt 0.3274 0.8722 0.0000
vt 0.2503 0.9622 0.0000
vt 0.2485 0.8722 0.0000
vt 0.1698 0.9622 0.0000
vt 0.1698 0.8722 0.0000
vt 0.0893 0.9622 0.0000
vt 0.0911 0.8722 0.0000
vt 0.0091 0.9622 0.0000
vt 0.0121 0.8722 0.0000
vt 0.8048 0.9622 0.0000
vt 0.8876 0.8722 0.0000
vt 0.8840 0.9622 0.0000
vt 0.9668 0.8722 0.0000
vt 0.9638 0.9622 0.0000
vt 0.7064 0.0835 0.0000
vt 0.4995 0.0280 0.0000
vt 0.7064 0.8005 0.0000
vt 0.8580 0.2350 0.0000
vt 0.8580 0.6489 0.0000
vt 0.9134 0.4420 0.0000
vt 0.4995 0.8559 0.0000
vt 0.2925 0.0835 0.0000
vt 0.2925 0.8005 0.0000
vt 0.1410 0.2350 0.0000
vt 0.1410 0.6489 0.0000
vt 0.0855 0.4420 0.0000
vt 0.4718 0.3312 0.0000
vt 0.3987 0.4043 0.0000
vt 0.5716 0.3580 0.0000
vt 0.4254 0.5042 0.0000
vt 0.5984 0.4579 0.0000
vt 0.5253 0.5310 0.0000
vt 0.4985 0.0119 0.0000
vt 0.4985 0.0950 0.0000
vt 0.7081 0.0680 0.0000
vt 0.3305 0.1400 0.0000
vt 0.2889 0.0680 0.0000
vt 0.2074 0.2630 0.0000
vt 0.1354 0.2215 0.0000
vt 0.1624 0.4311 0.0000
vt 0.0793 0.4311 0.0000
vt 0.2074 0.5992 0.0000
vt 0.1354 0.6407 0.0000
vt 0.3305 0.7222 0.0000
vt 0.2889 0.7942 0.0000
vt 0.4985 0.7672 0.0000
vt 0.4985 0.8503 0.0000
vt 0.6666 0.7222 0.0000
vt 0.7081 0.7942 0.0000
vt 0.7896 0.5992 0.0000
vt 0.8616 0.6407 0.0000
vt 0.8346 0.4311 0.0000
vt 0.9178 0.4311 0.0000
vt 0.7896 0.2630 0.0000
vt 0.8616 0.2215 0.0000
vt 0.6666 0.1400 0.0000
vt 0.4985 0.1653 0.0000
vt 0.3656 0.2009 0.0000
vt 0.2683 0.2982 0.0000
vt 0.2327 0.4311 0.0000
vt 0.2683 0.5640 0.0000
vt 0.3656 0.6613 0.0000
vt 0.4985 0.6970 0.0000
vt 0.6314 0.6613 0.0000
vt 0.7287 0.5640 0.0000
vt 0.7644 0.4311 0.0000
vt 0.7287 0.2982 0.0000
vt 0.6314 0.2009 0.0000
vt 0.4985 0.2007 0.0000
vt 0.3833 0.2316 0.0000
vt 0.2990 0.3159 0.0000
vt 0.2681 0.4311 0.0000
vt 0.2990 0.5463 0.0000
vt 0.3833 0.6306 0.0000
vt 0.4985 0.6615 0.0000
vt 0.6137 0.6306 0.0000
vt 0.6981 0.5463 0.0000
vt 0.7289 0.4311 0.0000
vt 0.6981 0.3159 0.0000
vt 0.6137 0.2316 0.0000
# 92 texture coords

o mesh_5_
g mesh_5_
usemtl 03___Default
s off
f 1/1/1 2/2/1 3/3/2 
f 4/4/3 2/2/1 1/1/1 
f 5/5/3 4/4/3 1/1/1 
f 6/6/4 4/4/3 5/5/3 
f 7/7/4 6/6/4 5/5/3 
f 8/8/5 6/6/4 7/7/4 
f 9/9/5 8/8/5 7/7/4 
f 10/10/6 8/8/5 9/9/5 
f 11/11/7 10/10/6 9/9/5 
f 12/12/8 10/10/6 11/11/7 
f 13/13/8 12/12/8 11/11/7 
f 14/14/9 12/12/8 13/13/8 
f 15/15/9 14/14/9 13/13/8 
f 16/16/10 14/14/9 15/15/9 
f 17/17/10 16/16/10 15/15/9 
f 18/18/11 16/16/10 17/17/10 
f 19/19/11 18/18/11 17/17/10 
f 20/20/12 18/18/11 19/19/11 
f 21/21/12 20/20/12 19/19/11 
f 2/2/1 22/22/2 3/3/2 
f 3/3/2 22/22/2 23/23/13 
f 22/22/2 24/24/13 23/23/13 
f 23/23/13 24/24/13 21/25/12 
f 24/24/13 20/26/12 21/25/12 
f 3/27/14 23/28/15 9/29/14 
f 1/30/15 3/27/14 9/29/14 
f 7/31/14 1/30/15 9/29/14 
f 7/31/14 5/32/15 1/30/15 
f 23/28/15 11/33/14 9/29/14 
f 23/28/15 21/34/15 11/33/14 
f 21/34/15 13/35/14 11/33/14 
f 21/34/15 19/36/14 13/35/14 
f 19/36/14 15/37/15 13/35/14 
f 19/36/14 17/38/14 15/37/15 
f 25/39/16 26/40/17 27/41/16 
f 26/40/17 28/42/16 27/41/16 
f 27/41/16 28/42/16 29/43/17 
f 28/42/16 30/44/17 29/43/17 
f 4/45/18 31/46/19 2/47/20 
f 32/48/21 31/46/19 4/45/18 
f 6/49/22 32/48/21 4/45/18 
f 33/50/21 32/48/21 6/49/22 
f 8/51/23 33/50/21 6/49/22 
f 34/52/24 33/50/21 8/51/23 
f 10/53/25 34/52/24 8/51/23 
f 35/54/26 34/52/24 10/53/25 
f 12/55/27 35/54/26 10/53/25 
f 36/56/28 35/54/26 12/55/27 
f 14/57/29 36/56/28 12/55/27 
f 37/58/30 36/56/28 14/57/29 
f 16/59/31 37/58/30 14/57/29 
f 38/60/32 37/58/30 16/59/31 
f 18/61/33 38/60/32 16/59/31 
f 39/62/34 38/60/32 18/61/33 
f 20/63/35 39/62/34 18/61/33 
f 40/64/36 39/62/34 20/63/35 
f 24/65/37 40/64/36 20/63/35 
f 41/66/38 40/64/36 24/65/37 
f 22/67/39 41/66/38 24/65/37 
f 2/47/20 42/68/38 22/67/39 
f 31/46/19 42/68/38 2/47/20 
f 42/68/38 41/66/38 22/67/39 
f 31/46/19 43/69/40 42/68/38 
f 44/70/41 43/69/40 31/46/19 
f 32/48/21 44/70/41 31/46/19 
f 33/50/21 45/71/42 32/48/21 
f 45/71/42 44/70/41 32/48/21 
f 34/52/24 46/72/43 33/50/21 
f 46/72/43 45/71/42 33/50/21 
f 35/54/26 47/73/44 34/52/24 
f 47/73/44 46/72/43 34/52/24 
f 36/56/28 48/74/45 35/54/26 
f 48/74/45 47/73/44 35/54/26 
f 49/75/46 48/74/45 36/56/28 
f 37/58/30 49/75/46 36/56/28 
f 38/60/32 50/76/47 37/58/30 
f 50/76/47 49/75/46 37/58/30 
f 39/62/34 51/77/48 38/60/32 
f 51/77/48 50/76/47 38/60/32 
f 40/64/36 52/78/49 39/62/34 
f 52/78/49 51/77/48 39/62/34 
f 41/66/38 53/79/50 40/64/36 
f 53/79/50 52/78/49 40/64/36 
f 54/80/51 53/79/50 41/66/38 
f 42/68/38 54/80/51 41/66/38 
f 43/69/40 54/80/51 42/68/38 
f 43/69/52 55/81/52 54/80/53 
f 56/82/54 55/81/52 43/69/52 
f 44/70/54 56/82/54 43/69/52 
f 57/83/55 56/82/54 44/70/54 
f 45/71/55 57/83/55 44/70/54 
f 58/84/56 57/83/55 45/71/55 
f 46/72/57 58/84/56 45/71/55 
f 59/85/58 58/84/56 46/72/57 
f 47/73/58 59/85/58 46/72/57 
f 60/86/59 59/85/58 47/73/58 
f 48/74/59 60/86/59 47/73/58 
f 61/87/60 60/86/59 48/74/59 
f 49/75/61 61/87/60 48/74/59 
f 62/88/62 61/87/60 49/75/61 
f 50/76/62 62/88/62 49/75/61 
f 63/89/63 62/88/62 50/76/62 
f 51/77/63 63/89/63 50/76/62 
f 64/90/64 63/89/63 51/77/63 
f 52/78/65 64/90/64 51/77/63 
f 65/91/66 64/90/64 52/78/65 
f 53/79/66 65/91/66 52/78/65 
f 66/92/53 65/91/66 53/79/66 
f 54/80/53 66/92/53 53/79/66 
f 55/81/52 66/92/53 54/80/53 
f 55/81/67 25/39/68 66/92/69 
f 56/82/70 25/39/68 55/81/67 
f 26/40/71 25/39/68 56/82/70 
f 57/83/72 26/40/71 56/82/70 
f 58/84/73 26/40/71 57/83/72 
f 28/42/74 26/40/71 58/84/73 
f 59/85/75 28/42/74 58/84/73 
f 60/86/76 28/42/74 59/85/75 
f 30/44/77 28/42/74 60/86/76 
f 61/87/78 30/44/77 60/86/76 
f 62/88/79 30/44/77 61/87/78 
f 29/43/80 30/44/77 62/88/79 
f 63/89/81 29/43/80 62/88/79 
f 64/90/82 29/43/80 63/89/81 
f 25/39/68 27/41/83 66/92/69 
f 27/41/83 29/43/80 64/90/82 
f 66/92/69 27/41/83 65/91/84 
f 65/91/84 27/41/83 64/90/82 
# 128 faces

